InterThaiLooped-Italic.glyphspackage
{
glyphname = quotedbl;
kernLeft = quotedbl;
kernRight = quotedbl;
layers = (
{
layerId = "11F4534A-B963-4AB5-820F-DAF9A20CD933";
shapes = (
{
closed = 1;
nodes = (
(443,923,l),
(558,1490,l),
(364,1490,l),
(292,923,l)
);
},
{
closed = 1;
nodes = (
(783,923,l),
(898,1490,l),
(704,1490,l),
(632,923,l)
);
}
);
width = 954;
},
{
layerId = "D0EC06BF-13F9-4C88-A6F5-B8203AF6C77E";
shapes = (
{
closed = 1;
nodes = (
(573,824,l),
(720,1490,l),
(350,1490,l),
(277,824,l)
);
},
{
closed = 1;
nodes = (
(1090,824,l),
(1237,1490,l),
(867,1490,l),
(794,824,l)
);
}
);
width = 1279;
},
{
layerId = "200BE2C5-40F6-4CF4-AF4F-A33C0CC0964F";
shapes = (
{
closed = 1;
nodes = (
(382,1040,l),
(461,1490,l),
(410,1490,l),
(341,1040,l)
);
},
{
closed = 1;
nodes = (
(613,1040,l),
(692,1490,l),
(641,1490,l),
(572,1040,l)
);
}
);
width = 794;
}
);
note = "space in between:
100 D: 2.5x
100 T: 3.25x
400: 1x
900: 0.5x";
unicode = 34;
userData = {
interface.gridadjust.original = "{'width': 1152, 'leftMargin': 256, 'rightMargin': 256}";
"interface.width-adjustments" = (
-16
);
};
}
{
glyphname = underscore;
layers = (
{
anchors = (
{
name = _bottom;
pos = (400,158);
}
);
layerId = "11F4534A-B963-4AB5-820F-DAF9A20CD933";
name = ital_gen;
shapes = (
{
closed = 1;
nodes = (
(-93,0,l),
(-120,-166,l),
(814,-166,l),
(841,0,l)
);
}
);
width = 934;
},
{
anchors = (
{
name = _bottom;
pos = (438,155);
}
);
guides = (
{
angle = 80.6;
orientation = center;
pos = (880,132);
}
);
layerId = "D0EC06BF-13F9-4C88-A6F5-B8203AF6C77E";
name = ital_gen;
shapes = (
{
closed = 1;
nodes = (
(-93,0,l),
(-140,-286,l),
(870,-286,l),
(917,0,l)
);
}
);
width = 1010;
},
{
anchors = (
{
name = _bottom;
pos = (390,243);
}
);
layerId = "200BE2C5-40F6-4CF4-AF4F-A33C0CC0964F";
name = ital_gen;
shapes = (
{
closed = 1;
nodes = (
(-92,0,l),
(-100,-46,l),
(784,-46,l),
(792,0,l)
);
}
);
width = 885;
}
);
metricLeft = "=0";
metricRight = "=0";
unicode = 95;
}
{
glyphname = "koKai-thai";
kernLeft = "koKai-thai";
kernRight = "koKai-thai";
layers = (
{
anchors = (
{
name = bottom;
pos = (912,0);
},
{
name = top;
pos = (1090,1174);
}
);
layerId = "200BE2C5-40F6-4CF4-AF4F-A33C0CC0964F";
shapes = (
{
closed = 1;
nodes = (
(162,0,l),
(240,472,ls),
(266,634,o),
(340,718,o),
(444,702,cs),
(494,694,l),
(500,738,l),
(196,784,l),
(226,740,l),
(232,786,ls),
(268,1006,o),
(440,1146,o),
(674,1146,cs),
(906,1146,o),
(1030,1006,o),
(994,786,cs),
(866,0,l),
(912,0,l),
(1042,786,ls),
(1082,1032,o),
(936,1192,o),
(674,1192,cs),
(416,1192,o),
(228,1036,o),
(188,786,cs),
(180,740,l),
(336,718,l),
(334,710,l),
(264,684,o),
(216,600,o),
(194,472,cs),
(116,0,l)
);
}
);
width = 1198;
},
{
anchors = (
{
name = bottom;
pos = (990,0);
},
{
name = top;
pos = (1170,1174);
}
);
layerId = "11F4534A-B963-4AB5-820F-DAF9A20CD933";
shapes = (
{
closed = 1;
nodes = (
(258,0,l),
(324,400,ls),
(348,552,o),
(420,628,o),
(524,616,cs),
(576,610,l),
(598,744,l),
(290,782,l),
(296,680,l),
(304,726,ls),
(336,920,o),
(480,1042,o),
(680,1042,cs),
(868,1042,o),
(974,936,o),
(946,768,cs),
(818,0,l),
(990,0,l),
(1118,766,ls),
(1160,1024,o),
(988,1198,o),
(692,1198,cs),
(390,1198,o),
(180,1016,o),
(132,718,cs),
(126,672,l),
(344,646,l),
(342,634,l),
(234,602,o),
(174,522,o),
(150,380,cs),
(88,0,l)
);
}
);
width = 1246;
},
{
anchors = (
{
name = bottom;
pos = (1142,0);
},
{
name = top;
pos = (1322,1174);
}
);
layerId = "D0EC06BF-13F9-4C88-A6F5-B8203AF6C77E";
shapes = (
{
closed = 1;
nodes = (
(418,0,l),
(494,456,ls),
(502,506,o),
(532,534,o),
(582,534,cs),
(626,534,l),
(664,752,l),
(412,752,l),
(470,682,l),
(478,728,ls),
(496,834,o),
(572,892,o),
(694,892,cs),
(818,892,o),
(878,834,o),
(860,728,cs),
(740,0,l),
(1144,0,l),
(1268,756,ls),
(1312,1024,o),
(1106,1198,o),
(746,1198,cs),
(388,1198,o),
(136,1014,o),
(88,722,cs),
(74,636,l),
(278,636,l),
(276,624,l),
(164,594,o),
(100,520,o),
(80,400,cs),
(14,0,l)
);
}
);
width = 1330;
}
);
unicode = 3585;
}
{
glyphname = "khoKhai-thai";
kernLeft = "khoKhai-thai";
kernRight = "boBaimai-thai";
layers = (
{
anchors = (
{
name = bottom;
pos = (720,0);
},
{
name = top;
pos = (928,1174);
}
);
layerId = "200BE2C5-40F6-4CF4-AF4F-A33C0CC0964F";
shapes = (
{
closed = 1;
nodes = (
(650,-14,o),
(744,60,o),
(778,266,cs),
(928,1174,l),
(882,1174,l),
(732,266,ls),
(704,92,o),
(624,30,o),
(432,30,cs),
(242,30,o),
(182,92,o),
(210,266,cs),
(238,426,ls),
(256,544,o),
(288,616,o),
(362,712,cs),
(448,820,o),
(498,942,o),
(498,1042,cs),
(498,1134,o),
(448,1188,o),
(366,1188,cs),
(266,1188,o),
(192,1100,o),
(192,978,cs),
(192,890,o),
(242,834,o),
(318,834,cs),
(374,834,o),
(416,864,o),
(444,924,c),
(432,924,l),
(422,870,o),
(396,822,o),
(328,734,cs),
(244,628,o),
(212,558,o),
(190,426,cs),
(164,266,ls),
(132,66,o),
(208,-14,o),
(432,-14,cs)
);
},
{
closed = 1;
nodes = (
(270,878,o),
(236,916,o),
(236,978,cs),
(236,1068,o),
(296,1144,o),
(366,1144,cs),
(418,1144,o),
(450,1104,o),
(450,1042,cs),
(450,954,o),
(392,878,o),
(320,878,cs)
);
}
);
width = 1023;
},
{
anchors = (
{
name = bottom;
pos = (830,0);
},
{
name = top;
pos = (1038,1174);
}
);
layerId = "11F4534A-B963-4AB5-820F-DAF9A20CD933";
shapes = (
{
closed = 1;
nodes = (
(750,-14,o),
(854,66,o),
(894,310,cs),
(1038,1174,l),
(866,1174,l),
(724,328,ls),
(700,180,o),
(646,136,o),
(490,136,cs),
(334,136,o),
(296,180,o),
(320,328,cs),
(336,424,ls),
(354,540,o),
(384,612,o),
(448,694,cs),
(542,812,o),
(590,918,o),
(590,1010,cs),
(590,1114,o),
(512,1188,o),
(402,1188,cs),
(264,1188,o),
(162,1084,o),
(162,942,cs),
(162,836,o),
(232,766,o),
(338,766,cs),
(416,766,o),
(486,796,o),
(526,850,c),
(398,850,l),
(376,816,o),
(358,788,o),
(322,746,cs),
(224,632,o),
(190,558,o),
(168,424,cs),
(148,310,ls),
(110,74,o),
(200,-14,o),
(480,-14,cs)
);
},
{
closed = 1;
nodes = (
(314,868,o),
(286,902,o),
(286,950,cs),
(286,1024,o),
(328,1078,o),
(388,1078,cs),
(428,1078,o),
(456,1044,o),
(456,998,cs),
(456,924,o),
(414,868,o),
(354,868,cs)
);
}
);
width = 1102;
},
{
anchors = (
{
name = bottom;
pos = (1022,0);
},
{
name = top;
pos = (1230,1174);
}
);
layerId = "D0EC06BF-13F9-4C88-A6F5-B8203AF6C77E";
shapes = (
{
closed = 1;
nodes = (
(912,-18,o),
(1048,78,o),
(1096,368,cs),
(1230,1174,l),
(828,1174,l),
(700,398,ls),
(686,318,o),
(650,288,o),
(562,288,cs),
(476,288,o),
(450,314,o),
(462,382,cs),
(474,462,ls),
(490,552,o),
(514,616,o),
(570,708,cs),
(632,810,o),
(664,904,o),
(664,976,cs),
(664,1100,o),
(556,1192,o),
(408,1192,cs),
(238,1192,o),
(120,1084,o),
(120,926,cs),
(120,792,o),
(210,698,o),
(334,698,cs),
(406,698,o),
(482,744,o),
(512,804,c),
(322,804,l),
(300,770,o),
(276,742,o),
(216,688,cs),
(132,608,o),
(100,548,o),
(82,446,cs),
(66,354,ls),
(20,90,o),
(158,-18,o),
(542,-18,cs)
);
},
{
closed = 1;
nodes = (
(328,862,o),
(310,886,o),
(310,924,cs),
(310,976,o),
(344,1020,o),
(384,1020,cs),
(412,1020,o),
(432,996,o),
(432,962,cs),
(432,908,o),
(398,862,o),
(358,862,cs)
);
}
);
width = 1227;
}
);
metricRight = "boBaimai-thai";
unicode = 3586;
}
{
glyphname = "khoKhuat-thai";
kernLeft = "khoKhuat-thai";
kernRight = "boBaimai-thai";
layers = (
{
anchors = (
{
name = bottom;
pos = (742,0);
},
{
name = top;
pos = (952,1174);
}
);
layerId = "200BE2C5-40F6-4CF4-AF4F-A33C0CC0964F";
shapes = (
{
closed = 1;
nodes = (
(670,-14,o),
(768,62,o),
(802,266,cs),
(952,1174,l),
(904,1174,l),
(754,266,ls),
(726,94,o),
(644,30,o),
(450,30,cs),
(258,30,o),
(198,94,o),
(226,266,cs),
(248,410,ls),
(266,516,o),
(292,566,o),
(378,666,cs),
(490,794,o),
(526,858,o),
(544,974,cs),
(576,1174,l),
(530,1174,l),
(526,1150,ls),
(504,1036,o),
(422,924,o),
(342,906,c),
(344,894,l),
(392,928,o),
(422,986,o),
(422,1050,cs),
(422,1130,o),
(372,1188,o),
(300,1188,cs),
(202,1188,o),
(130,1106,o),
(130,988,cs),
(130,906,o),
(182,848,o),
(256,848,cs),
(346,848,o),
(432,898,o),
(494,988,c),
(498,988,l),
(482,874,o),
(450,814,o),
(344,692,cs),
(248,580,o),
(220,526,o),
(202,410,cs),
(178,266,ls),
(146,68,o),
(226,-14,o),
(450,-14,cs)
);
},
{
closed = 1;
nodes = (
(208,892,o),
(174,934,o),
(174,990,cs),
(174,1080,o),
(226,1144,o),
(298,1144,cs),
(344,1144,o),
(378,1104,o),
(378,1048,cs),
(378,958,o),
(326,892,o),
(256,892,cs)
);
}
);
width = 1047;
},
{
anchors = (
{
name = bottom;
pos = (904,0);
},
{
name = top;
pos = (1110,1174);
}
);
layerId = "11F4534A-B963-4AB5-820F-DAF9A20CD933";
shapes = (
{
closed = 1;
nodes = (
(824,-14,o),
(928,68,o),
(968,310,cs),
(1112,1174,l),
(940,1174,l),
(798,328,ls),
(774,182,o),
(718,136,o),
(560,136,cs),
(402,136,o),
(362,180,o),
(386,328,cs),
(402,424,ls),
(420,538,o),
(448,596,o),
(532,686,cs),
(640,802,o),
(682,880,o),
(702,1004,cs),
(730,1174,l),
(580,1174,l),
(572,1118,ls),
(556,1018,o),
(494,970,o),
(386,970,c),
(408,882,l),
(454,920,o),
(482,980,o),
(482,1042,cs),
(482,1130,o),
(418,1188,o),
(318,1188,cs),
(198,1188,o),
(110,1098,o),
(110,974,cs),
(110,882,o),
(176,822,o),
(278,822,cs),
(352,822,o),
(436,854,o),
(514,908,c),
(526,908,l),
(504,858,o),
(472,816,o),
(402,750,cs),
(296,650,o),
(256,574,o),
(232,424,cs),
(214,310,ls),
(176,76,o),
(270,-14,o),
(552,-14,cs)
);
},
{
closed = 1;
nodes = (
(250,912,o),
(226,942,o),
(226,984,cs),
(226,1046,o),
(266,1094,o),
(316,1094,cs),
(352,1094,o),
(376,1066,o),
(376,1024,cs),
(376,962,o),
(336,912,o),
(286,912,cs)
);
}
);
width = 1176;
},
{
anchors = (
{
name = bottom;
pos = (1120,0);
},
{
name = top;
pos = (1328,1174);
}
);
layerId = "D0EC06BF-13F9-4C88-A6F5-B8203AF6C77E";
shapes = (
{
closed = 1;
nodes = (
(1008,-18,o),
(1146,78,o),
(1194,368,cs),
(1328,1174,l),
(926,1174,l),
(798,398,ls),
(784,318,o),
(748,288,o),
(656,288,cs),
(568,288,o),
(540,314,o),
(552,382,cs),
(566,468,ls),
(588,590,o),
(616,670,o),
(682,776,cs),
(752,896,o),
(782,978,o),
(800,1094,cs),
(814,1174,l),
(610,1174,l),
(600,1118,ls),
(586,1030,o),
(554,986,o),
(480,956,c),
(504,884,l),
(538,922,o),
(556,964,o),
(556,1010,cs),
(556,1114,o),
(466,1192,o),
(344,1192,cs),
(194,1192,o),
(80,1080,o),
(80,930,cs),
(80,808,o),
(156,730,o),
(270,730,cs),
(322,730,o),
(372,746,o),
(414,774,c),
(428,774,l),
(384,740,o),
(344,706,o),
(304,668,cs),
(226,590,o),
(182,506,o),
(164,404,cs),
(156,354,ls),
(110,90,o),
(248,-18,o),
(634,-18,cs)
);
},
{
closed = 1;
nodes = (
(270,894,o),
(254,914,o),
(254,946,cs),
(254,994,o),
(282,1036,o),
(320,1036,cs),
(346,1036,o),
(366,1012,o),
(366,980,cs),
(366,934,o),
(332,894,o),
(296,894,cs)
);
}
);
width = 1325;
}
);
metricRight = "boBaimai-thai";
unicode = 3587;
}
{
glyphname = "khoKhwai-thai";
kernLeft = "khoKhwai-thai";
kernRight = "khoKhwai-thai";
layers = (
{
anchors = (
{
name = bottom;
pos = (968,0);
},
{
name = top;
pos = (1150,1174);
}
);
layerId = "200BE2C5-40F6-4CF4-AF4F-A33C0CC0964F";
shapes = (
{
closed = 1;
nodes = (
(148,0,l),
(174,152,ls),
(208,360,o),
(406,632,o),
(572,696,c),
(572,708,l),
(526,668,o),
(498,614,o),
(498,552,cs),
(498,472,o),
(550,418,o),
(622,418,cs),
(720,418,o),
(788,498,o),
(788,616,cs),
(788,696,o),
(738,754,o),
(664,754,cs),
(516,754,o),
(334,604,o),
(216,382,c),
(210,382,l),
(272,748,ls),
(314,994,o),
(486,1146,o),
(724,1146,cs),
(960,1146,o),
(1086,990,o),
(1046,748,cs),
(922,0,l),
(968,0,l),
(1092,748,ls),
(1136,1018,o),
(992,1192,o),
(724,1192,cs),
(460,1192,o),
(272,1024,o),
(226,748,cs),
(102,0,l)
);
},
{
closed = 1;
nodes = (
(576,462,o),
(542,500,o),
(542,556,cs),
(542,646,o),
(594,712,o),
(664,712,cs),
(710,712,o),
(744,672,o),
(744,616,cs),
(744,526,o),
(694,462,o),
(624,462,cs)
);
}
);
width = 1256;
},
{
anchors = (
{
name = bottom;
pos = (1046,0);
},
{
name = top;
pos = (1224,1174);
}
);
layerId = "11F4534A-B963-4AB5-820F-DAF9A20CD933";
shapes = (
{
closed = 1;
nodes = (
(242,0,l),
(266,140,ls),
(296,322,o),
(396,486,o),
(526,578,c),
(516,642,l),
(494,620,o),
(484,592,o),
(484,550,cs),
(484,460,o),
(548,398,o),
(642,398,cs),
(760,398,o),
(850,494,o),
(850,616,cs),
(850,716,o),
(788,780,o),
(690,780,cs),
(576,780,o),
(446,688,o),
(338,528,c),
(328,528,l),
(364,750,ls),
(394,928,o),
(536,1042,o),
(730,1042,cs),
(922,1042,o),
(1030,926,o),
(1000,750,cs),
(876,0,l),
(1046,0,l),
(1170,760,ls),
(1212,1018,o),
(1036,1198,o),
(734,1198,cs),
(444,1198,o),
(244,1036,o),
(200,768,cs),
(72,0,l)
);
},
{
closed = 1;
nodes = (
(610,492,o),
(586,520,o),
(586,564,cs),
(586,626,o),
(628,676,o),
(680,676,cs),
(718,676,o),
(742,648,o),
(742,606,cs),
(742,544,o),
(698,492,o),
(648,492,cs)
);
}
);
width = 1304;
},
{
anchors = (
{
name = bottom;
pos = (1180,0);
},
{
name = top;
pos = (1360,1174);
}
);
layerId = "D0EC06BF-13F9-4C88-A6F5-B8203AF6C77E";
shapes = (
{
closed = 1;
nodes = (
(392,0,l),
(408,98,ls),
(434,252,o),
(482,360,o),
(560,434,c),
(530,500,l),
(516,474,o),
(510,444,o),
(510,420,cs),
(510,342,o),
(576,290,o),
(674,290,cs),
(812,290,o),
(918,396,o),
(918,534,cs),
(918,654,o),
(836,738,o),
(718,738,cs),
(606,738,o),
(518,662,o),
(468,520,c),
(456,520,l),
(484,686,ls),
(504,812,o),
(604,892,o),
(738,892,cs),
(870,892,o),
(942,812,o),
(920,686,cs),
(808,0,l),
(1182,0,l),
(1296,702,ls),
(1346,1002,o),
(1136,1198,o),
(766,1198,cs),
(414,1198,o),
(170,1012,o),
(120,708,cs),
(4,0,l)
);
},
{
closed = 1;
nodes = (
(646,440,o),
(626,464,o),
(626,496,cs),
(626,546,o),
(656,584,o),
(694,584,cs),
(720,584,o),
(738,560,o),
(738,528,cs),
(738,478,o),
(710,440,o),
(672,440,cs)
);
}
);
width = 1370;
},
{
anchors = (
{
name = bottom;
pos = (1126,0);
},
{
name = top;
pos = (1306,1174);
}
);
associatedMasterId = "D0EC06BF-13F9-4C88-A6F5-B8203AF6C77E";
attr = {
coordinates = (
700
);
};
background = {
shapes = (
{
closed = 1;
nodes = (
(392,0,l),
(408,98,ls),
(432,238,o),
(474,342,o),
(552,418,c),
(544,470,l),
(526,434,o),
(508,404,o),
(508,390,cs),
(508,326,o),
(582,276,o),
(670,276,cs),
(808,276,o),
(918,394,o),
(918,528,cs),
(918,646,o),
(832,724,o),
(718,724,cs),
(612,724,o),
(518,650,o),
(470,534,c),
(458,534,l),
(484,686,ls),
(504,812,o),
(602,892,o),
(736,892,cs),
(866,892,o),
(942,814,o),
(920,686,cs),
(806,0,l),
(1180,0,l),
(1296,702,ls),
(1348,1022,o),
(1112,1198,o),
(766,1198,cs),
(406,1198,o),
(170,1006,o),
(120,708,cs),
(4,0,l)
);
},
{
closed = 1;
nodes = (
(644,426,o),
(626,446,o),
(626,478,cs),
(626,528,o),
(658,568,o),
(694,568,cs),
(720,568,o),
(738,544,o),
(738,512,cs),
(738,470,o),
(710,426,o),
(670,426,cs)
);
}
);
};
layerId = "642EBF8B-905E-4CA7-A98B-07833B090B2B";
name = "Bold{700,-10}";
shapes = (
{
closed = 1;
nodes = (
(334,0,l),
(352,114,ls),
(378,280,o),
(448,412,o),
(546,492,c),
(526,558,l),
(508,534,o),
(498,504,o),
(498,472,cs),
(498,388,o),
(568,334,o),
(662,334,cs),
(792,334,o),
(890,436,o),
(890,566,cs),
(890,680,o),
(814,754,o),
(706,754,cs),
(594,754,o),
(490,674,o),
(416,522,c),
(406,522,l),
(436,712,ls),
(460,858,o),
(576,952,o),
(734,952,cs),
(886,952,o),
(976,862,o),
(952,712,cs),
(834,0,l),
(1128,0,l),
(1246,726,ls),
(1296,1024,o),
(1076,1198,o),
(754,1198,cs),
(418,1198,o),
(198,1016,o),
(152,732,cs),
(32,0,l)
);
},
{
closed = 1;
nodes = (
(630,462,o),
(610,486,o),
(610,524,cs),
(610,580,o),
(646,620,o),
(688,620,cs),
(718,620,o),
(740,594,o),
(740,558,cs),
(740,502,o),
(704,462,o),
(662,462,cs)
);
}
);
width = 1344;
},
{
anchors = (
{
name = bottom;
pos = (1154,0);
},
{
name = top;
pos = (1334,1174);
}
);
associatedMasterId = "D0EC06BF-13F9-4C88-A6F5-B8203AF6C77E";
attr = {
coordinates = (
800
);
};
background = {
shapes = (
{
closed = 1;
nodes = (
(392,0,l),
(408,98,ls),
(432,238,o),
(474,342,o),
(552,418,c),
(544,470,l),
(526,434,o),
(508,404,o),
(508,390,cs),
(508,326,o),
(582,276,o),
(670,276,cs),
(808,276,o),
(918,394,o),
(918,528,cs),
(918,646,o),
(832,724,o),
(718,724,cs),
(612,724,o),
(518,650,o),
(470,534,c),
(458,534,l),
(484,686,ls),
(504,812,o),
(602,892,o),
(736,892,cs),
(866,892,o),
(942,814,o),
(920,686,cs),
(806,0,l),
(1180,0,l),
(1296,702,ls),
(1348,1022,o),
(1112,1198,o),
(766,1198,cs),
(406,1198,o),
(170,1006,o),
(120,708,cs),
(4,0,l)
);
},
{
closed = 1;
nodes = (
(644,426,o),
(626,446,o),
(626,478,cs),
(626,528,o),
(658,568,o),
(694,568,cs),
(720,568,o),
(738,544,o),
(738,512,cs),
(738,470,o),
(710,426,o),
(670,426,cs)
);
}
);
};
layerId = "333DFEB6-FB2C-4CF7-8C55-E4A1C2005954";
name = "ExtraBold{800,-10}";
shapes = (
{
closed = 1;
nodes = (
(362,0,l),
(380,106,ls),
(406,262,o),
(464,384,o),
(568,462,c),
(542,530,l),
(526,504,o),
(520,474,o),
(520,446,cs),
(520,364,o),
(588,312,o),
(684,312,cs),
(818,312,o),
(920,418,o),
(920,552,cs),
(920,670,o),
(838,748,o),
(728,748,cs),
(612,748,o),
(500,660,o),
(442,522,c),
(432,522,l),
(460,700,ls),
(482,836,o),
(590,922,o),
(736,922,cs),
(878,922,o),
(958,838,o),
(936,700,cs),
(822,0,l),
(1154,0,l),
(1272,714,ls),
(1322,1024,o),
(1094,1198,o),
(760,1198,cs),
(412,1198,o),
(184,1010,o),
(136,720,cs),
(18,0,l)
);
},
{
closed = 1;
nodes = (
(652,450,o),
(634,476,o),
(634,510,cs),
(634,562,o),
(666,602,o),
(706,602,cs),
(734,602,o),
(754,578,o),
(754,544,cs),
(754,490,o),
(722,450,o),
(682,450,cs)
);
}
);
width = 1356;
}
);
metricRight = "=|";
unicode = 3588;
}
{
glyphname = "khoKhon-thai";
kernLeft = "khoKhon-thai";
kernRight = "khoKhon-thai";
layers = (
{
anchors = (
{
name = bottom;
pos = (988,0);
},
{
name = top;
pos = (1166,1174);
}
);
layerId = "200BE2C5-40F6-4CF4-AF4F-A33C0CC0964F";
shapes = (
{
closed = 1;
nodes = (
(152,0,l),
(176,152,ls),
(210,354,o),
(410,618,o),
(578,680,c),
(578,694,l),
(532,654,o),
(504,598,o),
(504,536,cs),
(504,456,o),
(556,402,o),
(628,402,cs),
(726,402,o),
(794,484,o),
(794,602,cs),
(794,682,o),
(744,740,o),
(670,740,cs),
(520,740,o),
(338,596,o),
(220,382,c),
(214,382,l),
(296,882,ls),
(320,1030,o),
(392,1114,o),
(514,1138,c),
(696,978,l),
(718,978,l),
(956,1138,l),
(1070,1114,o),
(1110,1030,o),
(1086,882,cs),
(942,0,l),
(988,0,l),
(1134,882,ls),
(1164,1054,o),
(1102,1154,o),
(952,1188,c),
(712,1024,l),
(706,1024,l),
(520,1188,l),
(364,1154,o),
(280,1058,o),
(250,882,cs),
(104,0,l)
);
},
{
closed = 1;
nodes = (
(582,446,o),
(548,486,o),
(548,542,cs),
(548,632,o),
(600,696,o),
(670,696,cs),
(716,696,o),
(750,656,o),
(750,600,cs),
(750,510,o),
(700,446,o),
(630,446,cs)
);
}
);
width = 1278;
},
{
anchors = (
{
name = bottom;
pos = (1068,0);
},
{
name = top;
pos = (1246,1174);
}
);
layerId = "11F4534A-B963-4AB5-820F-DAF9A20CD933";
shapes = (
{
closed = 1;
nodes = (
(246,0,l),
(266,124,ls),
(296,300,o),
(402,480,o),
(536,574,c),
(530,626,l),
(508,604,o),
(498,576,o),
(498,534,cs),
(498,444,o),
(562,382,o),
(656,382,cs),
(774,382,o),
(864,478,o),
(864,600,cs),
(864,700,o),
(800,764,o),
(702,764,cs),
(580,764,o),
(446,672,o),
(338,512,c),
(328,512,l),
(378,822,ls),
(396,934,o),
(458,1002,o),
(552,1018,c),
(696,898,l),
(744,898,l),
(928,1018,l),
(1014,1004,o),
(1050,934,o),
(1032,822,cs),
(898,0,l),
(1068,0,l),
(1200,804,ls),
(1234,1018,o),
(1150,1154,o),
(958,1188,c),
(742,1042,l),
(730,1042,l),
(562,1188,l),
(368,1170,o),
(246,1038,o),
(208,804,cs),
(76,0,l)
);
},
{
closed = 1;
nodes = (
(624,476,o),
(600,504,o),
(600,548,cs),
(600,610,o),
(640,660,o),
(692,660,cs),
(730,660,o),
(754,632,o),
(754,590,cs),
(754,528,o),
(712,476,o),
(662,476,cs)
);
}
);
width = 1328;
},
{
anchors = (
{
name = bottom;
pos = (1184,0);
},
{
name = top;
pos = (1360,1174);
}
);
layerId = "D0EC06BF-13F9-4C88-A6F5-B8203AF6C77E";
shapes = (
{
closed = 1;
nodes = (
(396,0,l),
(412,98,ls),
(434,238,o),
(484,346,o),
(562,418,c),
(534,486,l),
(520,460,o),
(512,430,o),
(512,406,cs),
(512,328,o),
(580,276,o),
(678,276,cs),
(816,276,o),
(920,382,o),
(920,520,cs),
(920,640,o),
(838,724,o),
(720,724,cs),
(610,724,o),
(522,652,o),
(472,520,c),
(460,520,l),
(496,744,ls),
(508,818,o),
(550,862,o),
(610,872,c),
(706,792,l),
(742,792,l),
(864,872,l),
(920,864,o),
(944,818,o),
(932,744,cs),
(810,0,l),
(1184,0,l),
(1304,736,ls),
(1346,998,o),
(1226,1170,o),
(980,1192,c),
(766,1064,l),
(754,1064,l),
(582,1192,l),
(334,1170,o),
(172,1008,o),
(128,736,cs),
(8,0,l)
);
},
{
closed = 1;
nodes = (
(648,426,o),
(630,450,o),
(630,482,cs),
(630,532,o),
(658,568,o),
(696,568,cs),
(722,568,o),
(742,546,o),
(742,514,cs),
(742,464,o),
(712,426,o),
(674,426,cs)
);
}
);
width = 1376;
},
{
anchors = (
{
name = bottom;
pos = (1136,0);
},
{
name = top;
pos = (1314,1174);
}
);
associatedMasterId = "D0EC06BF-13F9-4C88-A6F5-B8203AF6C77E";
attr = {
coordinates = (
700
);
};
background = {
shapes = (
{
closed = 1;
nodes = (
(394,0,l),
(410,98,ls),
(432,226,o),
(482,332,o),
(560,410,c),
(544,470,l),
(526,450,o),
(508,420,o),
(508,390,cs),
(508,326,o),
(582,276,o),
(670,276,cs),
(808,276,o),
(918,394,o),
(918,528,cs),
(918,646,o),
(832,722,o),
(718,722,cs),
(612,722,o),
(518,646,o),
(470,520,c),
(458,520,l),
(496,742,ls),
(508,816,o),
(550,862,o),
(608,872,c),
(706,792,l),
(742,792,l),
(864,872,l),
(920,864,o),
(944,816,o),
(932,742,cs),
(810,0,l),
(1184,0,l),
(1304,736,ls),
(1346,990,o),
(1234,1168,o),
(980,1192,c),
(766,1064,l),
(754,1064,l),
(582,1192,l),
(318,1168,o),
(170,990,o),
(128,736,cs),
(6,0,l)
);
},
{
closed = 1;
nodes = (
(644,424,o),
(626,446,o),
(626,478,cs),
(626,528,o),
(658,568,o),
(694,568,cs),
(720,568,o),
(738,544,o),
(738,512,cs),
(738,470,o),
(710,424,o),
(670,424,cs)
);
}
);
};
layerId = "7F49C4F8-F82C-4112-945B-4D0C9C7E8C2F";
name = "Bold{700,-10}";
shapes = (
{
closed = 1;
nodes = (
(336,0,l),
(354,108,ls),
(380,266,o),
(454,400,o),
(552,480,c),
(532,542,l),
(514,518,o),
(506,488,o),
(506,456,cs),
(506,374,o),
(574,318,o),
(670,318,cs),
(800,318,o),
(898,422,o),
(898,552,cs),
(898,666,o),
(820,740,o),
(712,740,cs),
(598,740,o),
(492,660,o),
(418,516,c),
(406,516,l),
(448,774,ls),
(462,864,o),
(512,918,o),
(586,930,c),
(702,834,l),
(742,834,l),
(890,930,l),
(958,920,o),
(986,864,o),
(972,774,cs),
(846,0,l),
(1138,0,l),
(1262,764,ls),
(1302,1002,o),
(1200,1162,o),
(972,1190,c),
(756,1056,l),
(744,1056,l),
(574,1190,l),
(330,1168,o),
(200,1002,o),
(160,764,cs),
(34,0,l)
);
},
{
closed = 1;
nodes = (
(638,446,o),
(618,470,o),
(618,508,cs),
(618,564,o),
(652,606,o),
(696,606,cs),
(726,606,o),
(746,580,o),
(746,544,cs),
(746,488,o),
(712,446,o),
(670,446,cs)
);
}
);
width = 1357;
},
{
anchors = (
{
name = bottom;
pos = (1160,0);
},
{
name = top;
pos = (1338,1174);
}
);
associatedMasterId = "D0EC06BF-13F9-4C88-A6F5-B8203AF6C77E";
attr = {
coordinates = (
800
);
};
background = {
shapes = (
{
closed = 1;
nodes = (
(394,0,l),
(410,98,ls),
(432,226,o),
(482,332,o),
(560,410,c),
(544,470,l),
(526,450,o),
(508,420,o),
(508,390,cs),
(508,326,o),
(582,276,o),
(670,276,cs),
(808,276,o),
(918,394,o),
(918,528,cs),
(918,646,o),
(832,722,o),
(718,722,cs),
(612,722,o),
(518,646,o),
(470,520,c),
(458,520,l),
(496,742,ls),
(508,816,o),
(550,862,o),
(608,872,c),
(706,792,l),
(742,792,l),
(864,872,l),
(920,864,o),
(944,816,o),
(932,742,cs),
(810,0,l),
(1184,0,l),
(1304,736,ls),
(1346,990,o),
(1234,1168,o),
(980,1192,c),
(766,1064,l),
(754,1064,l),
(582,1192,l),
(318,1168,o),
(170,990,o),
(128,736,cs),
(6,0,l)
);
},
{
closed = 1;
nodes = (
(644,424,o),
(626,446,o),
(626,478,cs),
(626,528,o),
(658,568,o),
(694,568,cs),
(720,568,o),
(738,544,o),
(738,512,cs),
(738,470,o),
(710,424,o),
(670,424,cs)
);
}
);
};
layerId = "A3489262-8C6A-4BE7-9BD7-9C1537222E90";
name = "ExtraBold{800,-10}";
shapes = (
{
closed = 1;
nodes = (
(366,0,l),
(382,104,ls),
(404,248,o),
(470,370,o),
(574,450,c),
(548,514,l),
(532,488,o),
(524,460,o),
(524,432,cs),
(524,350,o),
(594,298,o),
(688,298,cs),
(822,298,o),
(926,402,o),
(926,536,cs),
(926,654,o),
(842,734,o),
(732,734,cs),
(616,734,o),
(506,650,o),
(446,518,c),
(434,518,l),
(472,760,ls),
(486,842,o),
(532,892,o),
(600,902,c),
(704,814,l),
(744,814,l),
(878,902,l),
(940,892,o),
(966,842,o),
(952,760,cs),
(828,0,l),
(1160,0,l),
(1284,750,ls),
(1324,996,o),
(1218,1166,o),
(976,1192,c),
(760,1060,l),
(750,1060,l),
(578,1192,l),
(324,1168,o),
(184,996,o),
(144,750,cs),
(22,0,l)
);
},
{
closed = 1;
nodes = (
(658,436,o),
(638,460,o),
(638,496,cs),
(638,548,o),
(670,588,o),
(712,588,cs),
(740,588,o),
(760,564,o),
(760,530,cs),
(760,476,o),
(728,436,o),
(688,436,cs)
);
}
);
width = 1365;
}
);
metricRight = "=|";
unicode = 3589;
}
{
glyphname = "khoRakhang-thai";
kernRight = "moMa-thai";
layers = (
{
anchors = (
{
name = bottom;
pos = (920,0);
},
{
name = top;
pos = (1112,1174);
}
);
layerId = "200BE2C5-40F6-4CF4-AF4F-A33C0CC0964F";
shapes = (
{
closed = 1;
nodes = (
(920,0,l),
(1112,1174,l),
(1066,1174,l),
(894,126,l),
(914,126,l),
(902,240,o),
(704,310,o),
(336,334,c),
(344,312,l),
(360,410,ls),
(378,526,o),
(402,580,o),
(482,678,cs),
(576,796,o),
(606,854,o),
(624,974,cs),
(656,1174,l),
(610,1174,l),
(606,1150,ls),
(584,1034,o),
(502,924,o),
(422,906,c),
(424,894,l),
(472,928,o),
(504,988,o),
(504,1050,cs),
(504,1130,o),
(452,1188,o),
(380,1188,cs),
(282,1188,o),
(210,1106,o),
(210,988,cs),
(210,906,o),
(264,848,o),
(336,848,cs),
(426,848,o),
(512,898,o),
(574,988,c),
(580,988,l),
(558,864,o),
(536,808,o),
(450,702,cs),
(362,592,o),
(332,534,o),
(314,410,cs),
(298,308,l),
(326,292,l),
(718,264,o),
(904,188,o),
(882,62,cs),
(872,0,l)
);
},
{
closed = 1;
nodes = (
(288,892,o),
(254,934,o),
(254,990,cs),
(254,1080,o),
(306,1144,o),
(378,1144,cs),
(426,1144,o),
(460,1104,o),
(460,1048,cs),
(460,958,o),
(408,892,o),
(336,892,cs)
);
},
{
closed = 1;
nodes = (
(298,-14,o),
(372,74,o),
(372,200,cs),
(372,292,o),
(316,356,o),
(234,356,cs),
(128,356,o),
(50,268,o),
(50,142,cs),
(50,50,o),
(108,-14,o),
(192,-14,cs)
);
},
{
closed = 1;
nodes = (
(136,30,o),
(94,76,o),
(94,142,cs),
(94,240,o),
(152,312,o),
(232,312,cs),
(288,312,o),
(328,266,o),
(328,200,cs),
(328,102,o),
(272,30,o),
(194,30,cs)
);
}
);
width = 1214;
},
{
anchors = (
{
name = bottom;
pos = (1014,0);
},
{
name = top;
pos = (1208,1174);
}
);
layerId = "11F4534A-B963-4AB5-820F-DAF9A20CD933";
shapes = (
{
closed = 1;
nodes = (
(1014,0,l),
(1208,1174,l),
(1036,1174,l),
(878,216,l),
(904,236,l),
(882,344,o),
(702,422,o),
(438,440,c),
(468,386,l),
(474,424,ls),
(490,538,o),
(516,592,o),
(598,686,cs),
(702,804,o),
(740,882,o),
(760,1004,cs),
(788,1174,l),
(638,1174,l),
(630,1118,ls),
(614,1018,o),
(554,970,o),
(446,970,c),
(466,882,l),
(512,920,o),
(540,980,o),
(540,1042,cs),
(540,1130,o),
(476,1188,o),
(376,1188,cs),
(256,1188,o),
(168,1098,o),
(168,974,cs),
(168,882,o),
(234,822,o),
(336,822,cs),
(410,822,o),
(496,854,o),
(574,908,c),
(584,908,l),
(564,860,o),
(534,818,o),
(468,750,cs),
(364,642,o),
(330,570,o),
(306,424,cs),
(296,370,l),
(426,312,l),
(714,288,o),
(872,190,o),
(850,46,cs),
(842,0,l)
);
},
{
closed = 1;
nodes = (
(308,912,o),
(284,942,o),
(284,984,cs),
(284,1046,o),
(324,1094,o),
(374,1094,cs),
(410,1094,o),
(434,1066,o),
(434,1024,cs),
(434,962,o),
(394,912,o),
(344,912,cs)
);
},
{
closed = 1;
nodes = (
(366,-14,o),
(472,92,o),
(472,242,cs),
(472,350,o),
(390,428,o),
(274,428,cs),
(126,428,o),
(20,322,o),
(20,172,cs),
(20,62,o),
(100,-14,o),
(218,-14,cs)
);
},
{
closed = 1;
nodes = (
(182,96,o),
(152,132,o),
(152,184,cs),
(152,262,o),
(204,320,o),
(268,320,cs),
(312,320,o),
(340,284,o),
(340,232,cs),
(340,158,o),
(290,96,o),
(228,96,cs)
);
}
);
width = 1276;
},
{
anchors = (
{
name = bottom;
pos = (1126,0);
},
{
name = top;
pos = (1320,1174);
}
);
layerId = "D0EC06BF-13F9-4C88-A6F5-B8203AF6C77E";
shapes = (
{
closed = 1;
nodes = (
(1128,0,l),
(1320,1174,l),
(920,1174,l),
(774,296,l),
(838,334,l),
(824,404,o),
(710,454,o),
(540,466,c),
(574,360,l),
(592,468,ls),
(610,586,o),
(642,666,o),
(708,776,cs),
(778,896,o),
(808,978,o),
(826,1094,cs),
(840,1174,l),
(646,1174,l),
(638,1118,ls),
(624,1030,o),
(590,986,o),
(516,956,c),
(542,884,l),
(576,922,o),
(592,964,o),
(592,1010,cs),
(592,1114,o),
(502,1192,o),
(380,1192,cs),
(230,1192,o),
(116,1078,o),
(116,930,cs),
(116,812,o),
(190,738,o),
(306,738,cs),
(358,738,o),
(408,750,o),
(450,774,c),
(464,774,l),
(422,744,o),
(390,722,o),
(332,680,cs),
(258,624,o),
(226,576,o),
(210,488,cs),
(202,436,l),
(440,226,l),
(644,208,o),
(758,134,o),
(744,24,cs),
(740,0,l)
);
},
{
closed = 1;
nodes = (
(308,894,o),
(290,914,o),
(290,946,cs),
(290,994,o),
(318,1036,o),
(356,1036,cs),
(382,1036,o),
(402,1012,o),
(402,980,cs),
(402,934,o),
(370,894,o),
(334,894,cs)
);
},
{
closed = 1;
nodes = (
(414,-18,o),
(552,112,o),
(552,274,cs),
(552,408,o),
(454,498,o),
(304,498,cs),
(130,498,o),
(-10,372,o),
(-10,214,cs),
(-10,78,o),
(94,-18,o),
(242,-18,cs)
);
},
{
closed = 1;
nodes = (
(232,162,o),
(214,188,o),
(214,226,cs),
(214,282,o),
(248,328,o),
(290,328,cs),
(320,328,o),
(342,302,o),
(342,264,cs),
(342,208,o),
(306,162,o),
(264,162,cs)
);
}
);
width = 1322;
}
);
metricRight = "moMa-thai";
unicode = 3590;
}
{
glyphname = "ngoNgu-thai";
kernLeft = "ngoNgu-thai";
layers = (
{
anchors = (
{
name = bottom;
pos = (698,0);
},
{
name = top;
pos = (894,1174);
}
);
layerId = "200BE2C5-40F6-4CF4-AF4F-A33C0CC0964F";
shapes = (
{
closed = 1;
nodes = (
(638,-14,o),
(710,68,o),
(734,216,cs),
(866,1010,ls),
(884,1114,o),
(828,1188,o),
(738,1188,cs),
(634,1188,o),
(562,1102,o),
(562,980,cs),
(562,894,o),
(612,834,o),
(686,834,cs),
(744,834,o),
(790,866,o),
(818,924,c),
(806,924,l),
(688,216,ls),
(668,96,o),
(608,30,o),
(514,30,cs),
(440,30,o),
(390,72,o),
(360,182,cs),
(184,830,l),
(132,830,l),
(316,164,ls),
(352,36,o),
(414,-14,o),
(514,-14,cs)
);
},
{
closed = 1;
nodes = (
(642,878,o),
(606,920,o),
(606,982,cs),
(606,1076,o),
(660,1144,o),
(736,1144,cs),
(786,1144,o),
(822,1102,o),
(822,1042,cs),
(822,946,o),
(766,878,o),
(690,878,cs)
);
}
);
width = 994;
},
{
anchors = (
{
name = bottom;
pos = (808,0);
},
{
name = top;
pos = (1002,1174);
}
);
layerId = "11F4534A-B963-4AB5-820F-DAF9A20CD933";
shapes = (
{
closed = 1;
nodes = (
(718,-14,o),
(818,70,o),
(848,244,cs),
(968,968,ls),
(990,1094,o),
(908,1188,o),
(778,1188,cs),
(644,1188,o),
(542,1082,o),
(542,944,cs),
(542,834,o),
(612,760,o),
(718,760,cs),
(794,760,o),
(864,794,o),
(904,850,c),
(778,850,l),
(680,262,ls),
(666,176,o),
(622,136,o),
(548,136,cs),
(476,136,o),
(436,174,o),
(414,258,cs),
(274,800,l),
(98,800,l),
(260,202,ls),
(300,52,o),
(388,-14,o),
(544,-14,cs)
);
},
{
closed = 1;
nodes = (
(694,868,o),
(664,902,o),
(664,950,cs),
(664,1020,o),
(712,1078,o),
(768,1078,cs),
(810,1078,o),
(838,1044,o),
(838,996,cs),
(838,926,o),
(792,868,o),
(736,868,cs)
);
}
);
width = 1068;
},
{
anchors = (
{
name = bottom;
pos = (956,0);
},
{
name = top;
pos = (1150,1174);
}
);
layerId = "D0EC06BF-13F9-4C88-A6F5-B8203AF6C77E";
shapes = (
{
closed = 1;
nodes = (
(830,-18,o),
(968,82,o),
(1006,306,cs),
(1108,926,ls),
(1132,1074,o),
(1016,1192,o),
(846,1192,cs),
(680,1192,o),
(568,1084,o),
(568,922,cs),
(568,790,o),
(658,698,o),
(782,698,cs),
(854,698,o),
(920,732,o),
(952,782,c),
(694,782,l),
(618,330,ls),
(612,296,o),
(596,280,o),
(566,280,cs),
(534,280,o),
(516,296,o),
(514,328,cs),
(462,850,l),
(70,850,l),
(166,252,ls),
(196,68,o),
(322,-18,o),
(566,-18,cs)
);
},
{
closed = 1;
nodes = (
(776,862,o),
(758,886,o),
(758,924,cs),
(758,976,o),
(792,1020,o),
(832,1020,cs),
(860,1020,o),
(880,996,o),
(880,962,cs),
(880,908,o),
(846,862,o),
(806,862,cs)
);
}
);
width = 1146;
}
);
unicode = 3591;
}
{
glyphname = "choChan-thai";
layers = (
{
anchors = (
{
name = bottom;
pos = (790,0);
},
{
name = top;
pos = (1012,1174);
}
);
layerId = "200BE2C5-40F6-4CF4-AF4F-A33C0CC0964F";
shapes = (
{
closed = 1;
nodes = (
(436,0,ls),
(722,0,o),
(958,334,o),
(958,742,cs),
(958,1030,o),
(820,1192,o),
(574,1192,cs),
(372,1192,o),
(206,1076,o),
(126,880,c),
(174,880,l),
(248,1048,o),
(394,1146,o),
(570,1146,cs),
(788,1146,o),
(910,1002,o),
(910,742,cs),
(910,366,o),
(692,46,o),
(436,46,cs),
(346,46,l),
(370,16,l),
(464,588,ls),
(480,686,o),
(428,756,o),
(340,756,cs),
(242,756,o),
(174,674,o),
(174,558,cs),
(174,476,o),
(224,418,o),
(294,418,cs),
(352,418,o),
(398,450,o),
(416,504,c),
(402,504,l),
(320,0,l)
);
},
{
closed = 1;
nodes = (
(250,462,o),
(218,502,o),
(218,560,cs),
(218,648,o),
(268,712,o),
(338,712,cs),
(384,712,o),
(418,672,o),
(418,616,cs),
(418,526,o),
(368,462,o),
(296,462,cs)
);
}
);
width = 1070;
},
{
anchors = (
{
name = bottom;
pos = (866,0);
},
{
name = top;
pos = (1060,1174);
}
);
layerId = "11F4534A-B963-4AB5-820F-DAF9A20CD933";
shapes = (
{
closed = 1;
nodes = (
(530,0,ls),
(814,0,o),
(1046,322,o),
(1046,718,cs),
(1046,1004,o),
(872,1198,o),
(614,1198,cs),
(370,1198,o),
(178,1050,o),
(108,814,c),
(280,814,l),
(332,952,o),
(456,1042,o),
(596,1042,cs),
(764,1042,o),
(872,912,o),
(872,706,cs),
(872,426,o),
(706,146,o),
(540,146,cs),
(464,146,l),
(484,74,l),
(558,510,ls),
(578,630,o),
(500,722,o),
(378,722,cs),
(250,722,o),
(152,620,o),
(152,488,cs),
(152,384,o),
(216,314,o),
(318,314,cs),
(392,314,o),
(458,346,o),
(496,398,c),
(370,398,l),
(304,0,l)
);
},
{
closed = 1;
nodes = (
(296,416,o),
(268,448,o),
(268,494,cs),
(268,562,o),
(312,616,o),
(366,616,cs),
(406,616,o),
(432,586,o),
(432,538,cs),
(432,472,o),
(388,416,o),
(336,416,cs)
);
}
);
width = 1140;
},
{
anchors = (
{
name = bottom;
pos = (988,0);
},
{
name = top;
pos = (1182,1174);
}
);
layerId = "D0EC06BF-13F9-4C88-A6F5-B8203AF6C77E";
shapes = (
{
closed = 1;
nodes = (
(534,0,ls),
(888,0,o),
(1150,300,o),
(1150,702,cs),
(1150,1014,o),
(966,1198,o),
(652,1198,cs),
(356,1198,o),
(132,1038,o),
(82,792,c),
(472,792,l),
(496,854,o),
(546,892,o),
(610,892,cs),
(696,892,o),
(748,824,o),
(748,708,cs),
(748,490,o),
(654,276,o),
(558,276,cs),
(410,276,l),
(524,74,l),
(594,492,ls),
(616,626,o),
(506,734,o),
(348,734,cs),
(194,734,o),
(92,646,o),
(92,512,cs),
(92,398,o),
(176,316,o),
(290,316,cs),
(356,316,o),
(422,346,o),
(450,390,c),
(196,390,l),
(132,0,l)
);
},
{
closed = 1;
nodes = (
(288,442,o),
(270,462,o),
(270,494,cs),
(270,542,o),
(300,584,o),
(338,584,cs),
(364,584,o),
(382,562,o),
(382,530,cs),
(382,484,o),
(350,442,o),
(314,442,cs)
);
}
);
width = 1200;
}
);
unicode = 3592;
}
{
glyphname = "choChing-thai";
kernRight = "noNu-thai";
layers = (
{
anchors = (
{
name = bottom;
pos = (854,0);
},
{
name = top;
pos = (1034,1174);
}
);
layerId = "200BE2C5-40F6-4CF4-AF4F-A33C0CC0964F";
shapes = (
{
closed = 1;
nodes = (
(288,0,l),
(298,62,ls),
(320,190,o),
(544,284,o),
(814,316,c),
(814,326,l),
(910,338,l),
(982,766,ls),
(1024,1024,o),
(882,1192,o),
(622,1192,cs),
(428,1192,o),
(268,1100,o),
(176,930,c),
(218,914,l),
(300,1062,o),
(444,1146,o),
(622,1146,cs),
(854,1146,o),
(974,998,o),
(936,766,cs),
(864,338,l),
(882,362,l),
(596,340,o),
(342,250,o),
(290,132,c),
(310,132,l),
(386,588,ls),
(402,686,o),
(350,756,o),
(262,756,cs),
(164,756,o),
(96,672,o),
(96,558,cs),
(96,476,o),
(142,418,o),
(212,418,cs),
(270,418,o),
(320,450,o),
(338,504,c),
(324,504,l),
(242,0,l)
);
},
{
closed = 1;
nodes = (
(172,462,o),
(140,502,o),
(140,560,cs),
(140,648,o),
(190,712,o),
(260,712,cs),
(306,712,o),
(340,672,o),
(340,616,cs),
(340,526,o),
(288,462,o),
(218,462,cs)
);
},
{
closed = 1;
nodes = (
(932,-14,o),
(1008,76,o),
(1008,206,cs),
(1008,290,o),
(952,354,o),
(874,354,cs),
(768,354,o),
(692,264,o),
(692,140,cs),
(692,50,o),
(746,-14,o),
(824,-14,cs)
);
},
{
closed = 1;
nodes = (
(774,30,o),
(736,76,o),
(736,142,cs),
(736,240,o),
(792,312,o),
(872,312,cs),
(924,312,o),
(964,268,o),
(964,206,cs),
(964,104,o),
(906,30,o),
(826,30,cs)
);
}
);
width = 1170;
},
{
anchors = (
{
name = bottom;
pos = (968,0);
},
{
name = top;
pos = (1148,1174);
}
);
layerId = "11F4534A-B963-4AB5-820F-DAF9A20CD933";
shapes = (
{
closed = 1;
nodes = (
(398,0,l),
(408,62,ls),
(432,206,o),
(614,306,o),
(882,324,c),
(888,352,l),
(1032,384,l),
(1092,746,ls),
(1138,1018,o),
(966,1198,o),
(660,1198,cs),
(422,1198,o),
(226,1090,o),
(128,906,c),
(280,846,l),
(350,970,o),
(484,1042,o),
(644,1042,cs),
(846,1042,o),
(952,940,o),
(924,766,cs),
(862,386,l),
(914,452,l),
(656,436,o),
(472,360,o),
(414,246,c),
(434,230,l),
(482,510,ls),
(502,630,o),
(424,722,o),
(302,722,cs),
(174,722,o),
(76,620,o),
(76,488,cs),
(76,384,o),
(140,314,o),
(242,314,cs),
(316,314,o),
(382,346,o),
(420,398,c),
(294,398,l),
(228,0,l)
);
},
{
closed = 1;
nodes = (
(220,416,o),
(192,448,o),
(192,494,cs),
(192,562,o),
(236,616,o),
(290,616,cs),
(330,616,o),
(356,586,o),
(356,538,cs),
(356,472,o),
(312,416,o),
(260,416,cs)
);
},
{
closed = 1;
nodes = (
(1040,-14,o),
(1144,92,o),
(1144,242,cs),
(1144,352,o),
(1064,430,o),
(952,430,cs),
(808,430,o),
(692,316,o),
(692,172,cs),
(692,62,o),
(776,-14,o),
(894,-14,cs)
);
},
{
closed = 1;
nodes = (
(854,106,o),
(826,138,o),
(826,190,cs),
(826,262,o),
(876,326,o),
(934,326,cs),
(976,326,o),
(1006,292,o),
(1006,242,cs),
(1006,168,o),
(956,106,o),
(898,106,cs)
);
}
);
width = 1266;
},
{
anchors = (
{
name = bottom;
pos = (1070,0);
},
{
name = top;
pos = (1250,1174);
}
);
layerId = "D0EC06BF-13F9-4C88-A6F5-B8203AF6C77E";
shapes = (
{
closed = 1;
nodes = (
(486,0,l),
(488,24,ls),
(502,134,o),
(606,208,o),
(766,226,c),
(780,322,l),
(1138,414,l),
(1198,776,ls),
(1240,1038,o),
(1054,1198,o),
(696,1198,cs),
(360,1198,o),
(132,1050,o),
(72,792,c),
(462,792,l),
(494,862,o),
(556,898,o),
(650,898,cs),
(764,898,o),
(814,848,o),
(798,748,cs),
(734,360,l),
(802,466,l),
(640,454,o),
(522,406,o),
(484,334,c),
(534,296,l),
(566,486,ls),
(590,626,o),
(478,740,o),
(316,740,cs),
(154,740,o),
(40,636,o),
(40,490,cs),
(40,370,o),
(122,286,o),
(242,286,cs),
(316,286,o),
(390,318,o),
(418,364,c),
(172,364,l),
(112,0,l)
);
},
{
closed = 1;
nodes = (
(244,434,o),
(226,456,o),
(226,490,cs),
(226,540,o),
(258,584,o),
(296,584,cs),
(324,584,o),
(344,560,o),
(344,526,cs),
(344,476,o),
(312,434,o),
(272,434,cs)
);
},
{
closed = 1;
nodes = (
(1088,-18,o),
(1214,106,o),
(1214,274,cs),
(1214,408,o),
(1118,498,o),
(972,498,cs),
(792,498,o),
(656,382,o),
(656,222,cs),
(656,88,o),
(772,-18,o),
(920,-18,cs)
);
},
{
closed = 1;
nodes = (
(882,162,o),
(864,188,o),
(864,226,cs),
(864,282,o),
(900,328,o),
(940,328,cs),
(970,328,o),
(990,302,o),
(990,264,cs),
(990,210,o),
(954,162,o),
(914,162,cs)
);
}
);
width = 1300;
}
);
unicode = 3593;
}
{
glyphname = "choChang-thai";
kernLeft = "khoKhai-thai";
kernRight = "choChang-thai";
layers = (
{
anchors = (
{
name = bottom;
pos = (728,0);
},
{
name = top;
pos = (936,1174);
}
);
layerId = "200BE2C5-40F6-4CF4-AF4F-A33C0CC0964F";
shapes = (
{
closed = 1;
nodes = (
(658,-14,o),
(752,62,o),
(786,266,cs),
(836,564,ls),
(854,670,o),
(824,744,o),
(748,776,c),
(748,782,l),
(854,814,o),
(920,900,o),
(944,1038,cs),
(972,1202,l),
(926,1202,l),
(898,1038,ls),
(872,888,o),
(782,804,o),
(644,804,cs),
(588,804,l),
(580,760,l),
(638,760,ls),
(758,760,o),
(812,690,o),
(790,564,cs),
(740,266,ls),
(710,92,o),
(630,30,o),
(436,30,cs),
(242,30,o),
(182,92,o),
(210,266,cs),
(238,426,ls),
(256,544,o),
(288,616,o),
(362,712,cs),
(448,820,o),
(498,942,o),
(498,1042,cs),
(498,1134,o),
(448,1188,o),
(366,1188,cs),
(266,1188,o),
(192,1100,o),
(192,978,cs),
(192,890,o),
(242,834,o),
(318,834,cs),
(374,834,o),
(416,864,o),
(444,924,c),
(432,924,l),
(422,870,o),
(396,822,o),
(328,734,cs),
(244,628,o),
(212,558,o),
(190,426,cs),
(164,266,ls),
(132,66,o),
(210,-14,o),
(436,-14,cs)
);
},
{
closed = 1;
nodes = (
(270,878,o),
(236,916,o),
(236,978,cs),
(236,1068,o),
(296,1144,o),
(366,1144,cs),
(418,1144,o),
(450,1104,o),
(450,1042,cs),
(450,954,o),
(392,878,o),
(320,878,cs)
);
}
);
width = 1032;
},
{
anchors = (
{
name = bottom;
pos = (844,0);
},
{
name = top;
pos = (1054,1174);
}
);
layerId = "11F4534A-B963-4AB5-820F-DAF9A20CD933";
shapes = (
{
closed = 1;
nodes = (
(764,-14,o),
(870,68,o),
(910,310,cs),
(950,550,ls),
(976,706,o),
(946,788,o),
(850,818,c),
(852,830,l),
(972,862,o),
(1046,956,o),
(1072,1102,cs),
(1090,1202,l),
(922,1202,l),
(904,1102,ls),
(878,952,o),
(812,886,o),
(688,886,cs),
(658,886,l),
(638,746,l),
(658,746,ls),
(764,746,o),
(800,686,o),
(778,550,cs),
(742,328,ls),
(718,180,o),
(658,136,o),
(498,136,cs),
(336,136,o),
(296,182,o),
(320,328,cs),
(336,424,ls),
(354,540,o),
(384,612,o),
(448,694,cs),
(542,812,o),
(590,918,o),
(590,1010,cs),
(590,1114,o),
(512,1188,o),
(402,1188,cs),
(264,1188,o),
(162,1084,o),
(162,942,cs),
(162,836,o),
(232,766,o),
(338,766,cs),
(416,766,o),
(486,796,o),
(526,850,c),
(398,850,l),
(376,816,o),
(358,788,o),
(322,746,cs),
(224,632,o),
(190,558,o),
(168,424,cs),
(148,310,ls),
(110,76,o),
(202,-14,o),
(488,-14,cs)
);
},
{
closed = 1;
nodes = (
(314,868,o),
(286,902,o),
(286,950,cs),
(286,1024,o),
(328,1078,o),
(388,1078,cs),
(428,1078,o),
(456,1044,o),
(456,998,cs),
(456,924,o),
(414,868,o),
(354,868,cs)
);
}
);
width = 1118;
},
{
anchors = (
{
name = bottom;
pos = (1030,0);
},
{
name = top;
pos = (1238,1174);
}
);
layerId = "D0EC06BF-13F9-4C88-A6F5-B8203AF6C77E";
shapes = (
{
closed = 1;
nodes = (
(916,-18,o),
(1056,78,o),
(1104,368,cs),
(1132,532,ls),
(1158,690,o),
(1116,780,o),
(1010,808,c),
(1012,818,l),
(1146,850,o),
(1220,936,o),
(1246,1090,cs),
(1266,1202,l),
(878,1202,l),
(856,1076,ls),
(838,976,o),
(798,930,o),
(728,930,cs),
(706,930,l),
(658,654,l),
(674,654,ls),
(732,654,o),
(750,620,o),
(738,546,cs),
(714,398,ls),
(700,318,o),
(662,288,o),
(570,288,cs),
(482,288,o),
(452,316,o),
(462,382,cs),
(474,462,ls),
(490,552,o),
(514,616,o),
(570,708,cs),
(632,810,o),
(664,904,o),
(664,976,cs),
(664,1100,o),
(556,1192,o),
(408,1192,cs),
(238,1192,o),
(120,1084,o),
(120,926,cs),
(120,792,o),
(210,698,o),
(334,698,cs),
(406,698,o),
(482,744,o),
(512,804,c),
(322,804,l),
(300,770,o),
(276,742,o),
(216,688,cs),
(132,608,o),
(100,548,o),
(82,446,cs),
(66,354,ls),
(20,92,o),
(160,-18,o),
(544,-18,cs)
);
},
{
closed = 1;
nodes = (
(328,862,o),
(310,886,o),
(310,924,cs),
(310,976,o),
(344,1020,o),
(384,1020,cs),
(412,1020,o),
(432,996,o),
(432,962,cs),
(432,908,o),
(398,862,o),
(358,862,cs)
);
}
);
width = 1234;
}
);
metricLeft = "khoKhai-thai";
unicode = 3594;
}
{
glyphname = "soSo-thai";
kernLeft = "khoKhuat-thai";
kernRight = "choChang-thai";
layers = (
{
anchors = (
{
name = bottom;
pos = (752,0);
},
{
name = top;
pos = (960,1174);
}
);
layerId = "200BE2C5-40F6-4CF4-AF4F-A33C0CC0964F";
shapes = (
{
closed = 1;
nodes = (
(680,-14,o),
(776,62,o),
(810,266,cs),
(860,564,ls),
(878,670,o),
(846,744,o),
(770,776,c),
(770,782,l),
(876,814,o),
(944,900,o),
(968,1038,cs),
(994,1202,l),
(948,1202,l),
(920,1038,ls),
(894,888,o),
(806,804,o),
(668,804,cs),
(610,804,l),
(604,760,l),
(660,760,ls),
(780,760,o),
(836,690,o),
(814,564,cs),
(764,266,ls),
(734,92,o),
(654,30,o),
(456,30,cs),
(258,30,o),
(198,92,o),
(226,266,cs),
(248,410,ls),
(266,516,o),
(292,566,o),
(378,666,cs),
(490,794,o),
(526,858,o),
(544,974,cs),
(576,1174,l),
(530,1174,l),
(526,1150,ls),
(504,1036,o),
(422,924,o),
(342,906,c),
(344,894,l),
(392,928,o),
(422,986,o),
(422,1050,cs),
(422,1130,o),
(372,1188,o),
(300,1188,cs),
(202,1188,o),
(130,1106,o),
(130,988,cs),
(130,906,o),
(182,848,o),
(256,848,cs),
(346,848,o),
(432,898,o),
(494,988,c),
(498,988,l),
(482,874,o),
(450,814,o),
(344,692,cs),
(248,580,o),
(220,526,o),
(202,410,cs),
(178,266,ls),
(146,66,o),
(226,-14,o),
(456,-14,cs)
);
},
{
closed = 1;
nodes = (
(208,892,o),
(174,934,o),
(174,990,cs),
(174,1080,o),
(226,1144,o),
(298,1144,cs),
(344,1144,o),
(378,1104,o),
(378,1048,cs),
(378,958,o),
(326,892,o),
(256,892,cs)
);
}
);
width = 1055;
},
{
anchors = (
{
name = bottom;
pos = (916,0);
},
{
name = top;
pos = (1124,1174);
}
);
layerId = "11F4534A-B963-4AB5-820F-DAF9A20CD933";
shapes = (
{
closed = 1;
nodes = (
(838,-14,o),
(944,68,o),
(984,310,cs),
(1022,550,ls),
(1048,706,o),
(1018,788,o),
(922,818,c),
(926,830,l),
(1046,862,o),
(1118,956,o),
(1144,1102,cs),
(1162,1202,l),
(994,1202,l),
(978,1102,ls),
(954,956,o),
(888,886,o),
(776,886,cs),
(746,886,l),
(724,746,l),
(746,746,ls),
(840,746,o),
(872,684,o),
(850,550,cs),
(814,328,ls),
(790,182,o),
(734,136,o),
(568,136,cs),
(402,136,o),
(362,180,o),
(386,328,cs),
(402,424,ls),
(420,538,o),
(448,596,o),
(532,686,cs),
(640,802,o),
(682,880,o),
(702,1004,cs),
(730,1174,l),
(580,1174,l),
(572,1118,ls),
(556,1018,o),
(494,970,o),
(386,970,c),
(408,882,l),
(454,920,o),
(482,980,o),
(482,1042,cs),
(482,1130,o),
(418,1188,o),
(318,1188,cs),
(198,1188,o),
(110,1098,o),
(110,974,cs),
(110,882,o),
(176,822,o),
(278,822,cs),
(352,822,o),
(436,854,o),
(514,908,c),
(526,908,l),
(504,858,o),
(472,816,o),
(402,750,cs),
(296,650,o),
(256,574,o),
(232,424,cs),
(214,310,ls),
(176,76,o),
(270,-14,o),
(558,-14,cs)
);
},
{
closed = 1;
nodes = (
(250,912,o),
(226,942,o),
(226,984,cs),
(226,1046,o),
(266,1094,o),
(316,1094,cs),
(352,1094,o),
(376,1066,o),
(376,1024,cs),
(376,962,o),
(336,912,o),
(286,912,cs)
);
}
);
width = 1190;
},
{
anchors = (
{
name = bottom;
pos = (1126,0);
},
{
name = top;
pos = (1336,1174);
}
);
layerId = "D0EC06BF-13F9-4C88-A6F5-B8203AF6C77E";
shapes = (
{
closed = 1;
nodes = (
(1012,-18,o),
(1154,78,o),
(1202,368,cs),
(1230,532,ls),
(1256,688,o),
(1216,780,o),
(1108,808,c),
(1110,818,l),
(1244,850,o),
(1318,936,o),
(1344,1090,cs),
(1362,1202,l),
(974,1202,l),
(952,1076,ls),
(936,976,o),
(894,930,o),
(824,930,cs),
(802,930,l),
(756,654,l),
(770,654,ls),
(828,654,o),
(848,620,o),
(836,546,cs),
(812,398,ls),
(798,318,o),
(760,288,o),
(664,288,cs),
(574,288,o),
(540,316,o),
(552,382,cs),
(566,468,ls),
(588,590,o),
(616,670,o),
(682,776,cs),
(752,896,o),
(782,978,o),
(800,1094,cs),
(814,1174,l),
(610,1174,l),
(600,1118,ls),
(586,1030,o),
(554,986,o),
(480,956,c),
(504,884,l),
(538,922,o),
(556,964,o),
(556,1010,cs),
(556,1114,o),
(466,1192,o),
(344,1192,cs),
(194,1192,o),
(80,1080,o),
(80,930,cs),
(80,808,o),
(156,730,o),
(270,730,cs),
(322,730,o),
(372,746,o),
(414,774,c),
(428,774,l),
(384,740,o),
(344,706,o),
(304,668,cs),
(226,590,o),
(182,506,o),
(164,404,cs),
(156,354,ls),
(110,92,o),
(250,-18,o),
(634,-18,cs)
);
},
{
closed = 1;
nodes = (
(270,894,o),
(254,914,o),
(254,946,cs),
(254,994,o),
(282,1036,o),
(320,1036,cs),
(346,1036,o),
(366,1012,o),
(366,980,cs),
(366,934,o),
(332,894,o),
(296,894,cs)
);
}
);
width = 1330;
}
);
metricLeft = "khoKhuat-thai";
metricRight = "choChang-thai";
unicode = 3595;
}
{
glyphname = "choChoe-thai";
kernLeft = "koKai-thai";
kernRight = "moMa-thai";
layers = (
{
anchors = (
{
name = bottom;
pos = (1458,0);
},
{
name = top;
pos = (1650,1174);
}
);
layerId = "200BE2C5-40F6-4CF4-AF4F-A33C0CC0964F";
shapes = (
{
closed = 1;
nodes = (
(374,-14,o),
(446,72,o),
(446,194,cs),
(446,278,o),
(394,340,o),
(322,340,cs),
(264,340,o),
(212,306,o),
(192,252,c),
(204,252,l),
(240,472,ls),
(266,630,o),
(344,718,o),
(446,702,cs),
(496,694,l),
(504,738,l),
(200,784,l),
(228,740,l),
(236,786,ls),
(270,1004,o),
(440,1146,o),
(664,1146,cs),
(890,1146,o),
(1010,1008,o),
(974,792,cs),
(894,306,l),
(922,290,l),
(1272,262,o),
(1442,186,o),
(1422,62,cs),
(1410,0,l),
(1458,0,l),
(1650,1174,l),
(1604,1174,l),
(1432,126,l),
(1454,126,l),
(1444,236,o),
(1260,308,o),
(932,332,c),
(942,312,l),
(1022,792,ls),
(1062,1034,o),
(920,1192,o),
(664,1192,cs),
(416,1192,o),
(230,1032,o),
(190,786,cs),
(184,740,l),
(338,718,l),
(338,710,l),
(268,684,o),
(214,598,o),
(194,472,cs),
(144,170,ls),
(126,64,o),
(180,-14,o),
(272,-14,cs)
);
},
{
closed = 1;
nodes = (
(222,30,o),
(188,70,o),
(188,132,cs),
(188,228,o),
(242,296,o),
(318,296,cs),
(366,296,o),
(402,254,o),
(402,194,cs),
(402,98,o),
(348,30,o),
(274,30,cs)
);
},
{
closed = 1;
nodes = (
(886,-14,o),
(958,74,o),
(958,198,cs),
(958,288,o),
(902,350,o),
(824,350,cs),
(718,350,o),
(642,262,o),
(642,136,cs),
(642,46,o),
(700,-14,o),
(782,-14,cs)
);
},
{
closed = 1;
nodes = (
(726,30,o),
(686,74,o),
(686,138,cs),
(686,236,o),
(744,306,o),
(824,306,cs),
(878,306,o),
(914,260,o),
(914,196,cs),
(914,100,o),
(858,30,o),
(782,30,cs)
);
}
);
width = 1752;
},
{
anchors = (
{
name = bottom;
pos = (1534,0);
},
{
name = top;
pos = (1728,1174);
}
);
layerId = "11F4534A-B963-4AB5-820F-DAF9A20CD933";
shapes = (
{
closed = 1;
nodes = (
(426,-14,o),
(526,86,o),
(526,220,cs),
(526,324,o),
(456,392,o),
(354,392,cs),
(284,392,o),
(216,362,o),
(178,310,c),
(306,310,l),
(322,400,ls),
(346,552,o),
(418,628,o),
(524,616,cs),
(576,610,l),
(598,744,l),
(290,782,l),
(296,680,l),
(304,726,ls),
(336,920,o),
(478,1042,o),
(674,1042,cs),
(856,1042,o),
(960,934,o),
(932,768,cs),
(868,384,l),
(1000,312,l),
(1252,288,o),
(1392,188,o),
(1370,46,cs),
(1362,0,l),
(1534,0,l),
(1728,1174,l),
(1556,1174,l),
(1400,222,l),
(1424,236,l),
(1408,344,o),
(1248,422,o),
(1010,440,c),
(1042,386,l),
(1104,766,ls),
(1146,1024,o),
(978,1198,o),
(686,1198,cs),
(390,1198,o),
(180,1016,o),
(132,718,cs),
(126,672,l),
(344,646,l),
(342,634,l),
(234,602,o),
(174,522,o),
(150,380,cs),
(120,196,ls),
(100,76,o),
(176,-14,o),
(296,-14,cs)
);
},
{
closed = 1;
nodes = (
(270,92,o),
(244,122,o),
(244,168,cs),
(244,234,o),
(290,290,o),
(344,290,cs),
(384,290,o),
(408,260,o),
(408,214,cs),
(408,148,o),
(364,92,o),
(310,92,cs)
);
},
{
closed = 1;
nodes = (
(996,-14,o),
(1096,88,o),
(1096,232,cs),
(1096,336,o),
(1020,408,o),
(908,408,cs),
(770,408,o),
(664,308,o),
(664,172,cs),
(664,60,o),
(738,-14,o),
(852,-14,cs)
);
},
{
closed = 1;
nodes = (
(824,92,o),
(798,124,o),
(798,174,cs),
(798,248,o),
(844,306,o),
(904,306,cs),
(944,306,o),
(970,272,o),
(970,222,cs),
(970,150,o),
(924,92,o),
(866,92,cs)
);
}
);
width = 1796;
},
{
anchors = (
{
name = bottom;
pos = (1696,0);
},
{
name = top;
pos = (1890,1174);
}
);
layerId = "D0EC06BF-13F9-4C88-A6F5-B8203AF6C77E";
shapes = (
{
closed = 1;
nodes = (
(464,-18,o),
(578,94,o),
(578,248,cs),
(578,362,o),
(496,438,o),
(374,438,cs),
(300,438,o),
(226,406,o),
(198,360,c),
(444,360,l),
(462,456,ls),
(472,508,o),
(502,534,o),
(550,534,cs),
(624,534,l),
(660,752,l),
(408,752,l),
(474,682,l),
(482,728,ls),
(498,834,o),
(572,892,o),
(690,892,cs),
(808,892,o),
(868,834,o),
(850,728,cs),
(798,404,l),
(1058,226,l),
(1228,206,o),
(1332,128,o),
(1318,24,cs),
(1314,0,l),
(1696,0,l),
(1890,1174,l),
(1494,1174,l),
(1348,296,l),
(1412,334,l),
(1400,400,o),
(1294,452,o),
(1150,466,c),
(1186,360,l),
(1250,756,ls),
(1294,1024,o),
(1094,1198,o),
(734,1198,cs),
(390,1198,o),
(144,1014,o),
(94,722,cs),
(78,636,l),
(282,636,l),
(280,624,l),
(164,592,o),
(96,518,o),
(78,400,cs),
(50,238,ls),
(26,88,o),
(130,-18,o),
(300,-18,cs)
);
},
{
closed = 1;
nodes = (
(292,140,o),
(274,162,o),
(274,196,cs),
(274,246,o),
(304,290,o),
(344,290,cs),
(370,290,o),
(390,266,o),
(390,232,cs),
(390,182,o),
(358,140,o),
(320,140,cs)
);
},
{
closed = 1;
nodes = (
(1020,-18,o),
(1142,100,o),
(1142,250,cs),
(1142,376,o),
(1052,462,o),
(920,462,cs),
(764,462,o),
(640,344,o),
(640,198,cs),
(640,70,o),
(732,-18,o),
(866,-18,cs)
);
},
{
closed = 1;
nodes = (
(860,148,o),
(844,172,o),
(844,206,cs),
(844,256,o),
(874,296,o),
(914,296,cs),
(940,296,o),
(960,274,o),
(960,242,cs),
(960,192,o),
(928,148,o),
(890,148,cs)
);
}
);
width = 1890;
}
);
metricLeft = "thoThung-thai";
metricRight = "moMa-thai";
unicode = 3596;
}
{
glyphname = "yoYing-thai";
kernLeft = "koKai-thai";
kernRight = "boBaimai-thai";
layers = (
{
anchors = (
{
name = bottom;
pos = (1456,-448);
},
{
name = top;
pos = (1738,1174);
}
);
layerId = "200BE2C5-40F6-4CF4-AF4F-A33C0CC0964F";
shapes = (
{
closed = 1;
nodes = (
(374,-14,o),
(446,72,o),
(446,194,cs),
(446,278,o),
(394,340,o),
(322,340,cs),
(264,340,o),
(212,306,o),
(192,252,c),
(204,252,l),
(240,472,ls),
(266,630,o),
(344,718,o),
(446,702,cs),
(496,694,l),
(504,738,l),
(200,784,l),
(228,740,l),
(236,786,ls),
(270,1004,o),
(440,1146,o),
(664,1146,cs),
(890,1146,o),
(1010,1008,o),
(974,792,cs),
(896,318,ls),
(858,92,o),
(948,0,o),
(1200,0,cs),
(1448,0,o),
(1558,88,o),
(1596,318,cs),
(1738,1174,l),
(1692,1174,l),
(1550,318,ls),
(1516,116,o),
(1424,46,o),
(1202,46,cs),
(978,46,o),
(908,118,o),
(942,318,cs),
(1022,792,ls),
(1062,1034,o),
(922,1192,o),
(666,1192,cs),
(416,1192,o),
(230,1034,o),
(190,786,cs),
(184,740,l),
(338,718,l),
(338,710,l),
(268,684,o),
(216,598,o),
(194,472,cs),
(144,170,ls),
(126,64,o),
(180,-14,o),
(272,-14,cs)
);
},
{
closed = 1;
nodes = (
(222,30,o),
(188,70,o),
(188,132,cs),
(188,228,o),
(242,296,o),
(318,296,cs),
(366,296,o),
(402,254,o),
(402,194,cs),
(402,98,o),
(348,30,o),
(274,30,cs)
);
},
{
closed = 1;
nodes = (
(1302,-462,o),
(1442,-340,o),
(1514,-96,c),
(1470,-88,l),
(1398,-312,o),
(1276,-418,o),
(1092,-418,cs),
(998,-418,o),
(926,-396,o),
(904,-362,c),
(864,-362,l),
(882,-378,o),
(908,-386,o),
(938,-386,cs),
(1026,-386,o),
(1100,-302,o),
(1100,-200,cs),
(1100,-120,o),
(1048,-66,o),
(978,-66,cs),
(888,-66,o),
(816,-152,o),
(816,-258,cs),
(816,-384,o),
(922,-462,o),
(1090,-462,cs)
);
},
{
closed = 1;
nodes = (
(894,-348,o),
(862,-312,o),
(862,-256,cs),
(862,-176,o),
(916,-110,o),
(978,-110,cs),
(1024,-110,o),
(1054,-146,o),
(1054,-202,cs),
(1054,-280,o),
(1000,-348,o),
(940,-348,cs)
);
}
);
width = 1832;
},
{
anchors = (
{
name = bottom;
pos = (1522,-482);
},
{
name = top;
pos = (1804,1174);
}
);
layerId = "11F4534A-B963-4AB5-820F-DAF9A20CD933";
shapes = (
{
closed = 1;
nodes = (
(426,-14,o),
(526,86,o),
(526,220,cs),
(526,324,o),
(456,392,o),
(354,392,cs),
(284,392,o),
(216,362,o),
(178,310,c),
(306,310,l),
(322,400,ls),
(346,550,o),
(420,628,o),
(524,616,cs),
(576,610,l),
(598,744,l),
(290,782,l),
(296,680,l),
(304,726,ls),
(336,924,o),
(474,1042,o),
(670,1042,cs),
(854,1042,o),
(948,938,o),
(920,768,cs),
(850,336,ls),
(810,90,o),
(906,0,o),
(1214,0,cs),
(1512,0,o),
(1624,84,o),
(1666,336,cs),
(1804,1174,l),
(1632,1174,l),
(1496,354,ls),
(1470,196,o),
(1410,150,o),
(1226,150,cs),
(1044,150,o),
(998,196,o),
(1024,354,cs),
(1092,766,ls),
(1136,1028,o),
(974,1198,o),
(680,1198,cs),
(384,1198,o),
(180,1020,o),
(132,718,cs),
(126,672,l),
(344,646,l),
(342,634,l),
(234,602,o),
(174,522,o),
(150,380,cs),
(120,196,ls),
(100,76,o),
(176,-14,o),
(296,-14,cs)
);
},
{
closed = 1;
nodes = (
(270,92,o),
(244,122,o),
(244,168,cs),
(244,234,o),
(290,290,o),
(344,290,cs),
(384,290,o),
(408,260,o),
(408,214,cs),
(408,148,o),
(364,92,o),
(310,92,cs)
);
},
{
closed = 1;
nodes = (
(1340,-504,o),
(1488,-394,o),
(1580,-140,c),
(1428,-110,l),
(1352,-302,o),
(1254,-392,o),
(1120,-392,cs),
(1078,-392,o),
(1036,-384,o),
(996,-366,c),
(796,-366,l),
(814,-412,o),
(866,-442,o),
(930,-442,cs),
(1048,-442,o),
(1144,-348,o),
(1144,-232,cs),
(1144,-142,o),
(1076,-78,o),
(974,-78,cs),
(858,-78,o),
(766,-174,o),
(766,-294,cs),
(766,-424,o),
(894,-504,o),
(1098,-504,cs)
);
},
{
closed = 1;
nodes = (
(910,-354,o),
(886,-328,o),
(886,-286,cs),
(886,-226,o),
(924,-178,o),
(974,-178,cs),
(1010,-178,o),
(1034,-204,o),
(1034,-246,cs),
(1034,-304,o),
(994,-354,o),
(946,-354,cs)
);
}
);
width = 1869;
},
{
anchors = (
{
name = bottom;
pos = (1786,0);
},
{
name = top;
pos = (1994,1174);
}
);
layerId = "D0EC06BF-13F9-4C88-A6F5-B8203AF6C77E";
shapes = (
{
closed = 1;
nodes = (
(464,-18,o),
(578,94,o),
(578,248,cs),
(578,362,o),
(496,438,o),
(374,438,cs),
(300,438,o),
(226,406,o),
(198,360,c),
(444,360,l),
(462,456,ls),
(472,506,o),
(502,534,o),
(550,534,cs),
(624,534,l),
(660,752,l),
(408,752,l),
(474,682,l),
(482,728,ls),
(498,834,o),
(572,892,o),
(690,892,cs),
(808,892,o),
(868,834,o),
(850,728,cs),
(802,444,ls),
(752,144,o),
(888,30,o),
(1282,30,cs),
(1672,30,o),
(1824,136,o),
(1874,444,cs),
(1994,1174,l),
(1592,1174,l),
(1474,458,ls),
(1458,368,o),
(1416,334,o),
(1320,334,cs),
(1222,334,o),
(1192,368,o),
(1208,458,cs),
(1258,756,ls),
(1302,1026,o),
(1098,1198,o),
(734,1198,cs),
(390,1198,o),
(144,1012,o),
(94,722,cs),
(78,636,l),
(282,636,l),
(280,624,l),
(164,592,o),
(96,518,o),
(78,400,cs),
(50,238,ls),
(26,90,o),
(130,-18,o),
(300,-18,cs)
);
},
{
closed = 1;
nodes = (
(292,140,o),
(274,162,o),
(274,196,cs),
(274,246,o),
(304,290,o),
(344,290,cs),
(370,290,o),
(390,266,o),
(390,232,cs),
(390,182,o),
(358,140,o),
(320,140,cs)
);
},
{
closed = 1;
nodes = (
(1458,-564,o),
(1688,-390,o),
(1774,-70,c),
(1410,-70,l),
(1356,-232,o),
(1268,-318,o),
(1152,-318,cs),
(1118,-318,o),
(1090,-310,o),
(1062,-294,c),
(798,-372,l),
(826,-418,o),
(880,-444,o),
(946,-444,cs),
(1080,-444,o),
(1186,-342,o),
(1186,-216,cs),
(1186,-106,o),
(1100,-30,o),
(974,-30,cs),
(818,-30,o),
(702,-138,o),
(702,-290,cs),
(702,-462,o),
(858,-564,o),
(1120,-564,cs)
);
},
{
closed = 1;
nodes = (
(922,-308,o),
(906,-288,o),
(906,-256,cs),
(906,-210,o),
(936,-172,o),
(972,-172,cs),
(996,-172,o),
(1012,-192,o),
(1012,-224,cs),
(1012,-270,o),
(982,-308,o),
(948,-308,cs)
);
}
);
width = 1992;
}
);
metricLeft = "thoThung-thai";
metricRight = "boBaimai-thai";
unicode = 3597;
}
{
glyphname = "doChada-thai";
kernLeft = "phoSamphao-thai";
kernRight = "koKai-thai";
layers = (
{
anchors = (
{
name = bottom;
pos = (926,-478);
},
{
name = top;
pos = (1184,1174);
}
);
layerId = "200BE2C5-40F6-4CF4-AF4F-A33C0CC0964F";
shapes = (
{
closed = 1;
nodes = (
(926,-478,l),
(1134,786,ls),
(1174,1032,o),
(1030,1192,o),
(766,1192,cs),
(508,1192,o),
(320,1034,o),
(280,786,cs),
(274,740,l),
(442,716,l),
(440,708,l),
(376,684,o),
(340,612,o),
(316,472,cs),
(278,238,l),
(290,238,l),
(282,288,o),
(240,324,o),
(186,324,cs),
(90,324,o),
(22,240,o),
(22,126,cs),
(22,36,o),
(70,-14,o),
(150,-14,cs),
(232,-14,o),
(296,52,o),
(312,156,cs),
(362,472,ls),
(392,648,o),
(448,716,o),
(552,700,cs),
(592,694,l),
(600,738,l),
(290,784,l),
(318,740,l),
(326,786,ls),
(362,1006,o),
(534,1146,o),
(766,1146,cs),
(1000,1146,o),
(1124,1006,o),
(1088,786,cs),
(888,-430,l),
(882,-430,l),
(792,-272,o),
(614,-190,o),
(354,-182,c),
(374,-224,l),
(616,-240,o),
(760,-316,o),
(856,-478,c)
);
},
{
closed = 1;
nodes = (
(98,30,o),
(66,64,o),
(66,128,cs),
(66,216,o),
(116,280,o),
(186,280,cs),
(232,280,o),
(266,240,o),
(266,184,cs),
(266,96,o),
(216,30,o),
(152,30,cs)
);
},
{
closed = 1;
nodes = (
(362,-492,o),
(428,-410,o),
(428,-300,cs),
(428,-222,o),
(378,-166,o),
(308,-166,cs),
(214,-166,o),
(146,-244,o),
(146,-356,cs),
(146,-434,o),
(198,-492,o),
(270,-492,cs)
);
},
{
closed = 1;
nodes = (
(224,-448,o),
(192,-408,o),
(192,-354,cs),
(192,-268,o),
(240,-210,o),
(306,-210,cs),
(350,-210,o),
(382,-250,o),
(382,-302,cs),
(382,-386,o),
(334,-448,o),
(270,-448,cs)
);
},
{
closed = 1;
nodes = (
(504,-66,l),
(454,-66,l),
(340,-206,l),
(384,-216,l)
);
}
);
width = 1291;
},
{
anchors = (
{
name = bottom;
pos = (996,-504);
},
{
name = top;
pos = (1260,1174);
}
);
layerId = "11F4534A-B963-4AB5-820F-DAF9A20CD933";
shapes = (
{
closed = 1;
nodes = (
(996,-504,l),
(1208,766,ls),
(1252,1026,o),
(1080,1198,o),
(778,1198,cs),
(474,1198,o),
(256,1014,o),
(208,718,cs),
(200,672,l),
(452,642,l),
(450,630,l),
(356,602,o),
(304,532,o),
(284,406,cs),
(268,310,l),
(394,310,l),
(374,358,o),
(304,392,o),
(228,392,cs),
(106,392,o),
(10,290,o),
(10,162,cs),
(10,52,o),
(78,-14,o),
(188,-14,cs),
(308,-14,o),
(396,66,o),
(418,196,cs),
(456,426,ls),
(478,562,o),
(532,626,o),
(618,616,cs),
(666,610,l),
(688,742,l),
(352,784,l),
(372,680,l),
(380,726,ls),
(412,920,o),
(560,1042,o),
(766,1042,cs),
(958,1042,o),
(1064,936,o),
(1036,768,cs),
(850,-352,l),
(840,-352,l),
(750,-232,o),
(598,-160,o),
(422,-146,c),
(396,-280,l),
(584,-296,o),
(708,-368,o),
(776,-504,c)
);
},
{
closed = 1;
nodes = (
(152,92,o),
(126,122,o),
(126,168,cs),
(126,234,o),
(172,290,o),
(226,290,cs),
(266,290,o),
(290,260,o),
(290,214,cs),
(290,148,o),
(246,92,o),
(192,92,cs)
);
},
{
closed = 1;
nodes = (
(402,-520,o),
(494,-428,o),
(494,-302,cs),
(494,-204,o),
(416,-130,o),
(314,-130,cs),
(188,-130,o),
(94,-224,o),
(94,-350,cs),
(94,-450,o),
(166,-520,o),
(274,-520,cs)
);
},
{
closed = 1;
nodes = (
(246,-420,o),
(220,-392,o),
(220,-350,cs),
(220,-284,o),
(260,-232,o),
(314,-232,cs),
(352,-232,o),
(378,-262,o),
(378,-306,cs),
(378,-368,o),
(336,-420,o),
(284,-420,cs)
);
},
{
closed = 1;
nodes = (
(680,-36,l),
(508,-36,l),
(362,-190,l),
(436,-280,l)
);
}
);
width = 1336;
},
{
anchors = (
{
name = bottom;
pos = (1088,-542);
},
{
name = top;
pos = (1358,1174);
}
);
layerId = "D0EC06BF-13F9-4C88-A6F5-B8203AF6C77E";
shapes = (
{
closed = 1;
nodes = (
(1088,-542,l),
(1304,756,ls),
(1348,1022,o),
(1142,1198,o),
(782,1198,cs),
(428,1198,o),
(172,1016,o),
(126,736,cs),
(110,636,l),
(342,636,l),
(340,624,l),
(240,598,o),
(182,532,o),
(162,422,cs),
(152,360,l),
(406,360,l),
(394,406,o),
(328,438,o),
(250,438,cs),
(106,438,o),
(-10,326,o),
(-10,184,cs),
(-10,60,o),
(78,-18,o),
(216,-18,cs),
(372,-18,o),
(488,80,o),
(514,238,cs),
(550,456,ls),
(558,510,o),
(586,534,o),
(632,534,cs),
(662,534,l),
(698,752,l),
(446,752,l),
(508,696,l),
(512,728,ls),
(528,832,o),
(606,892,o),
(728,892,cs),
(852,892,o),
(912,834,o),
(894,728,cs),
(730,-274,l),
(718,-274,l),
(654,-204,o),
(524,-154,o),
(386,-146,c),
(364,-382,l),
(506,-392,o),
(598,-446,o),
(646,-542,c)
);
},
{
closed = 1;
nodes = (
(192,140,o),
(174,162,o),
(174,196,cs),
(174,246,o),
(204,290,o),
(244,290,cs),
(270,290,o),
(290,266,o),
(290,232,cs),
(290,182,o),
(258,140,o),
(220,140,cs)
);
},
{
closed = 1;
nodes = (
(384,-558,o),
(500,-454,o),
(500,-312,cs),
(500,-200,o),
(402,-126,o),
(260,-126,cs),
(102,-126,o),
(-18,-226,o),
(-18,-360,cs),
(-18,-478,o),
(82,-558,o),
(226,-558,cs)
);
},
{
closed = 1;
nodes = (
(218,-418,o),
(200,-396,o),
(200,-364,cs),
(200,-316,o),
(232,-274,o),
(268,-274,cs),
(294,-274,o),
(312,-296,o),
(312,-328,cs),
(312,-376,o),
(282,-418,o),
(244,-418,cs)
);
},
{
closed = 1;
nodes = (
(656,-44,l),
(418,-44,l),
(284,-186,l),
(472,-256,l)
);
}
);
width = 1364;
}
);
metricLeft = "phoSamphao-thai";
metricRight = "phoSamphao-thai";
unicode = 3598;
}
{
glyphname = "toPatak-thai";
kernLeft = "phoSamphao-thai";
kernRight = "koKai-thai";
layers = (
{
anchors = (
{
name = bottom;
pos = (926,-478);
},
{
name = top;
pos = (1184,1174);
}
);
layerId = "200BE2C5-40F6-4CF4-AF4F-A33C0CC0964F";
shapes = (
{
closed = 1;
nodes = (
(564,-478,l),
(698,-264,l),
(704,-264,l),
(860,-478,l),
(926,-478,l),
(1134,786,ls),
(1174,1032,o),
(1030,1192,o),
(766,1192,cs),
(508,1192,o),
(320,1036,o),
(280,786,cs),
(274,740,l),
(442,716,l),
(440,708,l),
(376,684,o),
(340,612,o),
(316,472,cs),
(278,238,l),
(290,238,l),
(282,288,o),
(240,324,o),
(186,324,cs),
(90,324,o),
(22,240,o),
(22,126,cs),
(22,36,o),
(70,-14,o),
(150,-14,cs),
(232,-14,o),
(296,52,o),
(312,156,cs),
(362,472,ls),
(392,648,o),
(448,716,o),
(552,700,cs),
(592,694,l),
(600,738,l),
(290,784,l),
(318,740,l),
(326,786,ls),
(362,1006,o),
(534,1146,o),
(766,1146,cs),
(998,1146,o),
(1124,1006,o),
(1088,786,cs),
(888,-430,l),
(882,-430,l),
(720,-210,l),
(680,-210,l),
(542,-430,l),
(536,-430,l),
(514,-282,o),
(434,-192,o),
(306,-180,c),
(312,-224,l),
(414,-234,o),
(478,-324,o),
(496,-478,c)
);
},
{
closed = 1;
nodes = (
(98,30,o),
(66,64,o),
(66,128,cs),
(66,216,o),
(116,280,o),
(186,280,cs),
(232,280,o),
(266,240,o),
(266,184,cs),
(266,96,o),
(216,30,o),
(152,30,cs)
);
},
{
closed = 1;
nodes = (
(300,-492,o),
(370,-410,o),
(370,-300,cs),
(370,-222,o),
(318,-166,o),
(250,-166,cs),
(156,-166,o),
(88,-244,o),
(88,-356,cs),
(88,-434,o),
(138,-492,o),
(210,-492,cs)
);
},
{
closed = 1;
nodes = (
(166,-448,o),
(134,-408,o),
(134,-354,cs),
(134,-268,o),
(180,-210,o),
(248,-210,cs),
(290,-210,o),
(324,-250,o),
(324,-302,cs),
(324,-386,o),
(276,-448,o),
(212,-448,cs)
);
},
{
closed = 1;
nodes = (
(446,-66,l),
(396,-66,l),
(282,-206,l),
(326,-216,l)
);
}
);
width = 1291;
},
{
anchors = (
{
name = bottom;
pos = (996,-504);
},
{
name = top;
pos = (1260,1174);
}
);
layerId = "11F4534A-B963-4AB5-820F-DAF9A20CD933";
shapes = (
{
closed = 1;
nodes = (
(594,-504,l),
(686,-356,l),
(696,-356,l),
(814,-504,l),
(996,-504,l),
(1208,766,ls),
(1252,1026,o),
(1080,1198,o),
(778,1198,cs),
(474,1198,o),
(256,1014,o),
(208,718,cs),
(200,672,l),
(452,642,l),
(450,630,l),
(356,602,o),
(304,532,o),
(284,406,cs),
(268,310,l),
(394,310,l),
(374,358,o),
(304,392,o),
(228,392,cs),
(106,392,o),
(10,290,o),
(10,162,cs),
(10,52,o),
(78,-14,o),
(188,-14,cs),
(308,-14,o),
(396,66,o),
(418,196,cs),
(456,426,ls),
(478,562,o),
(532,626,o),
(618,616,cs),
(666,610,l),
(688,742,l),
(352,784,l),
(372,680,l),
(380,726,ls),
(412,920,o),
(560,1042,o),
(766,1042,cs),
(958,1042,o),
(1064,936,o),
(1036,768,cs),
(852,-338,l),
(840,-338,l),
(722,-190,l),
(650,-190,l),
(560,-338,l),
(548,-338,l),
(526,-222,o),
(450,-160,o),
(310,-146,c),
(280,-274,l),
(406,-274,o),
(464,-348,o),
(456,-504,c)
);
},
{
closed = 1;
nodes = (
(152,92,o),
(126,122,o),
(126,168,cs),
(126,234,o),
(172,290,o),
(226,290,cs),
(266,290,o),
(290,260,o),
(290,214,cs),
(290,148,o),
(246,92,o),
(192,92,cs)
);
},
{
closed = 1;
nodes = (
(280,-520,o),
(370,-428,o),
(370,-302,cs),
(370,-204,o),
(294,-130,o),
(192,-130,cs),
(66,-130,o),
(-28,-224,o),
(-28,-350,cs),
(-28,-450,o),
(46,-520,o),
(154,-520,cs)
);
},
{
closed = 1;
nodes = (
(124,-420,o),
(98,-392,o),
(98,-350,cs),
(98,-284,o),
(138,-232,o),
(192,-232,cs),
(230,-232,o),
(256,-262,o),
(256,-306,cs),
(256,-370,o),
(214,-420,o),
(162,-420,cs)
);
},
{
closed = 1;
nodes = (
(576,-36,l),
(402,-36,l),
(258,-190,l),
(332,-280,l)
);
}
);
width = 1336;
},
{
anchors = (
{
name = bottom;
pos = (1088,-542);
},
{
name = top;
pos = (1358,1174);
}
);
layerId = "D0EC06BF-13F9-4C88-A6F5-B8203AF6C77E";
shapes = (
{
closed = 1;
nodes = (
(520,-542,l),
(604,-434,l),
(616,-434,l),
(686,-542,l),
(1088,-542,l),
(1304,756,ls),
(1348,1022,o),
(1142,1198,o),
(782,1198,cs),
(428,1198,o),
(172,1016,o),
(126,736,cs),
(110,636,l),
(342,636,l),
(340,624,l),
(240,598,o),
(182,532,o),
(162,422,cs),
(152,360,l),
(406,360,l),
(394,406,o),
(328,438,o),
(250,438,cs),
(106,438,o),
(-10,326,o),
(-10,184,cs),
(-10,60,o),
(78,-18,o),
(216,-18,cs),
(372,-18,o),
(488,80,o),
(514,238,cs),
(550,456,ls),
(558,510,o),
(586,534,o),
(632,534,cs),
(662,534,l),
(698,752,l),
(446,752,l),
(508,696,l),
(512,728,ls),
(528,832,o),
(606,892,o),
(728,892,cs),
(852,892,o),
(912,834,o),
(894,728,cs),
(728,-280,l),
(718,-280,l),
(644,-168,l),
(600,-168,l),
(514,-280,l),
(508,-280,l),
(500,-210,o),
(446,-174,o),
(358,-174,c),
(354,-396,l),
(412,-408,o),
(448,-464,o),
(450,-542,c)
);
},
{
closed = 1;
nodes = (
(192,140,o),
(174,162,o),
(174,196,cs),
(174,246,o),
(204,290,o),
(244,290,cs),
(270,290,o),
(290,266,o),
(290,232,cs),
(290,182,o),
(258,140,o),
(220,140,cs)
);
},
{
closed = 1;
nodes = (
(320,-558,o),
(432,-452,o),
(432,-312,cs),
(432,-202,o),
(340,-126,o),
(210,-126,cs),
(60,-126,o),
(-50,-224,o),
(-50,-360,cs),
(-50,-478,o),
(38,-558,o),
(170,-558,cs)
);
},
{
closed = 1;
nodes = (
(158,-418,o),
(140,-396,o),
(140,-364,cs),
(140,-316,o),
(170,-274,o),
(206,-274,cs),
(232,-274,o),
(250,-296,o),
(250,-328,cs),
(250,-376,o),
(222,-418,o),
(184,-418,cs)
);
},
{
closed = 1;
nodes = (
(620,-44,l),
(388,-44,l),
(254,-186,l),
(428,-256,l)
);
}
);
width = 1364;
}
);
metricLeft = "phoSamphao-thai";
metricRight = "phoSamphao-thai";
unicode = 3599;
}
{
glyphname = "thoThan-thai";
kernLeft = "thoThan-thai";
layers = (
{
anchors = (
{
name = bottom;
pos = (770,-478);
},
{
name = top;
pos = (990,1174);
}
);
layerId = "200BE2C5-40F6-4CF4-AF4F-A33C0CC0964F";
shapes = (
{
closed = 1;
nodes = (
(424,0,ls),
(660,0,o),
(846,236,o),
(846,536,cs),
(846,740,o),
(720,858,o),
(510,858,cs),
(162,858,l),
(190,828,l),
(200,894,ls),
(228,1052,o),
(324,1144,o),
(466,1144,cs),
(588,1144,o),
(720,1108,o),
(844,1108,cs),
(894,1108,o),
(940,1114,o),
(990,1130,c),
(990,1176,l),
(940,1160,o),
(892,1154,o),
(850,1154,cs),
(728,1154,o),
(596,1188,o),
(466,1188,cs),
(290,1188,o),
(186,1078,o),
(154,894,cs),
(140,814,l),
(510,814,ls),
(692,814,o),
(798,710,o),
(798,536,cs),
(798,292,o),
(654,46,o),
(424,46,cs),
(334,46,l),
(356,16,l),
(440,530,ls),
(456,628,o),
(406,698,o),
(318,698,cs),
(220,698,o),
(152,614,o),
(152,500,cs),
(152,418,o),
(200,360,o),
(270,360,cs),
(328,360,o),
(374,392,o),
(392,446,c),
(380,446,l),
(306,0,l)
);
},
{
closed = 1;
nodes = (
(228,404,o),
(194,444,o),
(194,502,cs),
(194,590,o),
(246,654,o),
(316,654,cs),
(362,654,o),
(396,614,o),
(396,558,cs),
(396,468,o),
(344,404,o),
(274,404,cs)
);
},
{
closed = 1;
nodes = (
(348,-478,l),
(446,-310,l),
(450,-310,l),
(558,-478,l),
(712,-478,l),
(760,-194,ls),
(772,-124,o),
(738,-58,o),
(666,-58,cs),
(588,-58,o),
(530,-132,o),
(530,-216,cs),
(530,-278,o),
(566,-328,o),
(626,-328,cs),
(662,-328,o),
(694,-310,o),
(714,-278,c),
(702,-278,l),
(674,-434,l),
(582,-434,l),
(472,-260,l),
(424,-260,l),
(330,-422,l),
(324,-422,l),
(308,-280,o),
(250,-204,o),
(134,-194,c),
(142,-238,l),
(228,-246,o),
(280,-332,o),
(282,-478,c)
);
},
{
closed = 1;
nodes = (
(598,-284,o),
(574,-256,o),
(574,-216,cs),
(574,-152,o),
(616,-102,o),
(662,-102,cs),
(696,-102,o),
(718,-130,o),
(718,-172,cs),
(718,-234,o),
(676,-284,o),
(632,-284,cs)
);
},
{
closed = 1;
nodes = (
(128,-492,o),
(192,-416,o),
(192,-312,cs),
(192,-236,o),
(144,-180,o),
(78,-180,cs),
(-10,-180,o),
(-74,-258,o),
(-74,-364,cs),
(-74,-438,o),
(-26,-492,o),
(40,-492,cs)
);
},
{
closed = 1;
nodes = (
(0,-448,o),
(-30,-412,o),
(-30,-362,cs),
(-30,-282,o),
(16,-224,o),
(78,-224,cs),
(118,-224,o),
(146,-260,o),
(146,-312,cs),
(146,-390,o),
(102,-448,o),
(40,-448,cs)
);
},
{
closed = 1;
nodes = (
(258,-104,l),
(206,-104,l),
(110,-220,l),
(162,-220,l)
);
}
);
width = 1012;
},
{
anchors = (
{
name = bottom;
pos = (786,-504);
},
{
name = top;
pos = (1070,1174);
}
);
layerId = "11F4534A-B963-4AB5-820F-DAF9A20CD933";
shapes = (
{
closed = 1;
nodes = (
(504,0,ls),
(738,0,o),
(926,230,o),
(926,520,cs),
(926,730,o),
(788,856,o),
(558,856,cs),
(236,856,l),
(298,786,l),
(310,852,ls),
(332,974,o),
(402,1038,o),
(510,1038,cs),
(638,1038,o),
(746,1008,o),
(872,1008,cs),
(954,1008,o),
(1010,1020,o),
(1064,1040,c),
(1058,1180,l),
(1010,1164,o),
(942,1156,o),
(878,1156,cs),
(756,1156,o),
(656,1188,o),
(528,1188,cs),
(284,1188,o),
(166,1048,o),
(130,830,cs),
(110,714,l),
(540,714,ls),
(676,714,o),
(750,646,o),
(750,508,cs),
(750,364,o),
(654,146,o),
(524,146,cs),
(434,146,l),
(466,74,l),
(526,430,ls),
(546,550,o),
(470,642,o),
(348,642,cs),
(214,642,o),
(120,534,o),
(120,408,cs),
(120,304,o),
(186,232,o),
(288,232,cs),
(362,232,o),
(428,266,o),
(466,318,c),
(342,318,l),
(290,0,l)
);
},
{
closed = 1;
nodes = (
(264,336,o),
(238,368,o),
(238,414,cs),
(238,476,o),
(278,536,o),
(336,536,cs),
(380,536,o),
(402,498,o),
(402,456,cs),
(402,396,o),
(362,336,o),
(306,336,cs)
);
},
{
closed = 1;
nodes = (
(410,-504,l),
(466,-414,l),
(478,-414,l),
(532,-504,l),
(786,-504,l),
(838,-190,ls),
(852,-108,o),
(802,-44,o),
(712,-44,cs),
(622,-44,o),
(546,-120,o),
(546,-214,cs),
(546,-284,o),
(592,-334,o),
(664,-334,cs),
(714,-334,o),
(762,-310,o),
(786,-274,c),
(682,-274,l),
(664,-384,l),
(578,-384,l),
(504,-276,l),
(448,-276,l),
(384,-384,l),
(372,-384,l),
(362,-284,o),
(318,-230,o),
(214,-216,c),
(190,-330,l),
(278,-338,o),
(294,-406,o),
(286,-504,c)
);
},
{
closed = 1;
nodes = (
(648,-260,o),
(632,-240,o),
(632,-208,cs),
(632,-158,o),
(662,-122,o),
(700,-122,cs),
(728,-122,o),
(746,-144,o),
(746,-176,cs),
(746,-214,o),
(718,-260,o),
(678,-260,cs)
);
},
{
closed = 1;
nodes = (
(194,-520,o),
(270,-430,o),
(270,-318,cs),
(270,-232,o),
(208,-168,o),
(122,-168,cs),
(10,-168,o),
(-74,-260,o),
(-74,-372,cs),
(-74,-458,o),
(-16,-520,o),
(76,-520,cs)
);
},
{
closed = 1;
nodes = (
(56,-430,o),
(34,-402,o),
(34,-364,cs),
(34,-306,o),
(74,-262,o),
(120,-262,cs),
(154,-262,o),
(176,-288,o),
(176,-328,cs),
(176,-384,o),
(136,-430,o),
(90,-430,cs)
);
},
{
closed = 1;
nodes = (
(422,-110,l),
(274,-110,l),
(174,-216,l),
(232,-298,l)
);
}
);
width = 1076;
},
{
anchors = (
{
name = bottom;
pos = (932,-614);
},
{
name = top;
pos = (1228,1174);
}
);
layerId = "D0EC06BF-13F9-4C88-A6F5-B8203AF6C77E";
shapes = (
{
closed = 1;
nodes = (
(530,0,ls),
(864,0,o),
(1108,210,o),
(1108,494,cs),
(1108,690,o),
(970,808,o),
(738,808,cs),
(396,808,l),
(450,728,l),
(462,808,ls),
(472,874,o),
(520,908,o),
(610,908,cs),
(740,908,o),
(894,876,o),
(1014,876,cs),
(1072,876,o),
(1130,882,o),
(1182,898,c),
(1230,1182,l),
(1174,1166,o),
(1108,1160,o),
(1044,1160,cs),
(914,1160,o),
(720,1192,o),
(584,1192,cs),
(280,1192,o),
(124,1040,o),
(80,766,cs),
(56,610,l),
(578,610,ls),
(666,610,o),
(712,572,o),
(712,486,cs),
(712,388,o),
(650,276,o),
(552,276,cs),
(404,276,l),
(520,74,l),
(574,406,ls),
(596,542,o),
(488,648,o),
(334,648,cs),
(180,648,o),
(72,554,o),
(72,420,cs),
(72,308,o),
(154,230,o),
(270,230,cs),
(334,230,o),
(402,258,o),
(430,304,c),
(174,304,l),
(126,0,l)
);
},
{
closed = 1;
nodes = (
(268,356,o),
(250,378,o),
(250,410,cs),
(250,452,o),
(278,498,o),
(318,498,cs),
(344,498,o),
(362,478,o),
(362,446,cs),
(362,396,o),
(330,356,o),
(294,356,cs)
);
},
{
closed = 1;
nodes = (
(444,-614,l),
(518,-542,l),
(530,-542,l),
(606,-614,l),
(932,-614,l),
(996,-224,ls),
(1014,-108,o),
(924,-14,o),
(790,-14,cs),
(654,-14,o),
(562,-96,o),
(562,-216,cs),
(562,-308,o),
(636,-376,o),
(734,-376,cs),
(790,-376,o),
(848,-350,o),
(872,-312,c),
(696,-314,l),
(674,-448,l),
(664,-448,l),
(546,-350,l),
(508,-350,l),
(414,-440,l),
(408,-440,l),
(400,-344,o),
(346,-290,o),
(252,-282,c),
(240,-498,l),
(304,-512,o),
(336,-550,o),
(336,-614,c)
);
},
{
closed = 1;
nodes = (
(730,-268,o),
(716,-250,o),
(716,-222,cs),
(716,-180,o),
(744,-144,o),
(776,-144,cs),
(800,-144,o),
(814,-162,o),
(814,-192,cs),
(814,-232,o),
(786,-268,o),
(754,-268,cs)
);
},
{
closed = 1;
nodes = (
(240,-632,o),
(348,-526,o),
(348,-382,cs),
(348,-276,o),
(250,-198,o),
(116,-198,cs),
(-30,-198,o),
(-134,-296,o),
(-134,-434,cs),
(-134,-548,o),
(-38,-632,o),
(94,-632,cs)
);
},
{
closed = 1;
nodes = (
(72,-490,o),
(56,-470,o),
(56,-438,cs),
(56,-388,o),
(88,-348,o),
(124,-348,cs),
(150,-348,o),
(168,-368,o),
(168,-402,cs),
(168,-444,o),
(138,-490,o),
(98,-490,cs)
);
},
{
closed = 1;
nodes = (
(506,-138,l),
(290,-138,l),
(168,-266,l),
(308,-356,l)
);
}
);
width = 1184;
},
{
anchors = (
{
name = bottom;
pos = (874,-570);
},
{
name = top;
pos = (1166,1174);
}
);
associatedMasterId = "D0EC06BF-13F9-4C88-A6F5-B8203AF6C77E";
attr = {
coordinates = (
700
);
};
background = {
shapes = (
{
closed = 1;
nodes = (
(482,0,ls),
(766,0,o),
(988,174,o),
(1032,442,cs),
(1070,674,o),
(934,834,o),
(666,834,cs),
(332,834,l),
(388,750,l),
(400,820,ls),
(414,908,o),
(472,954,o),
(568,954,cs),
(690,954,o),
(842,922,o),
(956,922,cs),
(1030,922,o),
(1082,932,o),
(1134,950,c),
(1160,1182,l),
(1108,1166,o),
(1058,1158,o),
(986,1158,cs),
(872,1158,o),
(708,1192,o),
(570,1192,cs),
(314,1192,o),
(142,1044,o),
(100,792,cs),
(76,644,l),
(562,644,ls),
(688,644,o),
(750,582,o),
(726,442,cs),
(704,316,o),
(624,232,o),
(542,232,cs),
(416,232,l),
(498,74,l),
(548,378,ls),
(570,512,o),
(488,608,o),
(350,608,cs),
(218,608,o),
(108,518,o),
(88,398,cs),
(68,278,o),
(144,194,o),
(270,194,cs),
(338,194,o),
(406,224,o),
(438,272,c),
(232,250,l),
(190,0,l)
);
},
{
closed = 1;
nodes = (
(252,312,o),
(232,346,o),
(240,394,cs),
(248,442,o),
(280,476,o),
(318,476,cs),
(356,476,o),
(378,442,o),
(370,394,cs),
(362,346,o),
(328,312,o),
(290,312,cs)
);
},
{
closed = 1;
nodes = (
(422,-570,l),
(486,-490,l),
(498,-490,l),
(568,-570,l),
(872,-570,l),
(932,-210,ls),
(950,-104,o),
(882,-26,o),
(770,-26,cs),
(662,-26,o),
(572,-98,o),
(556,-200,cs),
(540,-292,o),
(602,-360,o),
(704,-360,cs),
(758,-360,o),
(812,-334,o),
(836,-296,c),
(686,-314,l),
(670,-422,l),
(628,-422,l),
(528,-320,l),
(482,-320,l),
(402,-418,l),
(394,-418,l),
(386,-322,o),
(334,-266,o),
(236,-256,c),
(218,-434,l),
(288,-446,o),
(320,-490,o),
(314,-570,c)
);
},
{
closed = 1;
nodes = (
(692,-264,o),
(676,-238,o),
(682,-200,cs),
(688,-162,o),
(714,-136,o),
(744,-136,cs),
(774,-136,o),
(790,-162,o),
(784,-200,cs),
(778,-238,o),
(752,-264,o),
(722,-264,cs)
);
},
{
closed = 1;
nodes = (
(194,-586,o),
(296,-502,o),
(314,-386,cs),
(334,-268,o),
(262,-186,o),
(142,-186,cs),
(16,-186,o),
(-90,-268,o),
(-110,-386,cs),
(-128,-502,o),
(-52,-586,o),
(74,-586,cs)
);
},
{
closed = 1;
nodes = (
(60,-466,o),
(40,-434,o),
(48,-390,cs),
(56,-346,o),
(86,-312,o),
(120,-312,cs),
(154,-312,o),
(176,-346,o),
(168,-390,cs),
(160,-434,o),
(128,-466,o),
(94,-466,cs)
);
},
{
closed = 1;
nodes = (
(470,-126,l),
(282,-126,l),
(168,-246,l),
(276,-334,l)
);
}
);
};
layerId = "641DACE8-2F6F-4ED3-98FB-3198FDE89374";
name = "Bold{700,-10}";
shapes = (
{
closed = 1;
nodes = (
(520,0,ls),
(808,0,o),
(1036,214,o),
(1036,504,cs),
(1036,706,o),
(900,834,o),
(664,834,cs),
(332,834,l),
(388,750,l),
(400,826,ls),
(414,910,o),
(472,954,o),
(568,954,cs),
(698,954,o),
(834,922,o),
(956,922,cs),
(1022,922,o),
(1080,932,o),
(1134,950,c),
(1160,1182,l),
(1108,1166,o),
(1042,1158,o),
(978,1158,cs),
(850,1158,o),
(696,1190,o),
(562,1190,cs),
(282,1190,o),
(142,1042,o),
(100,792,cs),
(78,658,l),
(562,658,ls),
(668,658,o),
(728,604,o),
(728,494,cs),
(728,378,o),
(654,224,o),
(542,224,cs),
(416,224,l),
(498,74,l),
(548,378,ls),
(570,512,o),
(482,608,o),
(344,608,cs),
(200,608,o),
(86,502,o),
(86,370,cs),
(86,264,o),
(158,194,o),
(270,194,cs),
(338,194,o),
(406,224,o),
(438,272,c),
(232,252,l),
(192,0,l)
);
},
{
closed = 1;
nodes = (
(260,312,o),
(240,336,o),
(240,374,cs),
(240,424,o),
(272,476,o),
(318,476,cs),
(352,476,o),
(372,450,o),
(372,414,cs),
(372,358,o),
(336,312,o),
(292,312,cs)
);
},
{
closed = 1;
nodes = (
(430,-570,l),
(496,-492,l),
(508,-492,l),
(578,-570,l),
(874,-570,l),
(934,-210,ls),
(952,-104,o),
(882,-26,o),
(770,-26,cs),
(654,-26,o),
(556,-112,o),
(556,-222,cs),
(556,-302,o),
(616,-360,o),
(706,-360,cs),
(760,-360,o),
(814,-334,o),
(838,-296,c),
(688,-316,l),
(670,-422,l),
(630,-422,l),
(528,-322,l),
(484,-322,l),
(402,-418,l),
(394,-418,l),
(386,-322,o),
(336,-266,o),
(238,-256,c),
(220,-430,l),
(294,-442,o),
(320,-492,o),
(316,-570,c)
);
},
{
closed = 1;
nodes = (
(698,-264,o),
(682,-246,o),
(682,-216,cs),
(682,-170,o),
(710,-136,o),
(744,-136,cs),
(770,-136,o),
(786,-154,o),
(786,-184,cs),
(786,-226,o),
(758,-264,o),
(724,-264,cs)
);
},
{
closed = 1;
nodes = (
(216,-586,o),
(318,-484,o),
(318,-354,cs),
(318,-256,o),
(234,-186,o),
(128,-186,cs),
(-8,-186,o),
(-110,-288,o),
(-110,-414,cs),
(-110,-520,o),
(-34,-586,o),
(78,-586,cs)
);
},
{
closed = 1;
nodes = (
(66,-466,o),
(48,-442,o),
(48,-408,cs),
(48,-354,o),
(82,-312,o),
(122,-312,cs),
(152,-312,o),
(170,-336,o),
(170,-372,cs),
(170,-420,o),
(138,-466,o),
(96,-466,cs)
);
},
{
closed = 1;
nodes = (
(472,-126,l),
(284,-126,l),
(170,-246,l),
(278,-334,l)
);
}
);
width = 1142;
},
{
anchors = (
{
name = bottom;
pos = (902,-592);
},
{
name = top;
pos = (1196,1174);
}
);
associatedMasterId = "D0EC06BF-13F9-4C88-A6F5-B8203AF6C77E";
attr = {
coordinates = (
800
);
};
background = {
shapes = (
{
closed = 1;
nodes = (
(524,0,ls),
(824,0,o),
(1072,202,o),
(1072,498,cs),
(1072,694,o),
(936,816,o),
(702,816,cs),
(362,816,l),
(418,738,l),
(430,816,ls),
(442,894,o),
(496,934,o),
(588,934,cs),
(718,934,o),
(864,902,o),
(984,902,cs),
(1048,902,o),
(1108,912,o),
(1158,928,c),
(1194,1182,l),
(1140,1166,o),
(1074,1158,o),
(1010,1158,cs),
(882,1158,o),
(710,1190,o),
(574,1190,cs),
(284,1190,o),
(132,1042,o),
(90,778,cs),
(66,632,l),
(570,632,ls),
(668,632,o),
(720,586,o),
(720,490,cs),
(720,384,o),
(650,250,o),
(546,250,cs),
(410,250,l),
(508,74,l),
(564,410,ls),
(586,546,o),
(494,646,o),
(350,646,cs),
(202,646,o),
(82,540,o),
(82,406,cs),
(82,300,o),
(156,230,o),
(272,230,cs),
(340,230,o),
(406,258,o),
(436,306,c),
(204,278,l),
(158,0,l)
);
},
{
closed = 1;
nodes = (
(266,352,o),
(248,374,o),
(248,410,cs),
(248,456,o),
(278,506,o),
(320,506,cs),
(350,506,o),
(370,480,o),
(370,446,cs),
(370,394,o),
(336,352,o),
(296,352,cs)
);
},
{
closed = 1;
nodes = (
(438,-592,l),
(506,-518,l),
(518,-518,l),
(592,-592,l),
(902,-592,l),
(964,-218,ls),
(982,-104,o),
(908,-20,o),
(788,-20,cs),
(664,-20,o),
(558,-106,o),
(558,-222,cs),
(558,-306,o),
(622,-368,o),
(718,-368,cs),
(774,-368,o),
(830,-342,o),
(854,-304,c),
(690,-330,l),
(672,-434,l),
(646,-434,l),
(536,-336,l),
(496,-336,l),
(408,-430,l),
(402,-430,l),
(394,-334,o),
(340,-278,o),
(244,-270,c),
(230,-464,l),
(300,-478,o),
(328,-522,o),
(326,-592,c)
);
},
{
closed = 1;
nodes = (
(714,-266,o),
(698,-248,o),
(698,-218,cs),
(698,-174,o),
(728,-140,o),
(760,-140,cs),
(786,-140,o),
(800,-158,o),
(800,-188,cs),
(800,-230,o),
(772,-266,o),
(738,-266,cs)
);
},
{
closed = 1;
nodes = (
(224,-608,o),
(332,-504,o),
(332,-366,cs),
(332,-264,o),
(244,-192,o),
(128,-192,cs),
(-14,-192,o),
(-122,-298,o),
(-122,-426,cs),
(-122,-538,o),
(-38,-608,o),
(80,-608,cs)
);
},
{
closed = 1;
nodes = (
(70,-478,o),
(52,-456,o),
(52,-422,cs),
(52,-370,o),
(84,-330,o),
(122,-330,cs),
(150,-330,o),
(168,-352,o),
(168,-386,cs),
(168,-432,o),
(138,-478,o),
(98,-478,cs)
);
},
{
closed = 1;
nodes = (
(488,-132,l),
(286,-132,l),
(168,-256,l),
(292,-344,l)
);
}
);
};
layerId = "3BF7B51A-F5C6-4583-895F-1BD972B0731D";
name = "Extra Bold{800,-10}";
shapes = (
{
closed = 1;
nodes = (
(526,0,ls),
(826,0,o),
(1072,202,o),
(1072,498,cs),
(1072,694,o),
(936,818,o),
(702,818,cs),
(364,818,l),
(418,738,l),
(430,818,ls),
(442,896,o),
(498,934,o),
(590,934,cs),
(720,934,o),
(864,902,o),
(984,902,cs),
(1048,902,o),
(1108,910,o),
(1158,928,c),
(1194,1182,l),
(1140,1166,o),
(1074,1158,o),
(1010,1158,cs),
(882,1158,o),
(710,1192,o),
(574,1192,cs),
(284,1192,o),
(132,1040,o),
(90,778,cs),
(66,632,l),
(572,632,ls),
(668,632,o),
(720,586,o),
(720,490,cs),
(720,382,o),
(650,250,o),
(546,250,cs),
(410,250,l),
(510,74,l),
(564,412,ls),
(586,548,o),
(494,648,o),
(350,648,cs),
(202,648,o),
(82,540,o),
(82,406,cs),
(82,300,o),
(156,230,o),
(272,230,cs),
(340,230,o),
(406,258,o),
(436,306,c),
(206,278,l),
(158,0,l)
);
},
{
closed = 1;
nodes = (
(266,352,o),
(248,376,o),
(248,412,cs),
(248,458,o),
(278,506,o),
(322,506,cs),
(352,506,o),
(370,480,o),
(370,446,cs),
(370,394,o),
(336,352,o),
(296,352,cs)
);
},
{
closed = 1;
nodes = (
(438,-592,l),
(508,-518,l),
(520,-518,l),
(592,-592,l),
(904,-592,l),
(964,-218,ls),
(982,-104,o),
(908,-20,o),
(788,-20,cs),
(664,-20,o),
(558,-106,o),
(558,-222,cs),
(558,-306,o),
(622,-368,o),
(718,-368,cs),
(774,-368,o),
(830,-342,o),
(854,-304,c),
(690,-330,l),
(672,-434,l),
(646,-434,l),
(536,-336,l),
(496,-336,l),
(408,-430,l),
(402,-430,l),
(394,-334,o),
(340,-278,o),
(244,-270,c),
(230,-464,l),
(300,-478,o),
(328,-522,o),
(326,-592,c)
);
},
{
closed = 1;
nodes = (
(714,-266,o),
(700,-246,o),
(700,-218,cs),
(700,-174,o),
(728,-140,o),
(760,-140,cs),
(786,-140,o),
(800,-160,o),
(800,-190,cs),
(800,-232,o),
(772,-266,o),
(738,-266,cs)
);
},
{
closed = 1;
nodes = (
(224,-610,o),
(334,-504,o),
(334,-366,cs),
(334,-264,o),
(244,-192,o),
(130,-192,cs),
(-14,-192,o),
(-122,-296,o),
(-122,-426,cs),
(-122,-538,o),
(-38,-610,o),
(80,-610,cs)
);
},
{
closed = 1;
nodes = (
(70,-478,o),
(52,-456,o),
(52,-424,cs),
(52,-372,o),
(84,-330,o),
(122,-330,cs),
(150,-330,o),
(168,-352,o),
(168,-386,cs),
(168,-432,o),
(138,-478,o),
(98,-478,cs)
);
},
{
closed = 1;
nodes = (
(488,-132,l),
(286,-132,l),
(168,-256,l),
(292,-344,l)
);
}
);
width = 1162;
}
);
unicode = 3600;
}
{
glyphname = "thoNangmontho-thai";
kernRight = "thoThahan-thai";
layers = (
{
anchors = (
{
name = bottom;
pos = (868,0);
},
{
name = top;
pos = (1062,1174);
}
);
layerId = "200BE2C5-40F6-4CF4-AF4F-A33C0CC0964F";
shapes = (
{
closed = 1;
nodes = (
(186,0,l),
(240,322,ls),
(266,480,o),
(290,528,o),
(398,654,cs),
(678,978,ls),
(786,1102,o),
(842,1144,o),
(908,1144,cs),
(974,1144,o),
(1004,1100,o),
(990,1022,cs),
(822,0,l),
(868,0,l),
(1038,1022,ls),
(1056,1126,o),
(1006,1188,o),
(910,1188,cs),
(828,1188,o),
(764,1144,o),
(646,1008,cs),
(544,890,l),
(538,890,l),
(584,1174,l),
(540,1174,l),
(536,1150,ls),
(514,1036,o),
(430,924,o),
(350,906,c),
(354,894,l),
(402,928,o),
(430,986,o),
(430,1050,cs),
(430,1130,o),
(380,1188,o),
(308,1188,cs),
(210,1188,o),
(140,1106,o),
(140,988,cs),
(140,906,o),
(190,848,o),
(264,848,cs),
(354,848,o),
(440,898,o),
(502,988,c),
(508,988,l),
(484,832,o),
(474,808,o),
(366,682,cs),
(248,546,o),
(222,488,o),
(194,322,cs),
(140,0,l)
);
},
{
closed = 1;
nodes = (
(216,892,o),
(184,934,o),
(184,990,cs),
(184,1080,o),
(234,1144,o),
(306,1144,cs),
(352,1144,o),
(386,1104,o),
(386,1048,cs),
(386,958,o),
(334,892,o),
(264,892,cs)
);
}
);
width = 1162;
},
{
anchors = (
{
name = bottom;
pos = (1010,0);
},
{
name = top;
pos = (1204,1174);
}
);
layerId = "11F4534A-B963-4AB5-820F-DAF9A20CD933";
shapes = (
{
closed = 1;
nodes = (
(338,0,l),
(406,402,ls),
(428,532,o),
(456,594,o),
(534,672,cs),
(814,954,ls),
(872,1012,o),
(902,1032,o),
(936,1032,cs),
(986,1032,o),
(1004,992,o),
(990,914,cs),
(840,0,l),
(1010,0,l),
(1166,942,ls),
(1192,1096,o),
(1126,1188,o),
(990,1188,cs),
(916,1188,o),
(858,1160,o),
(786,1088,cs),
(708,1010,l),
(696,1010,l),
(722,1174,l),
(584,1174,l),
(576,1118,ls),
(560,1018,o),
(500,970,o),
(392,970,c),
(414,882,l),
(460,920,o),
(486,980,o),
(486,1042,cs),
(486,1130,o),
(420,1188,o),
(320,1188,cs),
(200,1188,o),
(114,1098,o),
(114,974,cs),
(114,882,o),
(180,822,o),
(282,822,cs),
(358,822,o),
(450,854,o),
(524,908,c),
(536,908,l),
(516,848,o),
(482,802,o),
(404,728,cs),
(298,630,o),
(260,554,o),
(234,402,cs),
(168,0,l)
);
},
{
closed = 1;
nodes = (
(254,912,o),
(230,942,o),
(230,984,cs),
(230,1046,o),
(270,1094,o),
(318,1094,cs),
(354,1094,o),
(378,1066,o),
(378,1024,cs),
(378,962,o),
(338,912,o),
(290,912,cs)
);
}
);
width = 1274;
},
{
anchors = (
{
name = bottom;
pos = (1198,0);
},
{
name = top;
pos = (1394,1174);
}
);
layerId = "D0EC06BF-13F9-4C88-A6F5-B8203AF6C77E";
shapes = (
{
closed = 1;
nodes = (
(514,0,l),
(580,396,ls),
(596,488,o),
(614,534,o),
(656,588,cs),
(812,786,ls),
(844,828,o),
(862,842,o),
(886,842,cs),
(918,842,o),
(932,820,o),
(926,782,cs),
(796,0,l),
(1198,0,l),
(1348,906,ls),
(1378,1084,o),
(1282,1192,o),
(1098,1192,cs),
(986,1192,o),
(906,1154,o),
(820,1060,cs),
(784,1022,l),
(772,1022,l),
(798,1174,l),
(602,1174,l),
(592,1118,ls),
(576,1028,o),
(544,986,o),
(472,956,c),
(504,884,l),
(538,922,o),
(556,964,o),
(556,1010,cs),
(556,1114,o),
(466,1192,o),
(344,1192,cs),
(194,1192,o),
(80,1080,o),
(80,930,cs),
(80,808,o),
(156,730,o),
(270,730,cs),
(322,730,o),
(372,746,o),
(414,774,c),
(428,774,l),
(386,738,o),
(352,704,o),
(320,668,cs),
(250,590,o),
(210,506,o),
(194,404,cs),
(126,0,l)
);
},
{
closed = 1;
nodes = (
(270,894,o),
(254,914,o),
(254,946,cs),
(254,994,o),
(282,1036,o),
(320,1036,cs),
(346,1036,o),
(366,1012,o),
(366,980,cs),
(366,934,o),
(332,894,o),
(296,894,cs)
);
}
);
width = 1394;
}
);
unicode = 3601;
}
{
glyphname = "thoPhuthao-thai";
kernLeft = "khoKhon-thai";
kernRight = "moMa-thai";
layers = (
{
anchors = (
{
name = bottom;
pos = (1540,0);
},
{
name = top;
pos = (1734,1174);
}
);
layerId = "200BE2C5-40F6-4CF4-AF4F-A33C0CC0964F";
shapes = (
{
closed = 1;
nodes = (
(152,0,l),
(416,104,o),
(772,378,o),
(772,618,cs),
(772,698,o),
(720,756,o),
(648,756,cs),
(550,756,o),
(482,674,o),
(482,558,cs),
(482,474,o),
(530,418,o),
(600,418,cs),
(638,418,o),
(664,434,o),
(702,474,c),
(682,466,l),
(570,294,o),
(370,138,o),
(138,40,c),
(154,24,l),
(296,882,ls),
(320,1032,o),
(390,1114,o),
(510,1138,c),
(688,978,l),
(712,978,l),
(944,1138,l),
(1056,1114,o),
(1096,1032,o),
(1072,882,cs),
(978,306,l),
(1006,290,l),
(1358,262,o),
(1526,184,o),
(1504,62,cs),
(1494,0,l),
(1540,0,l),
(1734,1174,l),
(1688,1174,l),
(1514,126,l),
(1536,126,l),
(1526,236,o),
(1344,308,o),
(1016,332,c),
(1024,312,l),
(1118,882,ls),
(1148,1056,o),
(1090,1156,o),
(942,1188,c),
(706,1024,l),
(700,1024,l),
(520,1188,l),
(364,1154,o),
(280,1060,o),
(250,882,cs),
(104,0,l)
);
},
{
closed = 1;
nodes = (
(560,462,o),
(526,504,o),
(526,560,cs),
(526,648,o),
(578,712,o),
(648,712,cs),
(694,712,o),
(728,672,o),
(728,616,cs),
(728,526,o),
(676,462,o),
(606,462,cs)
);
},
{
closed = 1;
nodes = (
(968,-14,o),
(1042,74,o),
(1042,198,cs),
(1042,288,o),
(986,350,o),
(908,350,cs),
(802,350,o),
(726,262,o),
(726,136,cs),
(726,46,o),
(782,-14,o),
(864,-14,cs)
);
},
{
closed = 1;
nodes = (
(810,30,o),
(770,74,o),
(770,138,cs),
(770,236,o),
(826,306,o),
(906,306,cs),
(960,306,o),
(998,260,o),
(998,196,cs),
(998,100,o),
(942,30,o),
(866,30,cs)
);
}
);
width = 1834;
},
{
anchors = (
{
name = bottom;
pos = (1606,0);
},
{
name = top;
pos = (1800,1174);
}
);
layerId = "11F4534A-B963-4AB5-820F-DAF9A20CD933";
shapes = (
{
closed = 1;
nodes = (
(240,0,l),
(540,66,o),
(812,322,o),
(812,610,cs),
(812,704,o),
(744,768,o),
(642,768,cs),
(520,768,o),
(428,672,o),
(428,546,cs),
(428,450,o),
(490,386,o),
(586,386,cs),
(652,386,o),
(714,416,o),
(754,466,c),
(640,466,l),
(584,296,o),
(430,176,o),
(200,122,c),
(254,62,l),
(378,822,ls),
(396,934,o),
(454,1002,o),
(546,1018,c),
(686,898,l),
(734,898,l),
(914,1018,l),
(996,1002,o),
(1034,936,o),
(1016,828,cs),
(942,384,l),
(1070,312,l),
(1326,288,o),
(1464,188,o),
(1442,46,cs),
(1434,0,l),
(1606,0,l),
(1800,1174,l),
(1628,1174,l),
(1470,222,l),
(1496,236,l),
(1480,344,o),
(1318,422,o),
(1080,440,c),
(1112,386,l),
(1182,810,ls),
(1216,1020,o),
(1134,1154,o),
(946,1188,c),
(734,1042,l),
(722,1042,l),
(562,1188,l),
(368,1170,o),
(246,1038,o),
(208,804,cs),
(76,0,l)
);
},
{
closed = 1;
nodes = (
(562,480,o),
(538,508,o),
(538,552,cs),
(538,614,o),
(580,664,o),
(632,664,cs),
(670,664,o),
(694,636,o),
(694,594,cs),
(694,532,o),
(650,480,o),
(600,480,cs)
);
},
{
closed = 1;
nodes = (
(1078,-14,o),
(1182,88,o),
(1182,232,cs),
(1182,336,o),
(1106,408,o),
(994,408,cs),
(852,408,o),
(748,304,o),
(748,162,cs),
(748,58,o),
(824,-14,o),
(936,-14,cs)
);
},
{
closed = 1;
nodes = (
(908,92,o),
(882,124,o),
(882,174,cs),
(882,248,o),
(928,306,o),
(988,306,cs),
(1028,306,o),
(1054,272,o),
(1054,222,cs),
(1054,150,o),
(1006,92,o),
(950,92,cs)
);
}
);
width = 1868;
},
{
anchors = (
{
name = bottom;
pos = (1770,0);
},
{
name = top;
pos = (1964,1174);
}
);
layerId = "D0EC06BF-13F9-4C88-A6F5-B8203AF6C77E";
shapes = (
{
closed = 1;
nodes = (
(326,0,l),
(582,86,o),
(868,322,o),
(870,558,cs),
(870,684,o),
(802,752,o),
(676,752,cs),
(524,752,o),
(404,634,o),
(404,488,cs),
(404,382,o),
(466,318,o),
(570,318,cs),
(636,318,o),
(698,344,o),
(738,392,c),
(574,408,l),
(524,290,o),
(448,226,o),
(316,190,c),
(364,144,l),
(464,740,ls),
(476,812,o),
(520,862,o),
(586,870,c),
(698,790,l),
(738,790,l),
(874,870,l),
(932,862,o),
(960,812,o),
(950,740,cs),
(894,404,l),
(1154,226,l),
(1316,206,o),
(1412,126,o),
(1394,24,cs),
(1390,0,l),
(1770,0,l),
(1966,1174,l),
(1570,1174,l),
(1424,296,l),
(1488,334,l),
(1476,400,o),
(1368,452,o),
(1226,466,c),
(1260,360,l),
(1322,734,ls),
(1364,998,o),
(1238,1166,o),
(982,1188,c),
(768,1060,l),
(756,1060,l),
(584,1188,l),
(336,1166,o),
(174,1006,o),
(130,734,cs),
(10,0,l)
);
},
{
closed = 1;
nodes = (
(584,462,o),
(566,482,o),
(566,514,cs),
(566,562,o),
(596,604,o),
(634,604,cs),
(660,604,o),
(678,582,o),
(678,550,cs),
(678,502,o),
(648,462,o),
(612,462,cs)
);
},
{
closed = 1;
nodes = (
(1118,-18,o),
(1238,100,o),
(1238,250,cs),
(1238,376,o),
(1148,462,o),
(1018,462,cs),
(850,462,o),
(736,356,o),
(736,198,cs),
(736,70,o),
(828,-18,o),
(964,-18,cs)
);
},
{
closed = 1;
nodes = (
(956,148,o),
(940,172,o),
(940,206,cs),
(940,256,o),
(972,296,o),
(1012,296,cs),
(1038,296,o),
(1056,274,o),
(1056,242,cs),
(1056,192,o),
(1024,148,o),
(986,148,cs)
);
}
);
width = 1965;
},
{
anchors = (
{
name = bottom;
pos = (1704,0);
},
{
name = top;
pos = (1898,1174);
}
);
associatedMasterId = "D0EC06BF-13F9-4C88-A6F5-B8203AF6C77E";
attr = {
coordinates = (
700
);
};
background = {
shapes = (
{
closed = 1;
nodes = (
(326,0,l),
(574,82,o),
(802,260,o),
(856,472,cs),
(864,500,o),
(868,526,o),
(868,556,cs),
(868,702,o),
(782,752,o),
(674,752,cs),
(516,752,o),
(402,628,o),
(402,486,cs),
(402,384,o),
(464,318,o),
(570,318,cs),
(638,318,o),
(696,344,o),
(736,392,c),
(574,408,l),
(520,282,o),
(438,222,o),
(314,188,c),
(364,144,l),
(462,740,ls),
(474,814,o),
(522,860,o),
(586,870,c),
(696,790,l),
(736,790,l),
(874,870,l),
(930,862,o),
(960,814,o),
(948,740,cs),
(892,404,l),
(1154,226,l),
(1296,208,o),
(1410,140,o),
(1392,24,cs),
(1390,0,l),
(1770,0,l),
(1964,1174,l),
(1568,1174,l),
(1424,294,l),
(1486,334,l),
(1472,406,o),
(1356,456,o),
(1226,466,c),
(1258,360,l),
(1320,734,ls),
(1362,988,o),
(1248,1164,o),
(982,1188,c),
(766,1060,l),
(754,1060,l),
(584,1188,l),
(320,1164,o),
(172,988,o),
(130,734,cs),
(8,0,l)
);
},
{
closed = 1;
nodes = (
(584,460,o),
(566,482,o),
(566,514,cs),
(566,556,o),
(594,602,o),
(634,602,cs),
(660,602,o),
(678,582,o),
(678,550,cs),
(678,500,o),
(646,460,o),
(610,460,cs)
);
},
{
closed = 1;
nodes = (
(1122,-18,o),
(1238,106,o),
(1238,250,cs),
(1238,378,o),
(1146,462,o),
(1016,462,cs),
(862,462,o),
(736,370,o),
(736,198,cs),
(736,70,o),
(828,-18,o),
(962,-18,cs)
);
},
{
closed = 1;
nodes = (
(958,148,o),
(938,170,o),
(938,204,cs),
(938,256,o),
(972,296,o),
(1010,296,cs),
(1038,296,o),
(1056,272,o),
(1056,240,cs),
(1056,186,o),
(1022,148,o),
(986,148,cs)
);
}
);
};
layerId = "46693641-4194-4EC3-B81D-DD80ACE336AE";
name = "Bold{700,-10}";
shapes = (
{
closed = 1;
nodes = (
(292,0,l),
(564,78,o),
(846,328,o),
(846,578,cs),
(846,704,o),
(766,760,o),
(662,760,cs),
(516,760,o),
(414,642,o),
(414,510,cs),
(414,410,o),
(474,346,o),
(578,346,cs),
(644,346,o),
(704,374,o),
(744,422,c),
(600,432,l),
(546,290,o),
(440,204,o),
(270,162,c),
(320,110,l),
(430,774,ls),
(444,862,o),
(496,918,o),
(570,930,c),
(692,834,l),
(736,834,l),
(890,930,l),
(956,918,o),
(992,866,o),
(976,776,cs),
(912,398,l),
(1120,262,l),
(1286,244,o),
(1430,172,o),
(1412,34,cs),
(1408,0,l),
(1704,0,l),
(1900,1174,l),
(1592,1174,l),
(1442,266,l),
(1490,296,l),
(1474,384,o),
(1336,442,o),
(1168,456,c),
(1202,370,l),
(1266,764,ls),
(1304,1002,o),
(1202,1160,o),
(968,1188,c),
(754,1054,l),
(742,1054,l),
(576,1188,l),
(332,1166,o),
(202,1000,o),
(162,762,cs),
(36,0,l)
);
},
{
closed = 1;
nodes = (
(574,468,o),
(556,492,o),
(556,530,cs),
(556,580,o),
(588,628,o),
(632,628,cs),
(664,628,o),
(686,604,o),
(686,568,cs),
(686,512,o),
(646,468,o),
(606,468,cs)
);
},
{
closed = 1;
nodes = (
(1142,-16,o),
(1254,98,o),
(1254,242,cs),
(1254,360,o),
(1170,440,o),
(1046,440,cs),
(896,440,o),
(778,342,o),
(778,184,cs),
(778,64,o),
(864,-16,o),
(990,-16,cs)
);
},
{
closed = 1;
nodes = (
(976,126,o),
(954,152,o),
(954,194,cs),
(954,250,o),
(990,302,o),
(1040,302,cs),
(1072,302,o),
(1094,272,o),
(1094,234,cs),
(1094,174,o),
(1056,126,o),
(1010,126,cs)
);
}
);
width = 1994;
},
{
anchors = (
{
name = bottom;
pos = (1751,0);
},
{
name = top;
pos = (1945,1174);
}
);
associatedMasterId = "D0EC06BF-13F9-4C88-A6F5-B8203AF6C77E";
attr = {
coordinates = (
800
);
};
background = {
shapes = (
{
closed = 1;
nodes = (
(339,0,l),
(587,82,o),
(815,260,o),
(869,472,cs),
(877,500,o),
(881,526,o),
(881,556,cs),
(881,702,o),
(795,752,o),
(687,752,cs),
(529,752,o),
(415,628,o),
(415,486,cs),
(415,384,o),
(477,318,o),
(583,318,cs),
(651,318,o),
(709,344,o),
(749,392,c),
(587,408,l),
(533,282,o),
(451,222,o),
(327,188,c),
(377,144,l),
(475,740,ls),
(487,814,o),
(535,860,o),
(599,870,c),
(709,790,l),
(749,790,l),
(887,870,l),
(943,862,o),
(973,814,o),
(961,740,cs),
(905,404,l),
(1167,226,l),
(1309,208,o),
(1423,140,o),
(1405,24,cs),
(1403,0,l),
(1783,0,l),
(1977,1174,l),
(1581,1174,l),
(1437,294,l),
(1499,334,l),
(1485,406,o),
(1369,456,o),
(1239,466,c),
(1271,360,l),
(1333,734,ls),
(1375,988,o),
(1261,1164,o),
(995,1188,c),
(779,1060,l),
(767,1060,l),
(597,1188,l),
(333,1164,o),
(185,988,o),
(143,734,cs),
(21,0,l)
);
},
{
closed = 1;
nodes = (
(597,460,o),
(579,482,o),
(579,514,cs),
(579,556,o),
(607,602,o),
(647,602,cs),
(673,602,o),
(691,582,o),
(691,550,cs),
(691,500,o),
(659,460,o),
(623,460,cs)
);
},
{
closed = 1;
nodes = (
(1135,-18,o),
(1251,106,o),
(1251,250,cs),
(1251,378,o),
(1159,462,o),
(1029,462,cs),
(875,462,o),
(749,370,o),
(749,198,cs),
(749,70,o),
(841,-18,o),
(975,-18,cs)
);
},
{
closed = 1;
nodes = (
(971,148,o),
(951,170,o),
(951,204,cs),
(951,256,o),
(985,296,o),
(1023,296,cs),
(1051,296,o),
(1069,272,o),
(1069,240,cs),
(1069,186,o),
(1035,148,o),
(999,148,cs)
);
}
);
};
layerId = "A2602C2E-4CF1-4399-848D-04337F9709A2";
name = "ExtraBold{800,-10}";
shapes = (
{
closed = 1;
nodes = (
(323,0,l),
(579,80,o),
(857,334,o),
(857,568,cs),
(857,702,o),
(771,756,o),
(667,756,cs),
(515,756,o),
(407,634,o),
(407,498,cs),
(407,396,o),
(467,334,o),
(573,334,cs),
(639,334,o),
(701,360,o),
(741,408,c),
(587,420,l),
(533,286,o),
(453,214,o),
(307,176,c),
(355,128,l),
(459,758,ls),
(473,840,o),
(521,890,o),
(591,900,c),
(707,812,l),
(749,812,l),
(895,900,l),
(955,890,o),
(989,840,o),
(975,758,cs),
(915,400,l),
(1149,244,l),
(1303,226,o),
(1435,156,o),
(1415,28,cs),
(1411,0,l),
(1751,0,l),
(1945,1174,l),
(1595,1174,l),
(1447,280,l),
(1501,314,l),
(1487,394,o),
(1361,450,o),
(1211,462,c),
(1243,366,l),
(1307,748,ls),
(1347,994,o),
(1237,1162,o),
(987,1188,c),
(773,1056,l),
(761,1056,l),
(593,1188,l),
(339,1166,o),
(199,994,o),
(159,748,cs),
(35,0,l)
);
},
{
closed = 1;
nodes = (
(577,466,o),
(559,488,o),
(559,524,cs),
(559,570,o),
(591,616,o),
(633,616,cs),
(661,616,o),
(681,592,o),
(681,558,cs),
(681,504,o),
(645,466,o),
(607,466,cs)
);
},
{
closed = 1;
nodes = (
(1161,-18,o),
(1275,104,o),
(1275,248,cs),
(1275,370,o),
(1187,450,o),
(1059,450,cs),
(907,450,o),
(785,354,o),
(785,192,cs),
(785,66,o),
(875,-18,o),
(1005,-18,cs)
);
},
{
closed = 1;
nodes = (
(993,138,o),
(975,162,o),
(975,200,cs),
(975,254,o),
(1009,300,o),
(1053,300,cs),
(1083,300,o),
(1103,272,o),
(1103,238,cs),
(1103,180,o),
(1065,138,o),
(1025,138,cs)
);
}
);
width = 2040;
}
);
metricLeft = "toTao-thai";
metricRight = "moMa-thai";
unicode = 3602;
}
{
glyphname = "noNen-thai";
kernLeft = "koKai-thai";
kernRight = "noNu-thai";
layers = (
{
anchors = (
{
name = bottom;
pos = (1502,0);
},
{
name = top;
pos = (1680,1174);
}
);
layerId = "200BE2C5-40F6-4CF4-AF4F-A33C0CC0964F";
shapes = (
{
closed = 1;
nodes = (
(374,-14,o),
(446,72,o),
(446,194,cs),
(446,278,o),
(394,340,o),
(322,340,cs),
(264,340,o),
(212,306,o),
(192,252,c),
(204,252,l),
(240,472,ls),
(266,632,o),
(344,718,o),
(446,702,cs),
(496,694,l),
(504,738,l),
(200,784,l),
(228,740,l),
(236,786,ls),
(270,1004,o),
(440,1146,o),
(664,1146,cs),
(890,1146,o),
(1010,1008,o),
(974,792,cs),
(844,0,l),
(890,0,l),
(900,62,ls),
(920,186,o),
(1134,284,o),
(1446,316,c),
(1446,338,l),
(1542,338,l),
(1680,1174,l),
(1634,1174,l),
(1496,338,l),
(1512,362,l),
(1192,340,o),
(946,250,o),
(894,132,c),
(912,132,l),
(1022,792,ls),
(1062,1034,o),
(920,1192,o),
(664,1192,cs),
(416,1192,o),
(230,1032,o),
(190,786,cs),
(184,740,l),
(338,718,l),
(338,710,l),
(268,684,o),
(214,598,o),
(194,472,cs),
(144,170,ls),
(126,64,o),
(180,-14,o),
(272,-14,cs)
);
},
{
closed = 1;
nodes = (
(222,30,o),
(188,70,o),
(188,132,cs),
(188,228,o),
(242,296,o),
(318,296,cs),
(366,296,o),
(402,254,o),
(402,194,cs),
(402,98,o),
(348,30,o),
(274,30,cs)
);
},
{
closed = 1;
nodes = (
(1564,-14,o),
(1640,76,o),
(1640,206,cs),
(1640,292,o),
(1584,354,o),
(1506,354,cs),
(1400,354,o),
(1324,264,o),
(1324,140,cs),
(1324,50,o),
(1378,-14,o),
(1456,-14,cs)
);
},
{
closed = 1;
nodes = (
(1406,30,o),
(1368,76,o),
(1368,142,cs),
(1368,240,o),
(1424,312,o),
(1504,312,cs),
(1556,312,o),
(1596,268,o),
(1596,206,cs),
(1596,104,o),
(1538,30,o),
(1458,30,cs)
);
}
);
width = 1810;
},
{
anchors = (
{
name = bottom;
pos = (1566,0);
},
{
name = top;
pos = (1746,1174);
}
);
layerId = "11F4534A-B963-4AB5-820F-DAF9A20CD933";
shapes = (
{
closed = 1;
nodes = (
(426,-14,o),
(526,86,o),
(526,220,cs),
(526,324,o),
(456,392,o),
(354,392,cs),
(284,392,o),
(216,362,o),
(178,310,c),
(306,310,l),
(322,400,ls),
(346,552,o),
(418,628,o),
(524,616,cs),
(576,610,l),
(598,744,l),
(290,782,l),
(296,680,l),
(304,726,ls),
(336,920,o),
(476,1042,o),
(670,1042,cs),
(848,1042,o),
(948,934,o),
(920,768,cs),
(794,0,l),
(966,0,l),
(976,62,ls),
(1000,206,o),
(1188,306,o),
(1462,324,c),
(1466,350,l),
(1614,384,l),
(1746,1174,l),
(1574,1174,l),
(1444,386,l),
(1496,452,l),
(1230,436,o),
(1042,360,o),
(982,246,c),
(1004,230,l),
(1092,766,ls),
(1134,1022,o),
(968,1198,o),
(680,1198,cs),
(386,1198,o),
(180,1016,o),
(132,718,cs),
(126,672,l),
(344,646,l),
(342,634,l),
(234,602,o),
(174,522,o),
(150,380,cs),
(120,196,ls),
(100,76,o),
(176,-14,o),
(296,-14,cs)
);
},
{
closed = 1;
nodes = (
(270,92,o),
(244,122,o),
(244,168,cs),
(244,234,o),
(290,290,o),
(344,290,cs),
(384,290,o),
(408,260,o),
(408,214,cs),
(408,148,o),
(364,92,o),
(310,92,cs)
);
},
{
closed = 1;
nodes = (
(1622,-14,o),
(1728,94,o),
(1728,242,cs),
(1728,352,o),
(1646,430,o),
(1534,430,cs),
(1390,430,o),
(1276,316,o),
(1276,172,cs),
(1276,62,o),
(1358,-14,o),
(1476,-14,cs)
);
},
{
closed = 1;
nodes = (
(1438,104,o),
(1410,140,o),
(1410,190,cs),
(1410,264,o),
(1460,324,o),
(1518,324,cs),
(1560,324,o),
(1588,290,o),
(1588,240,cs),
(1588,166,o),
(1538,104,o),
(1480,104,cs)
);
}
);
width = 1858;
},
{
anchors = (
{
name = bottom;
pos = (1740,0);
},
{
name = top;
pos = (1918,1174);
}
);
layerId = "D0EC06BF-13F9-4C88-A6F5-B8203AF6C77E";
shapes = (
{
closed = 1;
nodes = (
(464,-18,o),
(578,94,o),
(578,248,cs),
(578,362,o),
(496,438,o),
(374,438,cs),
(300,438,o),
(226,406,o),
(198,360,c),
(444,360,l),
(462,456,ls),
(472,508,o),
(502,534,o),
(550,534,cs),
(624,534,l),
(660,752,l),
(408,752,l),
(474,682,l),
(482,728,ls),
(498,834,o),
(572,892,o),
(690,892,cs),
(808,892,o),
(868,834,o),
(850,728,cs),
(730,0,l),
(1126,0,l),
(1128,24,ls),
(1142,130,o),
(1254,206,o),
(1420,226,c),
(1434,322,l),
(1794,414,l),
(1918,1174,l),
(1522,1174,l),
(1390,360,l),
(1458,466,l),
(1290,454,o),
(1160,404,o),
(1124,334,c),
(1174,296,l),
(1250,756,ls),
(1296,1024,o),
(1094,1198,o),
(734,1198,cs),
(390,1198,o),
(144,1014,o),
(94,722,cs),
(78,636,l),
(282,636,l),
(280,624,l),
(164,592,o),
(96,518,o),
(78,400,cs),
(50,238,ls),
(26,88,o),
(130,-18,o),
(300,-18,cs)
);
},
{
closed = 1;
nodes = (
(292,140,o),
(274,162,o),
(274,196,cs),
(274,246,o),
(304,290,o),
(344,290,cs),
(370,290,o),
(390,266,o),
(390,232,cs),
(390,182,o),
(358,140,o),
(320,140,cs)
);
},
{
closed = 1;
nodes = (
(1732,-18,o),
(1868,110,o),
(1868,274,cs),
(1868,408,o),
(1772,498,o),
(1626,498,cs),
(1450,498,o),
(1310,368,o),
(1310,206,cs),
(1310,72,o),
(1412,-18,o),
(1560,-18,cs)
);
},
{
closed = 1;
nodes = (
(1538,162,o),
(1518,188,o),
(1518,226,cs),
(1518,282,o),
(1554,328,o),
(1594,328,cs),
(1624,328,o),
(1646,302,o),
(1646,264,cs),
(1646,210,o),
(1610,162,o),
(1570,162,cs)
);
}
);
width = 1964;
}
);
metricLeft = "thoThung-thai";
metricRight = "noNu-thai";
unicode = 3603;
}
{
glyphname = "doDek-thai";
kernLeft = "khoKhwai-thai";
kernRight = "khoKhwai-thai";
layers = (
{
anchors = (
{
name = bottom;
pos = (968,0);
},
{
name = top;
pos = (1148,1174);
}
);
layerId = "200BE2C5-40F6-4CF4-AF4F-A33C0CC0964F";
shapes = (
{
closed = 1;
nodes = (
(146,0,l),
(404,102,o),
(768,388,o),
(768,626,cs),
(768,706,o),
(716,764,o),
(644,764,cs),
(546,764,o),
(478,682,o),
(478,566,cs),
(478,482,o),
(526,426,o),
(596,426,cs),
(634,426,o),
(658,442,o),
(696,482,c),
(678,474,l),
(562,298,o),
(358,134,o),
(134,40,c),
(150,24,l),
(270,748,ls),
(312,994,o),
(484,1146,o),
(722,1146,cs),
(958,1146,o),
(1086,990,o),
(1046,748,cs),
(922,0,l),
(968,0,l),
(1092,748,ls),
(1136,1018,o),
(992,1192,o),
(722,1192,cs),
(458,1192,o),
(270,1024,o),
(224,748,cs),
(100,0,l)
);
},
{
closed = 1;
nodes = (
(556,470,o),
(522,512,o),
(522,568,cs),
(522,656,o),
(572,720,o),
(642,720,cs),
(688,720,o),
(724,680,o),
(724,624,cs),
(724,534,o),
(672,470,o),
(602,470,cs)
);
}
);
width = 1254;
},
{
anchors = (
{
name = bottom;
pos = (1046,0);
},
{
name = top;
pos = (1224,1174);
}
);
layerId = "11F4534A-B963-4AB5-820F-DAF9A20CD933";
shapes = (
{
closed = 1;
nodes = (
(238,0,l),
(550,72,o),
(832,336,o),
(834,638,cs),
(834,732,o),
(764,794,o),
(664,794,cs),
(542,794,o),
(450,698,o),
(450,572,cs),
(450,476,o),
(512,414,o),
(608,414,cs),
(674,414,o),
(736,442,o),
(776,492,c),
(658,492,l),
(598,312,o),
(432,178,o),
(198,122,c),
(250,62,l),
(364,750,ls),
(394,928,o),
(534,1042,o),
(728,1042,cs),
(922,1042,o),
(1030,928,o),
(1000,750,cs),
(876,0,l),
(1046,0,l),
(1170,760,ls),
(1212,1018,o),
(1036,1198,o),
(734,1198,cs),
(444,1198,o),
(244,1036,o),
(200,768,cs),
(72,0,l)
);
},
{
closed = 1;
nodes = (
(582,506,o),
(560,534,o),
(560,578,cs),
(560,640,o),
(602,690,o),
(654,690,cs),
(690,690,o),
(716,662,o),
(716,620,cs),
(716,558,o),
(672,506,o),
(622,506,cs)
);
}
);
width = 1304;
},
{
anchors = (
{
name = bottom;
pos = (1194,0);
},
{
name = top;
pos = (1374,1174);
}
);
layerId = "D0EC06BF-13F9-4C88-A6F5-B8203AF6C77E";
shapes = (
{
closed = 1;
nodes = (
(322,0,l),
(588,90,o),
(882,332,o),
(882,578,cs),
(882,698,o),
(802,774,o),
(676,774,cs),
(524,774,o),
(404,656,o),
(404,510,cs),
(404,404,o),
(466,340,o),
(570,340,cs),
(638,340,o),
(698,366,o),
(738,414,c),
(574,430,l),
(516,306,o),
(426,224,o),
(312,190,c),
(360,144,l),
(450,690,ls),
(472,820,o),
(578,898,o),
(732,898,cs),
(882,898,o),
(958,822,o),
(936,690,cs),
(822,0,l),
(1196,0,l),
(1310,696,ls),
(1362,1006,o),
(1154,1198,o),
(768,1198,cs),
(416,1198,o),
(170,1010,o),
(120,702,cs),
(4,0,l)
);
},
{
closed = 1;
nodes = (
(584,482,o),
(568,504,o),
(568,536,cs),
(568,584,o),
(600,626,o),
(636,626,cs),
(662,626,o),
(678,604,o),
(678,572,cs),
(678,524,o),
(648,482,o),
(610,482,cs)
);
}
);
width = 1385;
},
{
anchors = (
{
name = bottom;
pos = (1136,0);
},
{
name = top;
pos = (1314,1174);
}
);
associatedMasterId = "D0EC06BF-13F9-4C88-A6F5-B8203AF6C77E";
attr = {
coordinates = (
700
);
};
background = {
shapes = (
{
closed = 1;
nodes = (
(322,0,l),
(562,82,o),
(784,256,o),
(858,456,cs),
(874,496,o),
(882,536,o),
(882,578,cs),
(882,708,o),
(792,774,o),
(676,774,cs),
(518,774,o),
(404,650,o),
(404,508,cs),
(404,406,o),
(464,340,o),
(570,340,cs),
(638,340,o),
(698,366,o),
(738,414,c),
(574,430,l),
(520,316,o),
(434,226,o),
(310,188,c),
(360,144,l),
(450,688,ls),
(472,824,o),
(580,898,o),
(730,898,cs),
(872,898,o),
(960,828,o),
(936,688,cs),
(822,0,l),
(1194,0,l),
(1310,694,ls),
(1364,1024,o),
(1132,1198,o),
(768,1198,cs),
(416,1198,o),
(170,1010,o),
(120,702,cs),
(4,0,l)
);
},
{
closed = 1;
nodes = (
(584,482,o),
(566,504,o),
(566,536,cs),
(566,578,o),
(594,624,o),
(634,624,cs),
(660,624,o),
(678,604,o),
(678,572,cs),
(678,522,o),
(646,482,o),
(610,482,cs)
);
}
);
};
layerId = "C34258B9-502F-4FBA-B04D-6FD96A33CAE5";
name = "Bold{700,-10}";
shapes = (
{
closed = 1;
nodes = (
(288,0,l),
(572,82,o),
(864,336,o),
(864,602,cs),
(864,720,o),
(778,782,o),
(672,782,cs),
(526,782,o),
(422,666,o),
(422,534,cs),
(422,434,o),
(484,370,o),
(586,370,cs),
(654,370,o),
(712,398,o),
(752,446,c),
(608,456,l),
(554,320,o),
(440,208,o),
(266,162,c),
(316,110,l),
(416,714,ls),
(440,866,o),
(562,956,o),
(730,956,cs),
(890,956,o),
(986,870,o),
(960,714,cs),
(844,0,l),
(1136,0,l),
(1254,722,ls),
(1304,1026,o),
(1088,1198,o),
(754,1198,cs),
(424,1198,o),
(200,1016,o),
(152,728,cs),
(32,0,l)
);
},
{
closed = 1;
nodes = (
(584,492,o),
(564,516,o),
(564,554,cs),
(564,604,o),
(598,652,o),
(642,652,cs),
(672,652,o),
(694,626,o),
(694,590,cs),
(694,534,o),
(658,492,o),
(616,492,cs)
);
}
);
width = 1353;
},
{
anchors = (
{
name = bottom;
pos = (1166,0);
},
{
name = top;
pos = (1344,1174);
}
);
associatedMasterId = "D0EC06BF-13F9-4C88-A6F5-B8203AF6C77E";
attr = {
coordinates = (
800
);
};
background = {
shapes = (
{
closed = 1;
nodes = (
(322,0,l),
(562,82,o),
(784,256,o),
(858,456,cs),
(874,496,o),
(882,536,o),
(882,578,cs),
(882,708,o),
(792,774,o),
(676,774,cs),
(518,774,o),
(404,650,o),
(404,508,cs),
(404,406,o),
(464,340,o),
(570,340,cs),
(638,340,o),
(698,366,o),
(738,414,c),
(574,430,l),
(520,316,o),
(434,226,o),
(310,188,c),
(360,144,l),
(450,688,ls),
(472,824,o),
(580,898,o),
(730,898,cs),
(872,898,o),
(960,828,o),
(936,688,cs),
(822,0,l),
(1194,0,l),
(1310,694,ls),
(1364,1024,o),
(1132,1198,o),
(768,1198,cs),
(416,1198,o),
(170,1010,o),
(120,702,cs),
(4,0,l)
);
},
{
closed = 1;
nodes = (
(584,482,o),
(566,504,o),
(566,536,cs),
(566,578,o),
(594,624,o),
(634,624,cs),
(660,624,o),
(678,604,o),
(678,572,cs),
(678,522,o),
(646,482,o),
(610,482,cs)
);
}
);
};
layerId = "195CD1B5-2474-4499-AF69-8B4F1546E6AB";
name = "ExtraBold{800,-10}";
shapes = (
{
closed = 1;
nodes = (
(304,0,l),
(584,88,o),
(894,332,o),
(894,590,cs),
(894,714,o),
(806,778,o),
(696,778,cs),
(544,778,o),
(434,658,o),
(434,522,cs),
(434,420,o),
(494,354,o),
(600,354,cs),
(666,354,o),
(726,382,o),
(766,430,c),
(612,444,l),
(558,318,o),
(438,218,o),
(288,176,c),
(338,128,l),
(432,702,ls),
(456,846,o),
(572,928,o),
(730,928,cs),
(882,928,o),
(972,850,o),
(948,702,cs),
(832,0,l),
(1166,0,l),
(1282,708,ls),
(1334,1026,o),
(1110,1198,o),
(762,1198,cs),
(420,1198,o),
(186,1014,o),
(136,716,cs),
(18,0,l)
);
},
{
closed = 1;
nodes = (
(604,488,o),
(586,512,o),
(586,546,cs),
(586,592,o),
(618,638,o),
(660,638,cs),
(686,638,o),
(706,616,o),
(706,582,cs),
(706,528,o),
(672,488,o),
(634,488,cs)
);
}
);
width = 1369;
}
);
metricRight = "=|";
unicode = 3604;
}
{
glyphname = "toTao-thai";
kernLeft = "khoKhon-thai";
kernRight = "khoKhon-thai";
layers = (
{
anchors = (
{
name = bottom;
pos = (986,0);
},
{
name = top;
pos = (1166,1174);
}
);
layerId = "200BE2C5-40F6-4CF4-AF4F-A33C0CC0964F";
shapes = (
{
closed = 1;
nodes = (
(152,0,l),
(416,104,o),
(772,378,o),
(772,618,cs),
(772,698,o),
(720,756,o),
(648,756,cs),
(550,756,o),
(482,674,o),
(482,558,cs),
(482,474,o),
(530,418,o),
(600,418,cs),
(638,418,o),
(664,434,o),
(702,474,c),
(682,466,l),
(570,294,o),
(370,136,o),
(138,40,c),
(154,24,l),
(296,882,ls),
(320,1030,o),
(392,1114,o),
(514,1138,c),
(696,978,l),
(718,978,l),
(956,1138,l),
(1070,1114,o),
(1110,1030,o),
(1086,882,cs),
(942,0,l),
(988,0,l),
(1134,882,ls),
(1162,1054,o),
(1102,1154,o),
(952,1188,c),
(712,1024,l),
(706,1024,l),
(520,1188,l),
(364,1154,o),
(280,1058,o),
(250,882,cs),
(104,0,l)
);
},
{
closed = 1;
nodes = (
(560,462,o),
(526,504,o),
(526,560,cs),
(526,648,o),
(578,712,o),
(648,712,cs),
(694,712,o),
(728,672,o),
(728,616,cs),
(728,526,o),
(676,462,o),
(606,462,cs)
);
}
);
width = 1278;
},
{
anchors = (
{
name = bottom;
pos = (1066,0);
},
{
name = top;
pos = (1246,1174);
}
);
layerId = "11F4534A-B963-4AB5-820F-DAF9A20CD933";
shapes = (
{
closed = 1;
nodes = (
(240,0,l),
(558,70,o),
(840,322,o),
(840,626,cs),
(840,720,o),
(772,782,o),
(670,782,cs),
(548,782,o),
(454,686,o),
(454,560,cs),
(454,464,o),
(516,402,o),
(612,402,cs),
(680,402,o),
(740,430,o),
(780,480,c),
(664,480,l),
(606,306,o),
(436,176,o),
(200,122,c),
(254,62,l),
(378,822,ls),
(396,934,o),
(458,1002,o),
(552,1018,c),
(696,898,l),
(744,898,l),
(928,1018,l),
(1014,1004,o),
(1050,934,o),
(1032,822,cs),
(898,0,l),
(1068,0,l),
(1200,804,ls),
(1234,1018,o),
(1150,1154,o),
(958,1188,c),
(742,1042,l),
(730,1042,l),
(562,1188,l),
(368,1170,o),
(246,1038,o),
(208,804,cs),
(76,0,l)
);
},
{
closed = 1;
nodes = (
(588,494,o),
(564,524,o),
(564,568,cs),
(564,630,o),
(608,680,o),
(658,680,cs),
(696,680,o),
(720,650,o),
(720,608,cs),
(720,546,o),
(678,494,o),
(626,494,cs)
);
}
);
width = 1328;
},
{
anchors = (
{
name = bottom;
pos = (1200,0);
},
{
name = top;
pos = (1378,1174);
}
);
layerId = "D0EC06BF-13F9-4C88-A6F5-B8203AF6C77E";
shapes = (
{
closed = 1;
nodes = (
(326,0,l),
(586,86,o),
(884,322,o),
(884,558,cs),
(884,682,o),
(808,752,o),
(678,752,cs),
(528,752,o),
(406,634,o),
(406,488,cs),
(406,382,o),
(470,318,o),
(574,318,cs),
(642,318,o),
(700,344,o),
(740,392,c),
(576,408,l),
(522,292,o),
(440,224,o),
(316,190,c),
(364,144,l),
(464,744,ls),
(476,816,o),
(520,862,o),
(586,872,c),
(696,792,l),
(738,792,l),
(874,872,l),
(932,862,o),
(962,816,o),
(950,744,cs),
(826,0,l),
(1200,0,l),
(1322,736,ls),
(1366,1000,o),
(1240,1170,o),
(984,1192,c),
(768,1064,l),
(756,1064,l),
(584,1192,l),
(336,1170,o),
(176,1008,o),
(130,736,cs),
(8,0,l)
);
},
{
closed = 1;
nodes = (
(586,462,o),
(568,482,o),
(568,514,cs),
(568,562,o),
(602,604,o),
(638,604,cs),
(664,604,o),
(680,582,o),
(680,550,cs),
(680,502,o),
(650,462,o),
(614,462,cs)
);
}
);
width = 1394;
},
{
anchors = (
{
name = bottom;
pos = (1146,0);
},
{
name = top;
pos = (1326,1174);
}
);
associatedMasterId = "D0EC06BF-13F9-4C88-A6F5-B8203AF6C77E";
attr = {
coordinates = (
700
);
};
background = {
shapes = (
{
closed = 1;
nodes = (
(326,0,l),
(566,74,o),
(790,230,o),
(860,416,cs),
(874,454,o),
(882,494,o),
(882,534,cs),
(882,680,o),
(790,730,o),
(674,730,cs),
(516,730,o),
(402,606,o),
(402,464,cs),
(402,362,o),
(464,296,o),
(570,296,cs),
(638,296,o),
(696,322,o),
(736,370,c),
(574,386,l),
(520,272,o),
(438,220,o),
(314,188,c),
(364,144,l),
(464,742,ls),
(476,816,o),
(522,862,o),
(586,872,c),
(696,792,l),
(738,792,l),
(874,872,l),
(930,864,o),
(962,816,o),
(950,742,cs),
(826,0,l),
(1200,0,l),
(1322,736,ls),
(1364,990,o),
(1248,1168,o),
(982,1192,c),
(768,1064,l),
(756,1064,l),
(584,1192,l),
(320,1168,o),
(172,990,o),
(130,736,cs),
(8,0,l)
);
},
{
closed = 1;
nodes = (
(584,438,o),
(566,462,o),
(566,494,cs),
(566,536,o),
(594,582,o),
(634,582,cs),
(660,582,o),
(678,560,o),
(678,528,cs),
(678,478,o),
(646,438,o),
(610,438,cs)
);
}
);
};
layerId = "441A8557-A272-4F48-9E8B-00C7FAE25F3B";
name = "Bold{700,-10}";
shapes = (
{
closed = 1;
nodes = (
(292,0,l),
(578,80,o),
(866,320,o),
(866,584,cs),
(866,706,o),
(782,764,o),
(674,764,cs),
(528,764,o),
(424,648,o),
(424,516,cs),
(424,416,o),
(488,352,o),
(590,352,cs),
(658,352,o),
(716,380,o),
(756,428,c),
(610,438,l),
(556,304,o),
(446,206,o),
(270,162,c),
(320,110,l),
(430,774,ls),
(444,864,o),
(498,918,o),
(574,930,c),
(696,834,l),
(740,834,l),
(896,930,l),
(964,920,o),
(998,864,o),
(984,774,cs),
(854,0,l),
(1146,0,l),
(1274,764,ls),
(1314,1002,o),
(1208,1162,o),
(974,1190,c),
(758,1056,l),
(746,1056,l),
(576,1190,l),
(332,1168,o),
(202,1002,o),
(162,764,cs),
(36,0,l)
);
},
{
closed = 1;
nodes = (
(586,474,o),
(568,498,o),
(568,536,cs),
(568,586,o),
(604,634,o),
(646,634,cs),
(678,634,o),
(696,610,o),
(696,574,cs),
(696,518,o),
(658,474,o),
(618,474,cs)
);
}
);
width = 1368;
},
{
anchors = (
{
name = bottom;
pos = (1174,0);
},
{
name = top;
pos = (1352,1174);
}
);
associatedMasterId = "D0EC06BF-13F9-4C88-A6F5-B8203AF6C77E";
attr = {
coordinates = (
800
);
};
background = {
shapes = (
{
closed = 1;
nodes = (
(326,0,l),
(566,74,o),
(790,230,o),
(860,416,cs),
(874,454,o),
(882,494,o),
(882,534,cs),
(882,680,o),
(790,730,o),
(674,730,cs),
(516,730,o),
(402,606,o),
(402,464,cs),
(402,362,o),
(464,296,o),
(570,296,cs),
(638,296,o),
(696,322,o),
(736,370,c),
(574,386,l),
(520,272,o),
(438,220,o),
(314,188,c),
(364,144,l),
(464,742,ls),
(476,816,o),
(522,862,o),
(586,872,c),
(696,792,l),
(738,792,l),
(874,872,l),
(930,864,o),
(962,816,o),
(950,742,cs),
(826,0,l),
(1200,0,l),
(1322,736,ls),
(1364,990,o),
(1248,1168,o),
(982,1192,c),
(768,1064,l),
(756,1064,l),
(584,1192,l),
(320,1168,o),
(172,990,o),
(130,736,cs),
(8,0,l)
);
},
{
closed = 1;
nodes = (
(584,438,o),
(566,462,o),
(566,494,cs),
(566,536,o),
(594,582,o),
(634,582,cs),
(660,582,o),
(678,560,o),
(678,528,cs),
(678,478,o),
(646,438,o),
(610,438,cs)
);
}
);
};
layerId = "CAAF4BEC-A21D-4E57-B755-A82229CF12EA";
name = "ExtraBold{800,-10}";
shapes = (
{
closed = 1;
nodes = (
(310,0,l),
(588,86,o),
(896,320,o),
(896,572,cs),
(896,700,o),
(808,760,o),
(696,760,cs),
(544,760,o),
(436,638,o),
(436,502,cs),
(436,400,o),
(496,336,o),
(602,336,cs),
(668,336,o),
(730,362,o),
(770,410,c),
(614,424,l),
(560,300,o),
(444,214,o),
(294,176,c),
(342,128,l),
(448,760,ls),
(462,842,o),
(510,892,o),
(580,902,c),
(696,814,l),
(738,814,l),
(886,902,l),
(948,892,o),
(980,842,o),
(966,760,cs),
(840,0,l),
(1174,0,l),
(1298,750,ls),
(1338,996,o),
(1228,1164,o),
(978,1190,c),
(762,1060,l),
(752,1060,l),
(580,1190,l),
(326,1168,o),
(186,996,o),
(146,750,cs),
(22,0,l)
);
},
{
closed = 1;
nodes = (
(608,468,o),
(590,490,o),
(590,526,cs),
(590,572,o),
(620,620,o),
(662,620,cs),
(690,620,o),
(710,596,o),
(710,562,cs),
(710,508,o),
(676,468,o),
(638,468,cs)
);
}
);
width = 1381;
}
);
metricRight = "=|";
unicode = 3605;
}
{
glyphname = "thoThahan-thai";
kernLeft = "boBaimai-thai";
kernRight = "thoThahan-thai";
layers = (
{
anchors = (
{
name = bottom;
pos = (954,0);
},
{
name = top;
pos = (1148,1174);
}
);
layerId = "200BE2C5-40F6-4CF4-AF4F-A33C0CC0964F";
shapes = (
{
closed = 1;
nodes = (
(274,0,l),
(300,148,ls),
(326,304,o),
(400,456,o),
(604,770,cs),
(788,1052,o),
(882,1144,o),
(984,1144,cs),
(1056,1144,o),
(1088,1096,o),
(1074,1014,cs),
(908,0,l),
(954,0,l),
(1122,1014,ls),
(1140,1122,o),
(1086,1188,o),
(984,1188,cs),
(858,1188,o),
(760,1096,o),
(562,792,cs),
(450,618,o),
(402,530,o),
(350,416,c),
(344,416,l),
(442,1010,ls),
(458,1114,o),
(404,1188,o),
(312,1188,cs),
(210,1188,o),
(138,1102,o),
(138,980,cs),
(138,892,o),
(188,834,o),
(262,834,cs),
(320,834,o),
(366,866,o),
(394,924,c),
(382,924,l),
(228,0,l)
);
},
{
closed = 1;
nodes = (
(218,878,o),
(182,920,o),
(182,982,cs),
(182,1076,o),
(238,1144,o),
(312,1144,cs),
(362,1144,o),
(398,1102,o),
(398,1042,cs),
(398,946,o),
(342,878,o),
(266,878,cs)
);
}
);
width = 1248;
},
{
anchors = (
{
name = bottom;
pos = (1048,0);
},
{
name = top;
pos = (1240,1174);
}
);
layerId = "11F4534A-B963-4AB5-820F-DAF9A20CD933";
shapes = (
{
closed = 1;
nodes = (
(382,0,l),
(408,148,ls),
(432,294,o),
(502,432,o),
(718,766,cs),
(854,974,o),
(910,1032,o),
(976,1032,cs),
(1022,1032,o),
(1040,1000,o),
(1030,942,cs),
(876,0,l),
(1048,0,l),
(1204,956,ls),
(1228,1100,o),
(1158,1188,o),
(1022,1188,cs),
(888,1188,o),
(788,1108,o),
(648,888,cs),
(604,822,o),
(556,738,o),
(490,606,c),
(478,606,l),
(538,968,ls),
(558,1094,o),
(480,1188,o),
(354,1188,cs),
(220,1188,o),
(116,1082,o),
(116,944,cs),
(116,832,o),
(186,760,o),
(292,760,cs),
(368,760,o),
(438,794,o),
(478,850,c),
(350,850,l),
(210,0,l)
);
},
{
closed = 1;
nodes = (
(266,868,o),
(238,900,o),
(238,950,cs),
(238,1020,o),
(286,1078,o),
(342,1078,cs),
(382,1078,o),
(410,1044,o),
(410,996,cs),
(410,926,o),
(364,868,o),
(308,868,cs)
);
}
);
width = 1310;
},
{
anchors = (
{
name = bottom;
pos = (1152,0);
},
{
name = top;
pos = (1346,1174);
}
);
layerId = "D0EC06BF-13F9-4C88-A6F5-B8203AF6C77E";
shapes = (
{
closed = 1;
nodes = (
(476,0,l),
(530,338,ls),
(548,450,o),
(578,514,o),
(668,662,cs),
(746,788,o),
(794,840,o),
(840,840,cs),
(870,840,o),
(884,818,o),
(878,782,cs),
(750,0,l),
(1152,0,l),
(1302,906,ls),
(1330,1080,o),
(1230,1188,o),
(1038,1188,cs),
(896,1188,o),
(790,1134,o),
(690,1006,cs),
(668,978,o),
(652,952,o),
(636,926,c),
(624,926,l),
(626,932,ls),
(654,1076,o),
(542,1192,o),
(374,1192,cs),
(206,1192,o),
(92,1082,o),
(92,922,cs),
(92,790,o),
(180,698,o),
(304,698,cs),
(376,698,o),
(442,732,o),
(474,782,c),
(216,782,l),
(88,0,l)
);
},
{
closed = 1;
nodes = (
(298,862,o),
(280,886,o),
(280,924,cs),
(280,976,o),
(314,1020,o),
(354,1020,cs),
(382,1020,o),
(402,996,o),
(402,962,cs),
(402,908,o),
(368,862,o),
(328,862,cs)
);
}
);
width = 1346;
}
);
metricLeft = "noNu-thai";
unicode = 3607;
}
{
glyphname = "thoThong-thai";
layers = (
{
anchors = (
{
name = bottom;
pos = (822,0);
},
{
name = top;
pos = (1044,1174);
}
);
layerId = "200BE2C5-40F6-4CF4-AF4F-A33C0CC0964F";
shapes = (
{
closed = 1;
nodes = (
(740,-14,o),
(846,70,o),
(886,304,cs),
(936,600,ls),
(962,756,o),
(880,844,o),
(710,844,cs),
(212,844,l),
(238,814,l),
(248,880,ls),
(278,1054,o),
(378,1144,o),
(542,1144,cs),
(646,1144,o),
(778,1108,o),
(904,1108,cs),
(954,1108,o),
(1002,1114,o),
(1052,1130,c),
(1050,1176,l),
(1000,1160,o),
(954,1154,o),
(908,1154,cs),
(782,1154,o),
(660,1188,o),
(540,1188,cs),
(346,1188,o),
(234,1078,o),
(202,880,cs),
(190,798,l),
(702,798,ls),
(842,798,o),
(910,728,o),
(888,600,cs),
(840,304,ls),
(806,102,o),
(712,30,o),
(482,30,cs),
(252,30,o),
(182,102,o),
(216,304,cs),
(280,682,l),
(232,682,l),
(170,304,ls),
(132,70,o),
(224,-14,o),
(482,-14,cs)
);
}
);
width = 1112;
},
{
anchors = (
{
name = bottom;
pos = (888,0);
},
{
name = top;
pos = (1126,1174);
}
);
layerId = "11F4534A-B963-4AB5-820F-DAF9A20CD933";
shapes = (
{
closed = 1;
nodes = (
(800,-14,o),
(916,68,o),
(954,306,cs),
(996,568,ls),
(1024,744,o),
(922,840,o),
(708,840,cs),
(270,840,l),
(336,792,l),
(346,852,ls),
(366,972,o),
(438,1038,o),
(552,1038,cs),
(658,1038,o),
(786,1008,o),
(926,1008,cs),
(1008,1008,o),
(1064,1020,o),
(1118,1040,c),
(1114,1180,l),
(1066,1164,o),
(1020,1156,o),
(956,1156,cs),
(818,1156,o),
(698,1188,o),
(570,1188,cs),
(310,1188,o),
(204,1050,o),
(166,830,cs),
(144,700,l),
(686,700,ls),
(796,700,o),
(838,650,o),
(822,548,cs),
(784,322,ls),
(760,178,o),
(698,136,o),
(512,136,cs),
(336,136,o),
(290,178,o),
(314,322,cs),
(354,554,l),
(182,554,l),
(142,306,ls),
(102,68,o),
(202,-14,o),
(504,-14,cs)
);
}
);
width = 1154;
},
{
anchors = (
{
name = bottom;
pos = (1040,0);
},
{
name = top;
pos = (1234,1174);
}
);
layerId = "D0EC06BF-13F9-4C88-A6F5-B8203AF6C77E";
shapes = (
{
closed = 1;
nodes = (
(918,-18,o),
(1068,78,o),
(1112,344,cs),
(1128,450,ls),
(1166,682,o),
(1058,778,o),
(760,778,cs),
(410,778,l),
(478,728,l),
(488,802,ls),
(498,872,o),
(548,900,o),
(654,900,cs),
(766,900,o),
(924,868,o),
(1048,868,cs),
(1108,868,o),
(1166,876,o),
(1216,892,c),
(1264,1182,l),
(1208,1166,o),
(1148,1160,o),
(1080,1160,cs),
(942,1160,o),
(766,1192,o),
(622,1192,cs),
(326,1192,o),
(156,1040,o),
(110,766,cs),
(78,574,l),
(570,574,ls),
(706,574,o),
(748,538,o),
(730,434,cs),
(718,366,ls),
(706,294,o),
(668,266,o),
(574,266,cs),
(484,266,o),
(454,294,o),
(466,366,cs),
(490,502,l),
(94,502,l),
(68,344,ls),
(24,78,o),
(148,-18,o),
(548,-18,cs)
);
}
);
width = 1234;
}
);
unicode = 3608;
}
{
glyphname = "noNu-thai";
kernLeft = "boBaimai-thai";
kernRight = "noNu-thai";
layers = (
{
anchors = (
{
name = bottom;
pos = (930,0);
},
{
name = top;
pos = (1108,1174);
}
);
layerId = "200BE2C5-40F6-4CF4-AF4F-A33C0CC0964F";
shapes = (
{
closed = 1;
nodes = (
(274,0,l),
(286,62,ls),
(308,190,o),
(526,286,o),
(872,318,c),
(874,326,l),
(970,338,l),
(1108,1174,l),
(1062,1174,l),
(924,338,l),
(942,362,l),
(582,340,o),
(330,252,o),
(276,132,c),
(296,132,l),
(442,1010,ls),
(458,1112,o),
(404,1188,o),
(312,1188,cs),
(210,1188,o),
(138,1102,o),
(138,980,cs),
(138,892,o),
(188,834,o),
(262,834,cs),
(320,834,o),
(366,866,o),
(394,924,c),
(382,924,l),
(228,0,l)
);
},
{
closed = 1;
nodes = (
(218,878,o),
(182,920,o),
(182,982,cs),
(182,1076,o),
(238,1144,o),
(312,1144,cs),
(362,1144,o),
(398,1102,o),
(398,1042,cs),
(398,946,o),
(342,878,o),
(266,878,cs)
);
},
{
closed = 1;
nodes = (
(992,-14,o),
(1068,76,o),
(1068,206,cs),
(1068,292,o),
(1012,354,o),
(934,354,cs),
(828,354,o),
(752,264,o),
(752,140,cs),
(752,50,o),
(806,-14,o),
(884,-14,cs)
);
},
{
closed = 1;
nodes = (
(834,30,o),
(796,76,o),
(796,142,cs),
(796,240,o),
(852,312,o),
(932,312,cs),
(984,312,o),
(1024,268,o),
(1024,206,cs),
(1024,104,o),
(966,30,o),
(886,30,cs)
);
}
);
width = 1238;
},
{
anchors = (
{
name = bottom;
pos = (1016,0);
},
{
name = top;
pos = (1198,1174);
}
);
layerId = "11F4534A-B963-4AB5-820F-DAF9A20CD933";
shapes = (
{
closed = 1;
nodes = (
(382,0,l),
(392,62,ls),
(416,206,o),
(618,306,o),
(916,324,c),
(920,356,l),
(1066,384,l),
(1198,1174,l),
(1026,1174,l),
(896,386,l),
(946,452,l),
(660,436,o),
(460,360,o),
(398,246,c),
(418,230,l),
(542,968,ls),
(564,1094,o),
(480,1188,o),
(352,1188,cs),
(218,1188,o),
(116,1082,o),
(116,944,cs),
(116,834,o),
(186,760,o),
(290,760,cs),
(366,760,o),
(438,794,o),
(478,850,c),
(350,850,l),
(210,0,l)
);
},
{
closed = 1;
nodes = (
(266,868,o),
(238,902,o),
(238,950,cs),
(238,1020,o),
(284,1078,o),
(340,1078,cs),
(382,1078,o),
(410,1044,o),
(410,996,cs),
(410,926,o),
(364,868,o),
(308,868,cs)
);
},
{
closed = 1;
nodes = (
(1074,-14,o),
(1180,94,o),
(1180,242,cs),
(1180,352,o),
(1098,430,o),
(986,430,cs),
(842,430,o),
(728,316,o),
(728,172,cs),
(728,62,o),
(810,-14,o),
(928,-14,cs)
);
},
{
closed = 1;
nodes = (
(890,104,o),
(862,140,o),
(862,190,cs),
(862,264,o),
(910,324,o),
(968,324,cs),
(1010,324,o),
(1040,290,o),
(1040,240,cs),
(1040,166,o),
(990,104,o),
(932,104,cs)
);
}
);
width = 1310;
},
{
anchors = (
{
name = bottom;
pos = (1128,0);
},
{
name = top;
pos = (1308,1174);
}
);
layerId = "D0EC06BF-13F9-4C88-A6F5-B8203AF6C77E";
shapes = (
{
closed = 1;
nodes = (
(478,0,l),
(482,24,ls),
(496,130,o),
(618,206,o),
(802,226,c),
(816,322,l),
(1182,414,l),
(1308,1174,l),
(904,1174,l),
(770,360,l),
(840,466,l),
(654,454,o),
(514,402,o),
(478,334,c),
(526,296,l),
(632,926,ls),
(656,1076,o),
(544,1192,o),
(376,1192,cs),
(206,1192,o),
(92,1082,o),
(92,922,cs),
(92,790,o),
(180,698,o),
(304,698,cs),
(376,698,o),
(442,732,o),
(474,782,c),
(216,782,l),
(88,0,l)
);
},
{
closed = 1;
nodes = (
(298,862,o),
(280,886,o),
(280,924,cs),
(280,976,o),
(314,1020,o),
(354,1020,cs),
(382,1020,o),
(402,996,o),
(402,962,cs),
(402,908,o),
(368,862,o),
(328,862,cs)
);
},
{
closed = 1;
nodes = (
(1120,-18,o),
(1256,110,o),
(1256,274,cs),
(1256,408,o),
(1162,498,o),
(1016,498,cs),
(840,498,o),
(700,368,o),
(700,206,cs),
(700,72,o),
(800,-18,o),
(948,-18,cs)
);
},
{
closed = 1;
nodes = (
(926,162,o),
(908,188,o),
(908,226,cs),
(908,282,o),
(944,328,o),
(984,328,cs),
(1014,328,o),
(1034,302,o),
(1034,264,cs),
(1034,210,o),
(998,162,o),
(958,162,cs)
);
}
);
width = 1352;
}
);
unicode = 3609;
}
{
glyphname = "boBaimai-thai";
kernLeft = "boBaimai-thai";
kernRight = "boBaimai-thai";
layers = (
{
anchors = (
{
name = bottom;
pos = (954,0);
},
{
name = top;
pos = (1162,1174);
}
);
layerId = "200BE2C5-40F6-4CF4-AF4F-A33C0CC0964F";
shapes = (
{
closed = 1;
nodes = (
(870,-14,o),
(982,72,o),
(1022,318,cs),
(1162,1174,l),
(1116,1174,l),
(974,318,ls),
(940,104,o),
(840,30,o),
(600,30,cs),
(360,30,o),
(288,106,o),
(322,318,cs),
(438,1010,ls),
(454,1112,o),
(400,1188,o),
(308,1188,cs),
(206,1188,o),
(134,1102,o),
(134,980,cs),
(134,892,o),
(184,834,o),
(258,834,cs),
(316,834,o),
(362,866,o),
(390,924,c),
(376,924,l),
(276,318,ls),
(236,80,o),
(330,-14,o),
(600,-14,cs)
);
},
{
closed = 1;
nodes = (
(214,878,o),
(178,920,o),
(178,982,cs),
(178,1076,o),
(232,1144,o),
(306,1144,cs),
(356,1144,o),
(392,1102,o),
(392,1042,cs),
(392,946,o),
(338,878,o),
(262,878,cs)
);
}
);
width = 1258;
},
{
anchors = (
{
name = bottom;
pos = (1056,0);
},
{
name = top;
pos = (1250,1174);
}
);
layerId = "11F4534A-B963-4AB5-820F-DAF9A20CD933";
shapes = (
{
closed = 1;
nodes = (
(954,-14,o),
(1068,70,o),
(1112,332,cs),
(1250,1174,l),
(1080,1174,l),
(942,350,ls),
(916,186,o),
(850,136,o),
(654,136,cs),
(458,136,o),
(406,186,o),
(434,350,cs),
(536,968,ls),
(558,1094,o),
(476,1188,o),
(348,1188,cs),
(214,1188,o),
(112,1082,o),
(112,944,cs),
(112,834,o),
(182,760,o),
(286,760,cs),
(362,760,o),
(432,794,o),
(472,850,c),
(346,850,l),
(260,332,ls),
(218,82,o),
(326,-14,o),
(646,-14,cs)
);
},
{
closed = 1;
nodes = (
(262,868,o),
(234,902,o),
(234,950,cs),
(234,1020,o),
(280,1078,o),
(336,1078,cs),
(378,1078,o),
(406,1044,o),
(406,996,cs),
(406,926,o),
(360,868,o),
(304,868,cs)
);
}
);
width = 1316;
},
{
anchors = (
{
name = bottom;
pos = (1156,0);
},
{
name = top;
pos = (1364,1174);
}
);
layerId = "D0EC06BF-13F9-4C88-A6F5-B8203AF6C77E";
shapes = (
{
closed = 1;
nodes = (
(1032,-18,o),
(1186,88,o),
(1236,398,cs),
(1364,1174,l),
(962,1174,l),
(838,426,ls),
(822,324,o),
(778,288,o),
(668,288,cs),
(560,288,o),
(528,324,o),
(544,426,cs),
(626,926,ls),
(650,1076,o),
(540,1192,o),
(372,1192,cs),
(202,1192,o),
(88,1082,o),
(88,922,cs),
(88,790,o),
(176,698,o),
(300,698,cs),
(372,698,o),
(438,732,o),
(470,782,c),
(212,782,l),
(148,398,ls),
(98,100,o),
(236,-18,o),
(638,-18,cs)
);
},
{
closed = 1;
nodes = (
(294,862,o),
(276,886,o),
(276,924,cs),
(276,976,o),
(310,1020,o),
(350,1020,cs),
(378,1020,o),
(398,996,o),
(398,962,cs),
(398,908,o),
(364,862,o),
(324,862,cs)
);
}
);
width = 1362;
}
);
unicode = 3610;
}
{
glyphname = "foFa-thai";
layers = (
{
anchors = (
{
name = bottom;
pos = (974,0);
},
{
name = top;
pos = (974,1174);
}
);
layerId = "200BE2C5-40F6-4CF4-AF4F-A33C0CC0964F";
shapes = (
{
closed = 1;
nodes = (
(168,0,l),
(630,530,l),
(636,530,l),
(924,0,l),
(974,0,l),
(1232,1566,l),
(1186,1566,l),
(938,78,l),
(932,78,l),
(660,578,l),
(616,578,l),
(174,78,l),
(168,78,l),
(310,924,l),
(298,924,l),
(306,870,o),
(348,834,o),
(404,834,cs),
(508,834,o),
(580,920,o),
(580,1042,cs),
(580,1128,o),
(528,1188,o),
(454,1188,cs),
(366,1188,o),
(296,1118,o),
(278,1010,cs),
(110,0,l)
);
},
{
closed = 1;
nodes = (
(358,878,o),
(322,920,o),
(322,980,cs),
(322,1076,o),
(376,1144,o),
(452,1144,cs),
(500,1144,o),
(536,1100,o),
(536,1040,cs),
(536,946,o),
(482,878,o),
(408,878,cs)
);
}
);
width = 1266;
},
{
anchors = (
{
name = bottom;
pos = (1042,0);
},
{
name = top;
pos = (922,1174);
}
);
layerId = "11F4534A-B963-4AB5-820F-DAF9A20CD933";
shapes = (
{
closed = 1;
nodes = (
(296,0,l),
(624,384,l),
(642,384,l),
(844,0,l),
(1042,0,l),
(1302,1566,l),
(1134,1566,l),
(910,210,l),
(898,210,l),
(718,540,l),
(584,540,l),
(294,210,l),
(282,210,l),
(386,850,l),
(270,850,l),
(292,794,o),
(350,760,o),
(426,760,cs),
(560,760,o),
(666,868,o),
(666,1006,cs),
(666,1116,o),
(592,1188,o),
(482,1188,cs),
(350,1188,o),
(264,1110,o),
(240,968,cs),
(80,0,l)
);
},
{
closed = 1;
nodes = (
(398,868,o),
(370,900,o),
(370,950,cs),
(370,1020,o),
(416,1078,o),
(472,1078,cs),
(514,1078,o),
(542,1044,o),
(542,996,cs),
(542,928,o),
(496,868,o),
(440,868,cs)
);
}
);
width = 1306;
},
{
anchors = (
{
name = bottom;
pos = (1168,0);
},
{
name = top;
pos = (894,1174);
}
);
layerId = "D0EC06BF-13F9-4C88-A6F5-B8203AF6C77E";
shapes = (
{
closed = 1;
nodes = (
(412,0,l),
(626,232,l),
(638,232,l),
(774,0,l),
(1168,0,l),
(1426,1566,l),
(1046,1566,l),
(848,372,l),
(836,372,l),
(726,550,l),
(622,550,l),
(450,372,l),
(440,372,l),
(508,782,l),
(262,782,l),
(276,732,o),
(338,698,o),
(418,698,cs),
(572,698,o),
(696,824,o),
(696,978,cs),
(696,1106,o),
(602,1192,o),
(458,1192,cs),
(302,1192,o),
(190,1092,o),
(164,926,cs),
(12,0,l)
);
},
{
closed = 1;
nodes = (
(404,862,o),
(386,886,o),
(386,922,cs),
(386,974,o),
(420,1020,o),
(460,1020,cs),
(490,1020,o),
(508,996,o),
(508,960,cs),
(508,906,o),
(474,862,o),
(434,862,cs)
);
}
);
width = 1362;
}
);
metricLeft = "phoPhung-thai";
metricRight = "phoPhung-thai";
unicode = 3613;
}
{
glyphname = "foFan-thai";
kernLeft = "boBaimai-thai";
layers = (
{
anchors = (
{
name = bottom;
pos = (1120,0);
},
{
name = top;
pos = (1122,1174);
}
);
layerId = "200BE2C5-40F6-4CF4-AF4F-A33C0CC0964F";
shapes = (
{
closed = 1;
nodes = (
(288,0,l),
(856,1102,l),
(862,1102,l),
(1064,0,l),
(1120,0,l),
(1378,1566,l),
(1332,1566,l),
(1094,122,l),
(1088,122,l),
(898,1152,l),
(832,1152,l),
(302,122,l),
(296,122,l),
(442,1010,ls),
(458,1112,o),
(404,1188,o),
(312,1188,cs),
(210,1188,o),
(138,1102,o),
(138,980,cs),
(138,892,o),
(188,834,o),
(262,834,cs),
(320,834,o),
(366,866,o),
(394,924,c),
(382,924,l),
(228,0,l)
);
},
{
closed = 1;
nodes = (
(218,878,o),
(182,920,o),
(182,982,cs),
(182,1076,o),
(238,1144,o),
(312,1144,cs),
(362,1144,o),
(398,1102,o),
(398,1042,cs),
(398,946,o),
(342,878,o),
(266,878,cs)
);
}
);
width = 1412;
},
{
anchors = (
{
name = bottom;
pos = (1194,0);
},
{
name = top;
pos = (1076,1174);
}
);
layerId = "11F4534A-B963-4AB5-820F-DAF9A20CD933";
shapes = (
{
closed = 1;
nodes = (
(468,0,l),
(852,926,l),
(870,926,l),
(948,0,l),
(1196,0,l),
(1454,1566,l),
(1288,1566,l),
(1070,254,l),
(1058,254,l),
(984,1116,l),
(792,1116,l),
(430,254,l),
(418,254,l),
(536,968,ls),
(558,1094,o),
(478,1188,o),
(352,1188,cs),
(218,1188,o),
(116,1082,o),
(116,944,cs),
(116,834,o),
(186,760,o),
(290,760,cs),
(366,760,o),
(438,794,o),
(478,850,c),
(350,850,l),
(210,0,l)
);
},
{
closed = 1;
nodes = (
(266,868,o),
(238,902,o),
(238,950,cs),
(238,1020,o),
(284,1078,o),
(340,1078,cs),
(382,1078,o),
(410,1044,o),
(410,996,cs),
(410,926,o),
(364,868,o),
(308,868,cs)
);
}
);
width = 1460;
},
{
anchors = (
{
name = bottom;
pos = (1299,0);
},
{
name = top;
pos = (1041,1174);
}
);
layerId = "D0EC06BF-13F9-4C88-A6F5-B8203AF6C77E";
shapes = (
{
closed = 1;
nodes = (
(525,0,l),
(805,696,l),
(817,696,l),
(867,0,l),
(1299,0,l),
(1559,1566,l),
(1193,1566,l),
(1021,528,l),
(1009,528,l),
(969,1050,l),
(757,1050,l),
(543,528,l),
(531,528,l),
(597,926,ls),
(623,1078,o),
(525,1192,o),
(367,1192,cs),
(205,1192,o),
(93,1082,o),
(93,922,cs),
(93,790,o),
(177,698,o),
(295,698,cs),
(377,698,o),
(443,732,o),
(463,782,c),
(229,782,l),
(99,0,l)
);
},
{
closed = 1;
nodes = (
(289,862,o),
(271,886,o),
(271,924,cs),
(271,976,o),
(305,1020,o),
(345,1020,cs),
(373,1020,o),
(393,996,o),
(393,962,cs),
(393,908,o),
(359,862,o),
(319,862,cs)
);
}
);
width = 1493;
}
);
metricLeft = "phoPhan-thai";
metricRight = "phoPhan-thai";
unicode = 3615;
}
{
glyphname = "moMa-thai";
kernRight = "moMa-thai";
layers = (
{
anchors = (
{
name = bottom;
pos = (936,0);
},
{
name = top;
pos = (1130,1174);
}
);
layerId = "200BE2C5-40F6-4CF4-AF4F-A33C0CC0964F";
shapes = (
{
closed = 1;
nodes = (
(936,0,l),
(1130,1174,l),
(1084,1174,l),
(910,126,l),
(932,126,l),
(920,236,o),
(738,300,o),
(366,324,c),
(376,304,l),
(494,1010,ls),
(512,1112,o),
(456,1188,o),
(364,1188,cs),
(262,1188,o),
(190,1102,o),
(190,980,cs),
(190,892,o),
(238,834,o),
(312,834,cs),
(370,834,o),
(418,866,o),
(446,924,c),
(432,924,l),
(328,298,l),
(356,282,l),
(740,254,o),
(920,182,o),
(900,62,cs),
(890,0,l)
);
},
{
closed = 1;
nodes = (
(270,878,o),
(232,920,o),
(232,982,cs),
(232,1076,o),
(288,1144,o),
(362,1144,cs),
(412,1144,o),
(448,1102,o),
(448,1042,cs),
(448,946,o),
(394,878,o),
(318,878,cs)
);
},
{
closed = 1;
nodes = (
(312,-14,o),
(386,74,o),
(386,200,cs),
(386,292,o),
(330,356,o),
(248,356,cs),
(142,356,o),
(64,268,o),
(64,142,cs),
(64,50,o),
(122,-14,o),
(206,-14,cs)
);
},
{
closed = 1;
nodes = (
(148,30,o),
(108,76,o),
(108,142,cs),
(108,240,o),
(166,312,o),
(246,312,cs),
(302,312,o),
(342,266,o),
(342,200,cs),
(342,102,o),
(284,30,o),
(206,30,cs)
);
}
);
width = 1230;
},
{
anchors = (
{
name = bottom;
pos = (1022,0);
},
{
name = top;
pos = (1214,1174);
}
);
layerId = "11F4534A-B963-4AB5-820F-DAF9A20CD933";
shapes = (
{
closed = 1;
nodes = (
(1022,0,l),
(1214,1174,l),
(1042,1174,l),
(884,216,l),
(912,236,l),
(892,344,o),
(718,422,o),
(460,440,c),
(488,370,l),
(588,968,ls),
(610,1094,o),
(526,1188,o),
(398,1188,cs),
(264,1188,o),
(162,1082,o),
(162,944,cs),
(162,834,o),
(234,760,o),
(338,760,cs),
(414,760,o),
(484,794,o),
(524,850,c),
(398,850,l),
(318,370,l),
(448,312,l),
(728,288,o),
(878,190,o),
(856,46,cs),
(850,0,l)
);
},
{
closed = 1;
nodes = (
(312,868,o),
(286,902,o),
(286,950,cs),
(286,1020,o),
(330,1078,o),
(386,1078,cs),
(428,1078,o),
(456,1044,o),
(456,996,cs),
(456,926,o),
(410,868,o),
(354,868,cs)
);
},
{
closed = 1;
nodes = (
(386,-14,o),
(494,92,o),
(494,242,cs),
(494,350,o),
(412,428,o),
(296,428,cs),
(148,428,o),
(42,322,o),
(42,172,cs),
(42,62,o),
(122,-14,o),
(238,-14,cs)
);
},
{
closed = 1;
nodes = (
(204,96,o),
(174,130,o),
(174,184,cs),
(174,262,o),
(224,320,o),
(288,320,cs),
(332,320,o),
(362,284,o),
(362,232,cs),
(362,158,o),
(310,96,o),
(250,96,cs)
);
}
);
width = 1284;
},
{
anchors = (
{
name = bottom;
pos = (1120,0);
},
{
name = top;
pos = (1314,1174);
}
);
layerId = "D0EC06BF-13F9-4C88-A6F5-B8203AF6C77E";
shapes = (
{
closed = 1;
nodes = (
(1120,0,l),
(1314,1174,l),
(912,1174,l),
(766,296,l),
(830,334,l),
(816,404,o),
(706,454,o),
(540,466,c),
(574,360,l),
(668,926,ls),
(692,1076,o),
(582,1192,o),
(414,1192,cs),
(244,1192,o),
(128,1082,o),
(128,922,cs),
(128,790,o),
(216,698,o),
(340,698,cs),
(412,698,o),
(478,732,o),
(510,782,c),
(258,782,l),
(202,436,l),
(440,226,l),
(640,208,o),
(750,134,o),
(736,24,cs),
(734,0,l)
);
},
{
closed = 1;
nodes = (
(336,862,o),
(318,886,o),
(318,924,cs),
(318,976,o),
(352,1020,o),
(392,1020,cs),
(420,1020,o),
(440,996,o),
(440,962,cs),
(440,908,o),
(406,862,o),
(366,862,cs)
);
},
{
closed = 1;
nodes = (
(414,-18,o),
(552,112,o),
(552,274,cs),
(552,408,o),
(454,498,o),
(304,498,cs),
(130,498,o),
(-10,372,o),
(-10,214,cs),
(-10,78,o),
(94,-18,o),
(242,-18,cs)
);
},
{
closed = 1;
nodes = (
(232,162,o),
(214,188,o),
(214,226,cs),
(214,282,o),
(248,328,o),
(290,328,cs),
(320,328,o),
(342,302,o),
(342,264,cs),
(342,208,o),
(306,162,o),
(264,162,cs)
);
}
);
width = 1314;
}
);
unicode = 3617;
}
{
glyphname = "yoYak-thai";
kernRight = "boBaimai-thai";
layers = (
{
anchors = (
{
name = bottom;
pos = (870,0);
},
{
name = top;
pos = (1080,1174);
}
);
layerId = "200BE2C5-40F6-4CF4-AF4F-A33C0CC0964F";
shapes = (
{
closed = 1;
nodes = (
(778,-14,o),
(898,82,o),
(942,350,cs),
(1080,1174,l),
(1032,1174,l),
(896,350,ls),
(856,114,o),
(752,30,o),
(494,30,cs),
(280,30,o),
(186,100,o),
(186,254,cs),
(186,448,o),
(316,578,o),
(510,578,cs),
(654,578,l),
(662,622,l),
(518,622,ls),
(352,622,o),
(246,718,o),
(248,862,cs),
(250,918,o),
(256,950,o),
(276,1006,c),
(270,1006,l),
(254,902,o),
(300,834,o),
(388,834,cs),
(490,834,o),
(562,920,o),
(562,1042,cs),
(562,1128,o),
(510,1188,o),
(436,1188,cs),
(304,1188,o),
(202,1046,o),
(202,862,cs),
(202,740,o),
(272,634,o),
(374,602,c),
(372,596,l),
(228,550,o),
(140,420,o),
(140,254,cs),
(140,72,o),
(252,-14,o),
(490,-14,cs)
);
},
{
closed = 1;
nodes = (
(340,878,o),
(304,920,o),
(304,980,cs),
(304,1076,o),
(358,1144,o),
(434,1144,cs),
(484,1144,o),
(520,1102,o),
(520,1042,cs),
(520,946,o),
(464,878,o),
(390,878,cs)
);
}
);
width = 1174;
},
{
anchors = (
{
name = bottom;
pos = (960,0);
},
{
name = top;
pos = (1154,1174);
}
);
layerId = "11F4534A-B963-4AB5-820F-DAF9A20CD933";
shapes = (
{
closed = 1;
nodes = (
(846,-14,o),
(974,80,o),
(1018,350,cs),
(1154,1174,l),
(984,1174,l),
(848,360,ls),
(818,186,o),
(746,136,o),
(530,136,cs),
(348,136,o),
(286,172,o),
(286,278,cs),
(286,424,o),
(364,504,o),
(508,504,cs),
(666,504,l),
(690,648,l),
(558,648,ls),
(412,648,o),
(312,710,o),
(312,802,cs),
(312,818,o),
(314,844,o),
(320,868,c),
(282,868,l),
(294,802,o),
(350,766,o),
(430,766,cs),
(558,766,o),
(650,866,o),
(650,1004,cs),
(650,1118,o),
(578,1188,o),
(460,1188,cs),
(286,1188,o),
(162,1034,o),
(162,818,cs),
(162,706,o),
(218,630,o),
(330,588,c),
(328,576,l),
(188,540,o),
(110,424,o),
(110,254,cs),
(110,62,o),
(226,-14,o),
(524,-14,cs)
);
},
{
closed = 1;
nodes = (
(382,868,o),
(356,900,o),
(356,950,cs),
(356,1020,o),
(404,1078,o),
(460,1078,cs),
(500,1078,o),
(528,1044,o),
(528,996,cs),
(528,926,o),
(480,868,o),
(424,868,cs)
);
}
);
width = 1219;
},
{
anchors = (
{
name = bottom;
pos = (1112,0);
},
{
name = top;
pos = (1320,1174);
}
);
layerId = "D0EC06BF-13F9-4C88-A6F5-B8203AF6C77E";
shapes = (
{
closed = 1;
nodes = (
(984,-18,o),
(1140,78,o),
(1186,354,cs),
(1320,1174,l),
(926,1174,l),
(796,394,ls),
(782,308,o),
(728,274,o),
(606,274,cs),
(506,274,o),
(462,298,o),
(462,354,cs),
(462,426,o),
(510,468,o),
(596,468,cs),
(690,468,l),
(726,686,l),
(606,686,ls),
(514,686,o),
(476,708,o),
(476,758,cs),
(476,780,o),
(482,808,o),
(496,838,c),
(280,838,l),
(292,780,o),
(354,744,o),
(436,744,cs),
(578,744,o),
(698,856,o),
(698,992,cs),
(698,1112,o),
(604,1192,o),
(462,1192,cs),
(268,1192,o),
(122,1044,o),
(122,846,cs),
(122,718,o),
(184,630,o),
(290,606,c),
(288,594,l),
(146,572,o),
(58,456,o),
(58,290,cs),
(58,68,o),
(202,-18,o),
(572,-18,cs)
);
},
{
closed = 1;
nodes = (
(418,888,o),
(398,912,o),
(398,946,cs),
(398,998,o),
(430,1038,o),
(470,1038,cs),
(498,1038,o),
(516,1016,o),
(516,982,cs),
(516,932,o),
(484,888,o),
(446,888,cs)
);
}
);
width = 1319;
}
);
metricRight = "boBaimai-thai";
unicode = 3618;
}
{
glyphname = "roRua-thai";
layers = (
{
anchors = (
{
name = bottom;
pos = (606,0);
},
{
name = top;
pos = (926,1174);
}
);
layerId = "200BE2C5-40F6-4CF4-AF4F-A33C0CC0964F";
shapes = (
{
closed = 1;
nodes = (
(548,-14,o),
(614,52,o),
(632,158,cs),
(702,584,ls),
(728,740,o),
(648,830,o),
(478,830,cs),
(148,830,l),
(174,798,l),
(188,880,ls),
(214,1050,o),
(312,1144,o),
(462,1144,cs),
(572,1144,o),
(658,1108,o),
(770,1108,cs),
(814,1108,o),
(866,1114,o),
(918,1130,c),
(916,1176,l),
(862,1160,o),
(816,1154,o),
(778,1154,cs),
(670,1154,o),
(582,1188,o),
(460,1188,cs),
(282,1188,o),
(174,1078,o),
(142,880,cs),
(126,784,l),
(470,784,ls),
(610,784,o),
(678,710,o),
(656,584,cs),
(600,252,l),
(616,252,l),
(608,306,o),
(562,340,o),
(504,340,cs),
(408,340,o),
(330,248,o),
(330,134,cs),
(330,44,o),
(382,-14,o),
(460,-14,cs)
);
},
{
closed = 1;
nodes = (
(408,30,o),
(374,70,o),
(374,136,cs),
(374,226,o),
(430,296,o),
(504,296,cs),
(558,296,o),
(590,260,o),
(590,194,cs),
(590,98,o),
(536,30,o),
(462,30,cs)
);
}
);
width = 910;
},
{
anchors = (
{
name = bottom;
pos = (698,0);
},
{
name = top;
pos = (974,1174);
}
);
layerId = "11F4534A-B963-4AB5-820F-DAF9A20CD933";
shapes = (
{
closed = 1;
nodes = (
(620,-14,o),
(710,68,o),
(734,206,cs),
(790,546,ls),
(820,722,o),
(716,820,o),
(502,820,cs),
(222,820,l),
(292,724,l),
(314,862,ls),
(332,976,o),
(400,1038,o),
(502,1038,cs),
(594,1038,o),
(680,1008,o),
(788,1008,cs),
(854,1008,o),
(904,1020,o),
(958,1040,c),
(954,1180,l),
(906,1164,o),
(860,1156,o),
(810,1156,cs),
(708,1156,o),
(630,1188,o),
(514,1188,cs),
(278,1188,o),
(170,1054,o),
(136,844,cs),
(108,678,l),
(478,678,ls),
(586,678,o),
(632,628,o),
(616,526,cs),
(582,326,l),
(694,326,l),
(672,378,o),
(612,414,o),
(534,414,cs),
(398,414,o),
(306,300,o),
(306,162,cs),
(306,60,o),
(376,-14,o),
(490,-14,cs)
);
},
{
closed = 1;
nodes = (
(454,96,o),
(428,130,o),
(428,178,cs),
(428,242,o),
(470,306,o),
(532,306,cs),
(574,306,o),
(600,272,o),
(600,224,cs),
(600,160,o),
(556,96,o),
(498,96,cs)
);
}
);
width = 966;
},
{
anchors = (
{
name = bottom;
pos = (848,0);
},
{
name = top;
pos = (1116,1174);
}
);
layerId = "D0EC06BF-13F9-4C88-A6F5-B8203AF6C77E";
shapes = (
{
closed = 1;
nodes = (
(746,-18,o),
(864,84,o),
(890,248,cs),
(926,472,ls),
(960,684,o),
(852,786,o),
(592,786,cs),
(382,786,l),
(446,728,l),
(460,808,ls),
(470,874,o),
(514,908,o),
(592,908,cs),
(696,908,o),
(802,876,o),
(904,876,cs),
(956,876,o),
(1006,882,o),
(1056,898,c),
(1102,1182,l),
(1040,1166,o),
(980,1160,o),
(914,1160,cs),
(780,1160,o),
(672,1192,o),
(526,1192,cs),
(280,1192,o),
(124,1046,o),
(82,786,cs),
(48,582,l),
(374,582,ls),
(506,582,o),
(550,554,o),
(536,474,cs),
(520,380,l),
(776,380,l),
(762,428,o),
(696,462,o),
(616,462,cs),
(460,462,o),
(344,352,o),
(344,210,cs),
(344,76,o),
(442,-18,o),
(582,-18,cs)
);
},
{
closed = 1;
nodes = (
(552,146,o),
(532,170,o),
(532,206,cs),
(532,260,o),
(566,304,o),
(608,304,cs),
(636,304,o),
(656,280,o),
(656,244,cs),
(656,190,o),
(622,146,o),
(582,146,cs)
);
}
);
width = 1050;
}
);
unicode = 3619;
}
{
glyphname = "ru-thai";
kernLeft = "koKai-thai";
kernRight = "koKai-thai";
layers = (
{
anchors = (
{
name = bottom;
pos = (840,-478);
},
{
name = top;
pos = (1098,1174);
}
);
layerId = "200BE2C5-40F6-4CF4-AF4F-A33C0CC0964F";
shapes = (
{
closed = 1;
nodes = (
(840,-478,l),
(1048,786,ls),
(1088,1032,o),
(944,1192,o),
(680,1192,cs),
(420,1192,o),
(230,1036,o),
(190,786,cs),
(184,740,l),
(338,718,l),
(338,710,l),
(268,684,o),
(214,598,o),
(194,472,cs),
(144,170,ls),
(126,64,o),
(180,-14,o),
(272,-14,cs),
(374,-14,o),
(446,72,o),
(446,194,cs),
(446,278,o),
(394,340,o),
(322,340,cs),
(264,340,o),
(212,306,o),
(192,252,c),
(204,252,l),
(240,472,ls),
(266,632,o),
(344,718,o),
(446,702,cs),
(496,694,l),
(504,738,l),
(200,784,l),
(228,740,l),
(236,786,ls),
(272,1006,o),
(444,1146,o),
(678,1146,cs),
(912,1146,o),
(1038,1006,o),
(1002,786,cs),
(792,-478,l)
);
},
{
closed = 1;
nodes = (
(222,30,o),
(188,70,o),
(188,132,cs),
(188,228,o),
(242,296,o),
(318,296,cs),
(366,296,o),
(402,254,o),
(402,194,cs),
(402,98,o),
(348,30,o),
(274,30,cs)
);
}
);
width = 1205;
},
{
anchors = (
{
name = bottom;
pos = (910,-504);
},
{
name = top;
pos = (1174,1174);
}
);
layerId = "11F4534A-B963-4AB5-820F-DAF9A20CD933";
shapes = (
{
closed = 1;
nodes = (
(910,-504,l),
(1122,766,ls),
(1164,1022,o),
(994,1198,o),
(696,1198,cs),
(394,1198,o),
(180,1016,o),
(132,718,cs),
(126,672,l),
(344,646,l),
(342,634,l),
(234,602,o),
(174,522,o),
(150,380,cs),
(120,196,ls),
(100,76,o),
(176,-14,o),
(296,-14,cs),
(426,-14,o),
(526,86,o),
(526,220,cs),
(526,324,o),
(456,392,o),
(354,392,cs),
(284,392,o),
(216,362,o),
(178,310,c),
(306,310,l),
(322,400,ls),
(346,550,o),
(420,628,o),
(524,616,cs),
(576,610,l),
(598,744,l),
(290,782,l),
(296,680,l),
(304,726,ls),
(336,920,o),
(484,1042,o),
(684,1042,cs),
(872,1042,o),
(978,934,o),
(950,768,cs),
(738,-504,l)
);
},
{
closed = 1;
nodes = (
(270,92,o),
(244,122,o),
(244,168,cs),
(244,234,o),
(288,290,o),
(342,290,cs),
(382,290,o),
(408,260,o),
(408,214,cs),
(408,148,o),
(364,92,o),
(310,92,cs)
);
}
);
width = 1250;
},
{
anchors = (
{
name = bottom;
pos = (1058,-542);
},
{
name = top;
pos = (1326,1174);
}
);
layerId = "D0EC06BF-13F9-4C88-A6F5-B8203AF6C77E";
shapes = (
{
closed = 1;
nodes = (
(1058,-542,l),
(1272,756,ls),
(1316,1022,o),
(1110,1198,o),
(750,1198,cs),
(396,1198,o),
(142,1012,o),
(94,722,cs),
(78,636,l),
(282,636,l),
(280,624,l),
(164,592,o),
(96,518,o),
(78,400,cs),
(50,238,ls),
(26,88,o),
(130,-18,o),
(300,-18,cs),
(464,-18,o),
(578,94,o),
(578,248,cs),
(578,362,o),
(496,438,o),
(374,438,cs),
(300,438,o),
(226,406,o),
(198,360,c),
(444,360,l),
(462,456,ls),
(472,506,o),
(502,534,o),
(550,534,cs),
(624,534,l),
(660,752,l),
(408,752,l),
(474,682,l),
(482,728,ls),
(498,832,o),
(576,892,o),
(698,892,cs),
(822,892,o),
(882,834,o),
(864,728,cs),
(654,-542,l)
);
},
{
closed = 1;
nodes = (
(292,140,o),
(274,162,o),
(274,196,cs),
(274,246,o),
(304,290,o),
(344,290,cs),
(370,290,o),
(390,266,o),
(390,232,cs),
(390,182,o),
(358,140,o),
(320,140,cs)
);
}
);
width = 1333;
}
);
metricLeft = "thoThung-thai";
metricRight = "thoThung-thai";
unicode = 3620;
}
{
glyphname = "loLing-thai";
kernLeft = "loLing-thai";
layers = (
{
anchors = (
{
name = bottom;
pos = (904,0);
},
{
name = top;
pos = (1084,1174);
}
);
layerId = "200BE2C5-40F6-4CF4-AF4F-A33C0CC0964F";
shapes = (
{
closed = 1;
nodes = (
(390,-14,o),
(458,90,o),
(458,198,cs),
(458,286,o),
(412,340,o),
(336,340,cs),
(252,340,o),
(190,274,o),
(172,168,c),
(190,168,l),
(190,180,o),
(190,190,o),
(190,202,cs),
(190,460,o),
(334,686,o),
(572,686,cs),
(794,686,o),
(942,504,o),
(904,280,cs),
(856,0,l),
(904,0,l),
(1032,782,ls),
(1074,1034,o),
(930,1192,o),
(672,1192,cs),
(476,1192,o),
(320,1100,o),
(226,932,c),
(268,914,l),
(348,1062,o),
(492,1146,o),
(670,1146,cs),
(898,1146,o),
(1024,1008,o),
(986,782,cs),
(936,482,l),
(930,482,l),
(880,638,o),
(750,730,o),
(578,730,cs),
(300,730,o),
(142,484,o),
(142,196,cs),
(142,154,o),
(148,114,o),
(158,80,cs),
(174,18,o),
(218,-14,o),
(280,-14,cs)
);
},
{
closed = 1;
nodes = (
(232,30,o),
(200,72,o),
(200,134,cs),
(200,214,o),
(252,296,o),
(328,296,cs),
(382,296,o),
(414,256,o),
(414,194,cs),
(414,114,o),
(362,30,o),
(286,30,cs)
);
}
);
width = 1192;
},
{
anchors = (
{
name = bottom;
pos = (946,0);
},
{
name = top;
pos = (1126,1174);
}
);
layerId = "11F4534A-B963-4AB5-820F-DAF9A20CD933";
shapes = (
{
closed = 1;
nodes = (
(446,-14,o),
(548,96,o),
(548,236,cs),
(548,342,o),
(482,412,o),
(376,412,cs),
(314,412,o),
(256,372,o),
(232,314,c),
(280,314,l),
(280,324,o),
(282,330,o),
(288,368,cs),
(312,514,o),
(404,598,o),
(542,598,cs),
(740,598,o),
(850,440,o),
(812,216,cs),
(776,0,l),
(946,0,l),
(1076,782,ls),
(1118,1034,o),
(960,1198,o),
(678,1198,cs),
(460,1198,o),
(282,1098,o),
(184,920,c),
(332,862,l),
(396,976,o),
(518,1042,o),
(662,1042,cs),
(844,1042,o),
(938,948,o),
(912,790,cs),
(872,546,l),
(862,546,l),
(822,674,o),
(716,744,o),
(560,744,cs),
(290,744,o),
(104,532,o),
(104,222,cs),
(104,156,o),
(120,100,o),
(148,62,cs),
(184,14,o),
(244,-14,o),
(312,-14,cs)
);
},
{
closed = 1;
nodes = (
(280,96,o),
(254,128,o),
(254,178,cs),
(254,248,o),
(302,306,o),
(358,306,cs),
(398,306,o),
(426,274,o),
(426,226,cs),
(426,156,o),
(378,96,o),
(322,96,cs)
);
}
);
width = 1204;
},
{
anchors = (
{
name = bottom;
pos = (1052,0);
},
{
name = top;
pos = (1232,1174);
}
);
layerId = "D0EC06BF-13F9-4C88-A6F5-B8203AF6C77E";
shapes = (
{
closed = 1;
nodes = (
(456,-18,o),
(574,90,o),
(574,244,cs),
(574,362,o),
(494,438,o),
(370,438,cs),
(296,438,o),
(222,406,o),
(194,360,c),
(396,318,l),
(398,330,o),
(400,342,o),
(402,366,cs),
(416,450,o),
(466,494,o),
(548,494,cs),
(666,494,o),
(722,402,o),
(698,250,cs),
(658,0,l),
(1054,0,l),
(1186,806,ls),
(1226,1048,o),
(1040,1198,o),
(706,1198,cs),
(382,1198,o),
(168,1052,o),
(108,792,c),
(496,792,l),
(518,862,o),
(576,898,o),
(666,898,cs),
(762,898,o),
(806,856,o),
(792,776,cs),
(764,598,l),
(752,598,l),
(704,682,o),
(612,728,o),
(484,728,cs),
(216,728,o),
(24,522,o),
(24,240,cs),
(24,168,o),
(40,110,o),
(74,68,cs),
(116,12,o),
(190,-18,o),
(286,-18,cs)
);
},
{
closed = 1;
nodes = (
(330,140,o),
(312,162,o),
(312,196,cs),
(312,248,o),
(344,290,o),
(382,290,cs),
(410,290,o),
(428,266,o),
(428,232,cs),
(428,182,o),
(396,140,o),
(358,140,cs)
);
}
);
width = 1240;
}
);
unicode = 3621;
}
{
glyphname = "lu-thai";
kernLeft = "phoSamphao-thai";
kernRight = "koKai-thai";
layers = (
{
anchors = (
{
name = bottom;
pos = (926,-478);
},
{
name = top;
pos = (1184,1174);
}
);
layerId = "200BE2C5-40F6-4CF4-AF4F-A33C0CC0964F";
shapes = (
{
closed = 1;
nodes = (
(926,-478,l),
(1134,786,ls),
(1174,1032,o),
(1030,1192,o),
(766,1192,cs),
(508,1192,o),
(320,1034,o),
(280,786,cs),
(274,740,l),
(442,716,l),
(440,708,l),
(376,684,o),
(340,612,o),
(316,472,cs),
(278,238,l),
(290,238,l),
(282,288,o),
(240,324,o),
(186,324,cs),
(90,324,o),
(22,240,o),
(22,126,cs),
(22,36,o),
(70,-14,o),
(150,-14,cs),
(232,-14,o),
(296,52,o),
(312,156,cs),
(362,472,ls),
(392,648,o),
(448,716,o),
(552,700,cs),
(592,694,l),
(600,738,l),
(290,784,l),
(318,740,l),
(326,786,ls),
(362,1006,o),
(534,1146,o),
(766,1146,cs),
(1000,1146,o),
(1124,1006,o),
(1088,786,cs),
(878,-478,l)
);
},
{
closed = 1;
nodes = (
(98,30,o),
(66,64,o),
(66,128,cs),
(66,216,o),
(116,280,o),
(186,280,cs),
(232,280,o),
(266,240,o),
(266,184,cs),
(266,96,o),
(216,30,o),
(152,30,cs)
);
}
);
width = 1291;
},
{
anchors = (
{
name = bottom;
pos = (996,-504);
},
{
name = top;
pos = (1260,1174);
}
);
layerId = "11F4534A-B963-4AB5-820F-DAF9A20CD933";
shapes = (
{
closed = 1;
nodes = (
(996,-504,l),
(1208,766,ls),
(1250,1026,o),
(1080,1198,o),
(778,1198,cs),
(474,1198,o),
(256,1014,o),
(208,718,cs),
(200,672,l),
(452,642,l),
(450,630,l),
(356,602,o),
(304,532,o),
(284,406,cs),
(268,310,l),
(394,310,l),
(374,358,o),
(304,392,o),
(228,392,cs),
(106,392,o),
(10,290,o),
(10,162,cs),
(10,52,o),
(78,-14,o),
(188,-14,cs),
(308,-14,o),
(396,66,o),
(418,196,cs),
(456,426,ls),
(478,562,o),
(532,626,o),
(618,616,cs),
(666,610,l),
(688,742,l),
(352,784,l),
(372,680,l),
(380,726,ls),
(412,920,o),
(560,1042,o),
(766,1042,cs),
(958,1042,o),
(1064,936,o),
(1036,768,cs),
(824,-504,l)
);
},
{
closed = 1;
nodes = (
(152,92,o),
(126,122,o),
(126,168,cs),
(126,234,o),
(172,290,o),
(226,290,cs),
(266,290,o),
(290,260,o),
(290,214,cs),
(290,148,o),
(246,92,o),
(192,92,cs)
);
}
);
width = 1336;
},
{
anchors = (
{
name = bottom;
pos = (1088,-542);
},
{
name = top;
pos = (1358,1174);
}
);
layerId = "D0EC06BF-13F9-4C88-A6F5-B8203AF6C77E";
shapes = (
{
closed = 1;
nodes = (
(1088,-542,l),
(1304,756,ls),
(1348,1022,o),
(1142,1198,o),
(782,1198,cs),
(428,1198,o),
(172,1016,o),
(126,736,cs),
(110,636,l),
(342,636,l),
(340,624,l),
(240,598,o),
(182,532,o),
(162,422,cs),
(152,360,l),
(406,360,l),
(394,406,o),
(328,438,o),
(250,438,cs),
(106,438,o),
(-10,326,o),
(-10,184,cs),
(-10,60,o),
(78,-18,o),
(216,-18,cs),
(372,-18,o),
(488,80,o),
(514,238,cs),
(550,456,ls),
(558,510,o),
(586,534,o),
(632,534,cs),
(662,534,l),
(698,752,l),
(446,752,l),
(508,696,l),
(512,728,ls),
(528,832,o),
(606,892,o),
(728,892,cs),
(852,892,o),
(912,834,o),
(894,728,cs),
(686,-542,l)
);
},
{
closed = 1;
nodes = (
(192,140,o),
(174,162,o),
(174,196,cs),
(174,246,o),
(204,290,o),
(244,290,cs),
(270,290,o),
(290,266,o),
(290,232,cs),
(290,182,o),
(258,140,o),
(220,140,cs)
);
}
);
width = 1364;
}
);
metricLeft = "phoSamphao-thai";
metricRight = "phoSamphao-thai";
unicode = 3622;
}
{
glyphname = "woWaen-thai";
layers = (
{
anchors = (
{
name = bottom;
pos = (660,0);
},
{
name = top;
pos = (840,1174);
}
);
layerId = "200BE2C5-40F6-4CF4-AF4F-A33C0CC0964F";
shapes = (
{
closed = 1;
nodes = (
(602,-14,o),
(668,52,o),
(686,158,cs),
(798,830,ls),
(834,1044,o),
(716,1192,o),
(510,1192,cs),
(332,1192,o),
(192,1084,o),
(122,896,c),
(166,880,l),
(224,1048,o),
(352,1146,o),
(510,1146,cs),
(688,1146,o),
(782,1022,o),
(750,830,cs),
(654,252,l),
(670,252,l),
(662,306,o),
(616,340,o),
(558,340,cs),
(462,340,o),
(384,248,o),
(384,134,cs),
(384,44,o),
(436,-14,o),
(514,-14,cs)
);
},
{
closed = 1;
nodes = (
(460,30,o),
(428,70,o),
(428,136,cs),
(428,226,o),
(484,296,o),
(558,296,cs),
(612,296,o),
(642,260,o),
(642,194,cs),
(642,98,o),
(588,30,o),
(514,30,cs)
);
}
);
width = 946;
},
{
anchors = (
{
name = bottom;
pos = (752,0);
},
{
name = top;
pos = (930,1174);
}
);
layerId = "11F4534A-B963-4AB5-820F-DAF9A20CD933";
shapes = (
{
closed = 1;
nodes = (
(672,-14,o),
(764,68,o),
(786,206,cs),
(882,786,ls),
(922,1028,o),
(778,1198,o),
(532,1198,cs),
(330,1198,o),
(168,1080,o),
(104,882,c),
(258,834,l),
(302,962,o),
(404,1042,o),
(520,1042,cs),
(654,1042,o),
(734,936,o),
(710,788,cs),
(634,326,l),
(746,326,l),
(724,380,o),
(662,414,o),
(586,414,cs),
(456,414,o),
(358,306,o),
(358,162,cs),
(358,56,o),
(432,-14,o),
(542,-14,cs)
);
},
{
closed = 1;
nodes = (
(510,96,o),
(480,128,o),
(480,178,cs),
(480,248,o),
(528,306,o),
(584,306,cs),
(626,306,o),
(654,274,o),
(654,224,cs),
(654,154,o),
(608,96,o),
(552,96,cs)
);
}
);
width = 1008;
},
{
anchors = (
{
name = bottom;
pos = (936,0);
},
{
name = top;
pos = (1144,1174);
}
);
layerId = "D0EC06BF-13F9-4C88-A6F5-B8203AF6C77E";
shapes = (
{
closed = 1;
nodes = (
(832,-18,o),
(950,84,o),
(978,250,cs),
(1068,796,ls),
(1108,1036,o),
(932,1198,o),
(632,1198,cs),
(336,1198,o),
(118,1032,o),
(80,776,c),
(468,776,l),
(484,848,o),
(530,892,o),
(586,892,cs),
(642,892,o),
(672,844,o),
(660,772,cs),
(598,394,l),
(852,394,l),
(838,444,o),
(780,476,o),
(702,476,cs),
(540,476,o),
(418,364,o),
(418,218,cs),
(418,78,o),
(520,-18,o),
(666,-18,cs)
);
},
{
closed = 1;
nodes = (
(632,154,o),
(614,178,o),
(614,216,cs),
(614,268,o),
(648,312,o),
(688,312,cs),
(718,312,o),
(736,288,o),
(736,252,cs),
(736,198,o),
(702,154,o),
(662,154,cs)
);
}
);
width = 1124;
}
);
unicode = 3623;
}
{
glyphname = "soSala-thai";
kernLeft = "khoKhwai-thai";
layers = (
{
anchors = (
{
name = bottom;
pos = (970,0);
},
{
name = top;
pos = (1150,1174);
}
);
layerId = "200BE2C5-40F6-4CF4-AF4F-A33C0CC0964F";
shapes = (
{
closed = 1;
nodes = (
(148,0,l),
(174,152,ls),
(208,360,o),
(406,632,o),
(572,696,c),
(572,708,l),
(526,668,o),
(498,614,o),
(498,552,cs),
(498,472,o),
(550,418,o),
(622,418,cs),
(720,418,o),
(788,498,o),
(788,616,cs),
(788,696,o),
(738,754,o),
(664,754,cs),
(514,754,o),
(334,606,o),
(216,382,c),
(210,382,l),
(272,748,ls),
(314,994,o),
(486,1146,o),
(724,1146,cs),
(960,1146,o),
(1088,990,o),
(1048,748,cs),
(924,0,l),
(970,0,l),
(1094,748,ls),
(1112,864,o),
(1096,964,o),
(1046,1042,c),
(982,1138,o),
(870,1192,o),
(724,1192,cs),
(460,1192,o),
(272,1024,o),
(226,748,cs),
(102,0,l)
);
},
{
closed = 1;
nodes = (
(576,462,o),
(542,500,o),
(542,556,cs),
(542,646,o),
(594,712,o),
(664,712,cs),
(710,712,o),
(744,672,o),
(744,616,cs),
(744,526,o),
(694,462,o),
(624,462,cs)
);
},
{
closed = 1;
nodes = (
(1282,1240,l),
(1214,1240,l),
(1018,1054,l),
(1048,1022,l)
);
}
);
width = 1262;
},
{
anchors = (
{
name = bottom;
pos = (1046,0);
},
{
name = top;
pos = (1224,1174);
}
);
layerId = "11F4534A-B963-4AB5-820F-DAF9A20CD933";
shapes = (
{
closed = 1;
nodes = (
(242,0,l),
(266,140,ls),
(296,322,o),
(396,486,o),
(526,578,c),
(516,642,l),
(494,620,o),
(484,592,o),
(484,550,cs),
(484,460,o),
(548,398,o),
(642,398,cs),
(760,398,o),
(850,494,o),
(850,616,cs),
(850,716,o),
(788,780,o),
(690,780,cs),
(576,780,o),
(446,688,o),
(338,528,c),
(328,528,l),
(364,750,ls),
(394,928,o),
(534,1042,o),
(728,1042,cs),
(922,1042,o),
(1030,928,o),
(1000,750,cs),
(876,0,l),
(1046,0,l),
(1170,760,ls),
(1194,900,o),
(1150,1020,o),
(1056,1070,c),
(1006,1150,o),
(890,1198,o),
(738,1198,cs),
(448,1198,o),
(244,1034,o),
(200,768,cs),
(72,0,l)
);
},
{
closed = 1;
nodes = (
(610,492,o),
(586,520,o),
(586,564,cs),
(586,626,o),
(628,676,o),
(680,676,cs),
(718,676,o),
(742,648,o),
(742,606,cs),
(742,544,o),
(698,492,o),
(648,492,cs)
);
},
{
closed = 1;
nodes = (
(1354,1234,l),
(1150,1234,l),
(932,1030,l),
(1074,972,l)
);
}
);
width = 1310;
},
{
anchors = (
{
name = bottom;
pos = (1180,0);
},
{
name = top;
pos = (1360,1174);
}
);
layerId = "D0EC06BF-13F9-4C88-A6F5-B8203AF6C77E";
shapes = (
{
closed = 1;
nodes = (
(392,0,l),
(408,98,ls),
(434,252,o),
(482,360,o),
(560,434,c),
(530,500,l),
(516,474,o),
(510,444,o),
(510,420,cs),
(510,342,o),
(576,290,o),
(674,290,cs),
(812,290,o),
(918,396,o),
(918,534,cs),
(918,654,o),
(836,738,o),
(718,738,cs),
(606,738,o),
(518,662,o),
(468,520,c),
(456,520,l),
(484,686,ls),
(504,812,o),
(604,892,o),
(738,892,cs),
(870,892,o),
(940,812,o),
(920,686,cs),
(808,0,l),
(1182,0,l),
(1304,744,ls),
(1334,924,o),
(1278,1000,o),
(1106,1016,c),
(1074,1136,o),
(956,1198,o),
(762,1198,cs),
(412,1198,o),
(170,1014,o),
(120,708,cs),
(4,0,l)
);
},
{
closed = 1;
nodes = (
(646,440,o),
(626,464,o),
(626,496,cs),
(626,546,o),
(656,584,o),
(694,584,cs),
(720,584,o),
(738,560,o),
(738,528,cs),
(738,478,o),
(710,440,o),
(672,440,cs)
);
},
{
closed = 1;
nodes = (
(1480,1234,l),
(1092,1234,l),
(904,978,l),
(1222,920,l)
);
}
);
width = 1368;
},
{
anchors = (
{
name = bottom;
pos = (1126,0);
},
{
name = top;
pos = (1306,1174);
}
);
associatedMasterId = "D0EC06BF-13F9-4C88-A6F5-B8203AF6C77E";
attr = {
coordinates = (
700
);
};
background = {
shapes = (
{
closed = 1;
nodes = (
(392,0,l),
(408,98,ls),
(430,232,o),
(474,330,o),
(552,402,c),
(544,456,l),
(526,434,o),
(508,406,o),
(508,376,cs),
(508,312,o),
(582,262,o),
(670,262,cs),
(808,262,o),
(918,380,o),
(918,514,cs),
(918,632,o),
(832,708,o),
(718,708,cs),
(612,708,o),
(518,640,o),
(470,534,c),
(458,534,l),
(484,686,ls),
(504,812,o),
(602,892,o),
(736,892,cs),
(866,892,o),
(942,814,o),
(920,686,cs),
(806,0,l),
(1180,0,l),
(1304,752,ls),
(1334,928,o),
(1280,1000,o),
(1104,1016,c),
(1074,1134,o),
(962,1198,o),
(762,1198,cs),
(408,1198,o),
(170,1006,o),
(120,708,cs),
(4,0,l)
);
},
{
closed = 1;
nodes = (
(644,410,o),
(626,432,o),
(626,464,cs),
(626,514,o),
(658,552,o),
(694,552,cs),
(720,552,o),
(738,530,o),
(738,498,cs),
(738,456,o),
(710,410,o),
(670,410,cs)
);
},
{
closed = 1;
nodes = (
(1480,1234,l),
(1092,1234,l),
(904,978,l),
(1222,920,l)
);
}
);
};
layerId = "C81EB3FB-9969-4349-8BFF-0FFA51F0DBA4";
name = "Bold{700,-10}";
shapes = (
{
closed = 1;
nodes = (
(334,0,l),
(352,114,ls),
(378,280,o),
(448,412,o),
(546,492,c),
(526,558,l),
(508,534,o),
(498,504,o),
(498,472,cs),
(498,388,o),
(568,334,o),
(662,334,cs),
(792,334,o),
(890,436,o),
(890,566,cs),
(890,680,o),
(814,754,o),
(706,754,cs),
(594,754,o),
(490,674,o),
(416,522,c),
(406,522,l),
(436,712,ls),
(460,858,o),
(576,952,o),
(734,952,cs),
(890,952,o),
(976,860,o),
(952,712,cs),
(834,0,l),
(1128,0,l),
(1250,752,ls),
(1276,914,o),
(1228,1008,o),
(1086,1038,c),
(1048,1140,o),
(932,1198,o),
(752,1198,cs),
(418,1198,o),
(200,1016,o),
(152,732,cs),
(32,0,l)
);
},
{
closed = 1;
nodes = (
(630,462,o),
(610,486,o),
(610,524,cs),
(610,580,o),
(646,620,o),
(688,620,cs),
(718,620,o),
(740,594,o),
(740,558,cs),
(740,502,o),
(704,462,o),
(662,462,cs)
);
},
{
closed = 1;
nodes = (
(1430,1234,l),
(1114,1234,l),
(914,1000,l),
(1162,942,l)
);
}
);
width = 1346;
},
{
anchors = (
{
name = bottom;
pos = (1154,0);
},
{
name = top;
pos = (1334,1174);
}
);
associatedMasterId = "D0EC06BF-13F9-4C88-A6F5-B8203AF6C77E";
attr = {
coordinates = (
800
);
};
background = {
shapes = (
{
closed = 1;
nodes = (
(392,0,l),
(408,98,ls),
(430,232,o),
(474,330,o),
(552,402,c),
(544,456,l),
(526,434,o),
(508,406,o),
(508,376,cs),
(508,312,o),
(582,262,o),
(670,262,cs),
(808,262,o),
(918,380,o),
(918,514,cs),
(918,632,o),
(832,708,o),
(718,708,cs),
(612,708,o),
(518,640,o),
(470,534,c),
(458,534,l),
(484,686,ls),
(504,812,o),
(602,892,o),
(736,892,cs),
(866,892,o),
(942,814,o),
(920,686,cs),
(806,0,l),
(1180,0,l),
(1304,752,ls),
(1334,928,o),
(1280,1000,o),
(1104,1016,c),
(1074,1134,o),
(962,1198,o),
(762,1198,cs),
(408,1198,o),
(170,1006,o),
(120,708,cs),
(4,0,l)
);
},
{
closed = 1;
nodes = (
(644,410,o),
(626,432,o),
(626,464,cs),
(626,514,o),
(658,552,o),
(694,552,cs),
(720,552,o),
(738,530,o),
(738,498,cs),
(738,456,o),
(710,410,o),
(670,410,cs)
);
},
{
closed = 1;
nodes = (
(1480,1234,l),
(1092,1234,l),
(904,978,l),
(1222,920,l)
);
}
);
};
layerId = "C5FB188E-19F2-4CFF-B3A4-EAB2BB0C32A1";
name = "ExtraBold{800,-10}";
shapes = (
{
closed = 1;
nodes = (
(362,0,l),
(380,106,ls),
(406,262,o),
(464,384,o),
(568,462,c),
(542,530,l),
(526,504,o),
(520,474,o),
(520,446,cs),
(520,364,o),
(588,312,o),
(684,312,cs),
(818,312,o),
(920,418,o),
(920,552,cs),
(920,670,o),
(838,748,o),
(728,748,cs),
(612,748,o),
(500,660,o),
(442,522,c),
(432,522,l),
(460,700,ls),
(482,836,o),
(590,922,o),
(736,922,cs),
(878,922,o),
(958,838,o),
(936,700,cs),
(822,0,l),
(1154,0,l),
(1278,748,ls),
(1306,916,o),
(1254,1004,o),
(1096,1026,c),
(1062,1136,o),
(948,1198,o),
(758,1198,cs),
(412,1198,o),
(184,1010,o),
(136,720,cs),
(18,0,l)
);
},
{
closed = 1;
nodes = (
(652,450,o),
(634,476,o),
(634,510,cs),
(634,562,o),
(666,602,o),
(706,602,cs),
(734,602,o),
(754,578,o),
(754,544,cs),
(754,490,o),
(722,450,o),
(682,450,cs)
);
},
{
closed = 1;
nodes = (
(1456,1234,l),
(1104,1234,l),
(910,990,l),
(1192,930,l)
);
}
);
width = 1358;
}
);
unicode = 3624;
}
{
glyphname = "soRusi-thai";
kernLeft = "boBaimai-thai";
layers = (
{
anchors = (
{
name = bottom;
pos = (982,0);
},
{
name = top;
pos = (1192,1174);
}
);
layerId = "200BE2C5-40F6-4CF4-AF4F-A33C0CC0964F";
shapes = (
{
closed = 1;
nodes = (
(894,-14,o),
(1010,72,o),
(1050,318,cs),
(1192,1174,l),
(1144,1174,l),
(1004,318,ls),
(970,106,o),
(866,30,o),
(616,30,cs),
(366,30,o),
(288,106,o),
(322,318,cs),
(438,1010,ls),
(454,1112,o),
(400,1188,o),
(308,1188,cs),
(206,1188,o),
(134,1102,o),
(134,980,cs),
(134,892,o),
(184,834,o),
(258,834,cs),
(316,834,o),
(362,866,o),
(390,924,c),
(376,924,l),
(276,318,ls),
(236,80,o),
(334,-14,o),
(614,-14,cs)
);
},
{
closed = 1;
nodes = (
(214,878,o),
(178,920,o),
(178,982,cs),
(178,1076,o),
(232,1144,o),
(306,1144,cs),
(356,1144,o),
(392,1102,o),
(392,1042,cs),
(392,946,o),
(338,878,o),
(262,878,cs)
);
},
{
closed = 1;
nodes = (
(916,418,o),
(982,434,o),
(1044,470,c),
(1046,520,l),
(990,482,o),
(920,462,o),
(842,462,cs),
(748,462,o),
(680,484,o),
(658,520,c),
(612,520,l),
(628,502,o),
(658,494,o),
(690,494,cs),
(782,494,o),
(850,570,o),
(850,680,cs),
(850,760,o),
(802,814,o),
(734,814,cs),
(640,814,o),
(572,734,o),
(572,622,cs),
(572,500,o),
(678,418,o),
(840,418,cs)
);
},
{
closed = 1;
nodes = (
(646,532,o),
(616,572,o),
(616,626,cs),
(616,710,o),
(664,770,o),
(732,770,cs),
(774,770,o),
(806,732,o),
(806,678,cs),
(806,594,o),
(758,532,o),
(692,532,cs)
);
},
{
closed = 1;
nodes = (
(1186,546,o),
(1272,648,o),
(1326,790,c),
(1282,798,l),
(1236,676,o),
(1166,586,o),
(1068,530,c),
(1066,484,l)
);
}
);
width = 1316;
},
{
anchors = (
{
name = bottom;
pos = (1086,0);
},
{
name = top;
pos = (1280,1174);
}
);
layerId = "11F4534A-B963-4AB5-820F-DAF9A20CD933";
shapes = (
{
closed = 1;
nodes = (
(978,-14,o),
(1098,72,o),
(1140,332,cs),
(1280,1174,l),
(1108,1174,l),
(972,350,ls),
(946,186,o),
(874,136,o),
(668,136,cs),
(460,136,o),
(406,186,o),
(434,350,cs),
(536,968,ls),
(558,1094,o),
(476,1188,o),
(348,1188,cs),
(214,1188,o),
(112,1082,o),
(112,944,cs),
(112,834,o),
(182,760,o),
(286,760,cs),
(362,760,o),
(432,794,o),
(472,850,c),
(346,850,l),
(260,332,ls),
(218,82,o),
(330,-14,o),
(660,-14,cs)
);
},
{
closed = 1;
nodes = (
(262,868,o),
(234,902,o),
(234,950,cs),
(234,1020,o),
(280,1078,o),
(336,1078,cs),
(378,1078,o),
(406,1044,o),
(406,996,cs),
(406,926,o),
(360,868,o),
(304,868,cs)
);
},
{
closed = 1;
nodes = (
(966,424,o),
(1000,430,o),
(1038,440,c),
(1044,556,l),
(1014,542,o),
(982,536,o),
(946,536,cs),
(888,536,o),
(844,548,o),
(814,578,c),
(622,578,l),
(646,540,o),
(692,518,o),
(746,518,cs),
(866,518,o),
(958,608,o),
(958,726,cs),
(958,818,o),
(892,882,o),
(798,882,cs),
(678,882,o),
(592,790,o),
(592,664,cs),
(592,522,o),
(728,424,o),
(924,424,cs)
);
},
{
closed = 1;
nodes = (
(724,606,o),
(702,632,o),
(702,674,cs),
(702,732,o),
(742,782,o),
(790,782,cs),
(824,782,o),
(850,754,o),
(850,714,cs),
(850,656,o),
(808,606,o),
(760,606,cs)
);
},
{
closed = 1;
nodes = (
(1310,530,o),
(1402,610,o),
(1470,770,c),
(1336,822,l),
(1272,690,o),
(1220,630,o),
(1126,582,c),
(1120,462,l)
);
}
);
width = 1448;
},
{
anchors = (
{
name = bottom;
pos = (1200,0);
},
{
name = top;
pos = (1408,1174);
}
);
layerId = "D0EC06BF-13F9-4C88-A6F5-B8203AF6C77E";
shapes = (
{
closed = 1;
nodes = (
(1072,-18,o),
(1230,96,o),
(1286,434,cs),
(1408,1174,l),
(1042,1174,l),
(920,444,ls),
(900,320,o),
(844,274,o),
(706,274,cs),
(570,274,o),
(526,320,o),
(546,444,cs),
(626,926,ls),
(650,1076,o),
(540,1192,o),
(372,1192,cs),
(202,1192,o),
(88,1082,o),
(88,922,cs),
(88,790,o),
(176,698,o),
(300,698,cs),
(372,698,o),
(438,732,o),
(470,782,c),
(212,782,l),
(154,434,ls),
(100,112,o),
(246,-18,o),
(660,-18,cs)
);
},
{
closed = 1;
nodes = (
(294,862,o),
(276,886,o),
(276,924,cs),
(276,976,o),
(310,1020,o),
(350,1020,cs),
(378,1020,o),
(398,996,o),
(398,962,cs),
(398,908,o),
(364,862,o),
(324,862,cs)
);
},
{
closed = 1;
nodes = (
(970,406,o),
(1012,408,o),
(1048,414,c),
(1044,624,l),
(1020,610,o),
(992,602,o),
(960,602,cs),
(928,602,o),
(902,608,o),
(878,622,c),
(648,566,l),
(674,524,o),
(738,494,o),
(800,494,cs),
(916,494,o),
(1014,590,o),
(1014,704,cs),
(1014,802,o),
(924,878,o),
(810,878,cs),
(660,878,o),
(560,786,o),
(560,648,cs),
(560,498,o),
(698,406,o),
(920,406,cs)
);
},
{
closed = 1;
nodes = (
(752,624,o),
(738,640,o),
(738,670,cs),
(738,712,o),
(766,748,o),
(798,748,cs),
(820,748,o),
(834,730,o),
(834,700,cs),
(834,658,o),
(808,624,o),
(776,624,cs)
);
},
{
closed = 1;
nodes = (
(1348,524,o),
(1464,658,o),
(1516,840,c),
(1182,840,l),
(1160,778,o),
(1132,724,o),
(1102,686,c),
(1182,456,l)
);
}
);
width = 1470;
},
{
anchors = (
{
name = bottom;
pos = (1185,0);
},
{
name = top;
pos = (1389,1174);
}
);
associatedMasterId = "D0EC06BF-13F9-4C88-A6F5-B8203AF6C77E";
attr = {
coordinates = (
700
);
};
background = {
shapes = (
{
closed = 1;
nodes = (
(1057,-20,o),
(1207,88,o),
(1257,390,cs),
(1387,1174,l),
(1099,1174,l),
(973,414,ls),
(949,270,o),
(887,224,o),
(721,224,cs),
(555,224,o),
(509,270,o),
(533,414,cs),
(621,940,ls),
(645,1090,o),
(557,1188,o),
(411,1188,cs),
(269,1188,o),
(151,1088,o),
(129,952,cs),
(107,818,o),
(189,722,o),
(325,722,cs),
(399,722,o),
(467,754,o),
(501,806,c),
(295,796,l),
(227,390,ls),
(177,88,o),
(297,-20,o),
(675,-20,cs)
);
},
{
closed = 1;
nodes = (
(305,864,o),
(283,900,o),
(291,952,cs),
(299,1004,o),
(335,1042,o),
(375,1042,cs),
(415,1042,o),
(437,1004,o),
(429,952,cs),
(421,900,o),
(385,864,o),
(345,864,cs)
);
},
{
closed = 1;
nodes = (
(997,414,o),
(1037,416,o),
(1077,424,c),
(1079,596,l),
(1049,582,o),
(1021,576,o),
(989,576,cs),
(947,576,o),
(913,586,o),
(885,606,c),
(669,576,l),
(691,532,o),
(727,506,o),
(787,506,cs),
(889,506,o),
(975,582,o),
(993,688,cs),
(1011,798,o),
(947,880,o),
(837,880,cs),
(725,880,o),
(627,794,o),
(607,674,cs),
(581,514,o),
(719,414,o),
(953,414,cs)
);
},
{
closed = 1;
nodes = (
(765,616,o),
(745,646,o),
(753,688,cs),
(759,730,o),
(789,760,o),
(823,760,cs),
(857,760,o),
(875,730,o),
(869,688,cs),
(861,646,o),
(833,616,o),
(799,616,cs)
);
},
{
closed = 1;
nodes = (
(1337,524,o),
(1445,632,o),
(1505,812,c),
(1273,832,l),
(1233,742,o),
(1197,686,o),
(1141,644,c),
(1189,458,l)
);
}
);
};
layerId = "B08A45B1-85B4-42AE-96A2-AB8EA71D353F";
name = "Bold{700,-10}";
shapes = (
{
closed = 1;
nodes = (
(1075,-16,o),
(1209,94,o),
(1259,394,cs),
(1389,1174,l),
(1101,1174,l),
(973,406,ls),
(949,264,o),
(885,218,o),
(721,218,cs),
(557,218,o),
(509,266,o),
(533,406,cs),
(621,942,ls),
(645,1088,o),
(547,1190,o),
(401,1190,cs),
(241,1190,o),
(129,1068,o),
(129,922,cs),
(129,802,o),
(207,722,o),
(327,722,cs),
(401,722,o),
(469,756,o),
(503,808,c),
(295,798,l),
(227,394,ls),
(177,94,o),
(317,-16,o),
(691,-16,cs)
);
},
{
closed = 1;
nodes = (
(313,866,o),
(289,892,o),
(289,934,cs),
(289,988,o),
(325,1042,o),
(375,1042,cs),
(411,1042,o),
(433,1014,o),
(433,974,cs),
(433,916,o),
(395,866,o),
(347,866,cs)
);
},
{
closed = 1;
nodes = (
(995,414,o),
(1035,416,o),
(1075,424,c),
(1075,596,l),
(1047,582,o),
(1017,576,o),
(985,576,cs),
(943,576,o),
(909,586,o),
(881,606,c),
(665,578,l),
(687,536,o),
(731,508,o),
(791,508,cs),
(895,508,o),
(985,604,o),
(985,722,cs),
(985,812,o),
(927,880,o),
(823,880,cs),
(695,880,o),
(605,780,o),
(605,646,cs),
(605,502,o),
(737,414,o),
(953,414,cs)
);
},
{
closed = 1;
nodes = (
(759,616,o),
(743,638,o),
(743,672,cs),
(743,722,o),
(775,760,o),
(813,760,cs),
(841,760,o),
(861,738,o),
(861,706,cs),
(861,656,o),
(827,616,o),
(789,616,cs)
);
},
{
closed = 1;
nodes = (
(1339,524,o),
(1443,634,o),
(1505,814,c),
(1275,834,l),
(1235,744,o),
(1199,686,o),
(1143,644,c),
(1189,458,l)
);
}
);
width = 1493;
},
{
anchors = (
{
name = bottom;
pos = (1212,0);
},
{
name = top;
pos = (1418,1174);
}
);
associatedMasterId = "D0EC06BF-13F9-4C88-A6F5-B8203AF6C77E";
attr = {
coordinates = (
800
);
};
background = {
shapes = (
{
closed = 1;
nodes = (
(1102,-16,o),
(1240,100,o),
(1292,414,cs),
(1418,1174,l),
(1090,1174,l),
(966,424,ls),
(944,290,o),
(884,246,o),
(734,246,cs),
(584,246,o),
(538,292,o),
(560,424,cs),
(644,934,ls),
(670,1088,o),
(566,1190,o),
(414,1190,cs),
(248,1190,o),
(128,1066,o),
(128,914,cs),
(128,792,o),
(208,710,o),
(332,710,cs),
(406,710,o),
(474,744,o),
(506,794,c),
(272,780,l),
(212,414,ls),
(160,100,o),
(306,-16,o),
(696,-16,cs)
);
},
{
closed = 1;
nodes = (
(324,864,o),
(302,890,o),
(302,928,cs),
(302,978,o),
(338,1032,o),
(384,1032,cs),
(416,1032,o),
(436,1004,o),
(436,968,cs),
(436,910,o),
(398,864,o),
(356,864,cs)
);
},
{
closed = 1;
nodes = (
(1016,408,o),
(1070,412,o),
(1110,418,c),
(1110,610,l),
(1084,596,o),
(1054,588,o),
(1022,588,cs),
(986,588,o),
(956,596,o),
(930,614,c),
(676,570,l),
(700,528,o),
(762,498,o),
(824,498,cs),
(946,498,o),
(1052,602,o),
(1052,720,cs),
(1052,812,o),
(978,878,o),
(854,878,cs),
(726,878,o),
(630,776,o),
(630,640,cs),
(630,494,o),
(768,408,o),
(972,408,cs)
);
},
{
closed = 1;
nodes = (
(810,620,o),
(794,642,o),
(794,672,cs),
(794,718,o),
(824,754,o),
(858,754,cs),
(884,754,o),
(900,732,o),
(900,702,cs),
(900,656,o),
(870,620,o),
(836,620,cs)
);
},
{
closed = 1;
nodes = (
(1364,522,o),
(1476,640,o),
(1532,826,c),
(1248,838,l),
(1218,760,o),
(1186,706,o),
(1142,664,c),
(1206,456,l)
);
}
);
};
layerId = "6F54D498-A9E1-4B51-B9C6-3C6A0E91D68A";
name = "Extra Bold{800,-10}";
shapes = (
{
closed = 1;
nodes = (
(1100,-18,o),
(1240,100,o),
(1292,414,cs),
(1420,1174,l),
(1090,1174,l),
(966,424,ls),
(944,290,o),
(884,246,o),
(734,246,cs),
(584,246,o),
(540,292,o),
(562,424,cs),
(644,934,ls),
(668,1088,o),
(568,1192,o),
(416,1192,cs),
(248,1192,o),
(128,1064,o),
(128,914,cs),
(128,792,o),
(208,712,o),
(332,712,cs),
(406,712,o),
(474,744,o),
(506,794,c),
(274,782,l),
(212,414,ls),
(160,100,o),
(306,-18,o),
(696,-18,cs)
);
},
{
closed = 1;
nodes = (
(324,864,o),
(304,890,o),
(304,928,cs),
(304,978,o),
(338,1032,o),
(384,1032,cs),
(416,1032,o),
(436,1004,o),
(436,968,cs),
(436,910,o),
(398,864,o),
(356,864,cs)
);
},
{
closed = 1;
nodes = (
(1016,408,o),
(1070,412,o),
(1110,418,c),
(1110,610,l),
(1084,594,o),
(1052,590,o),
(1022,590,cs),
(986,590,o),
(956,596,o),
(930,614,c),
(678,572,l),
(702,530,o),
(762,498,o),
(824,498,cs),
(946,498,o),
(1052,602,o),
(1052,720,cs),
(1052,812,o),
(978,878,o),
(854,878,cs),
(726,878,o),
(630,776,o),
(630,640,cs),
(630,494,o),
(768,408,o),
(972,408,cs)
);
},
{
closed = 1;
nodes = (
(810,620,o),
(794,640,o),
(794,672,cs),
(794,718,o),
(824,754,o),
(858,754,cs),
(884,754,o),
(902,732,o),
(902,702,cs),
(902,656,o),
(870,620,o),
(836,620,cs)
);
},
{
closed = 1;
nodes = (
(1364,522,o),
(1476,642,o),
(1532,828,c),
(1248,838,l),
(1218,760,o),
(1186,706,o),
(1142,664,c),
(1206,456,l)
);
}
);
width = 1508;
}
);
metricLeft = "boBaimai-thai";
unicode = 3625;
}
{
glyphname = "soSua-thai";
kernLeft = "loLing-thai";
layers = (
{
anchors = (
{
name = bottom;
pos = (904,0);
},
{
name = top;
pos = (1084,1174);
}
);
layerId = "200BE2C5-40F6-4CF4-AF4F-A33C0CC0964F";
shapes = (
{
closed = 1;
nodes = (
(390,-14,o),
(458,90,o),
(458,198,cs),
(458,286,o),
(412,340,o),
(336,340,cs),
(252,340,o),
(190,274,o),
(172,168,c),
(190,168,l),
(190,180,o),
(190,190,o),
(190,202,cs),
(190,460,o),
(334,686,o),
(572,686,cs),
(794,686,o),
(942,504,o),
(904,280,cs),
(856,0,l),
(904,0,l),
(1032,782,ls),
(1050,892,o),
(1034,984,o),
(986,1054,c),
(924,1142,o),
(816,1192,o),
(672,1192,cs),
(476,1192,o),
(320,1100,o),
(226,932,c),
(268,914,l),
(348,1062,o),
(492,1146,o),
(670,1146,cs),
(896,1146,o),
(1024,1008,o),
(986,782,cs),
(936,482,l),
(930,482,l),
(880,638,o),
(750,730,o),
(578,730,cs),
(300,730,o),
(142,484,o),
(142,196,cs),
(142,154,o),
(148,114,o),
(158,80,cs),
(174,18,o),
(218,-14,o),
(280,-14,cs)
);
},
{
closed = 1;
nodes = (
(232,30,o),
(200,72,o),
(200,134,cs),
(200,214,o),
(252,296,o),
(328,296,cs),
(382,296,o),
(414,256,o),
(414,194,cs),
(414,114,o),
(362,30,o),
(286,30,cs)
);
},
{
closed = 1;
nodes = (
(1218,1240,l),
(1150,1240,l),
(952,1054,l),
(984,1022,l)
);
}
);
width = 1192;
},
{
anchors = (
{
name = bottom;
pos = (946,0);
},
{
name = top;
pos = (1126,1174);
}
);
layerId = "11F4534A-B963-4AB5-820F-DAF9A20CD933";
shapes = (
{
closed = 1;
nodes = (
(446,-14,o),
(548,96,o),
(548,236,cs),
(548,342,o),
(482,412,o),
(376,412,cs),
(314,412,o),
(256,372,o),
(232,314,c),
(280,314,l),
(280,324,o),
(282,330,o),
(288,368,cs),
(312,514,o),
(404,598,o),
(542,598,cs),
(740,598,o),
(850,440,o),
(812,216,cs),
(776,0,l),
(946,0,l),
(1076,782,ls),
(1098,920,o),
(1060,1022,o),
(970,1070,c),
(922,1152,o),
(820,1198,o),
(678,1198,cs),
(460,1198,o),
(284,1098,o),
(184,920,c),
(332,862,l),
(396,976,o),
(516,1042,o),
(660,1042,cs),
(842,1042,o),
(938,948,o),
(912,790,cs),
(872,546,l),
(862,546,l),
(822,674,o),
(716,744,o),
(560,744,cs),
(290,744,o),
(104,532,o),
(104,222,cs),
(104,156,o),
(120,100,o),
(148,62,cs),
(184,14,o),
(244,-14,o),
(312,-14,cs)
);
},
{
closed = 1;
nodes = (
(280,96,o),
(254,128,o),
(254,178,cs),
(254,248,o),
(302,306,o),
(358,306,cs),
(398,306,o),
(426,274,o),
(426,226,cs),
(426,156,o),
(378,96,o),
(322,96,cs)
);
},
{
closed = 1;
nodes = (
(1256,1234,l),
(1052,1234,l),
(870,1064,l),
(986,982,l)
);
}
);
width = 1204;
},
{
anchors = (
{
name = bottom;
pos = (1052,0);
},
{
name = top;
pos = (1234,1174);
}
);
layerId = "D0EC06BF-13F9-4C88-A6F5-B8203AF6C77E";
shapes = (
{
closed = 1;
nodes = (
(456,-18,o),
(574,90,o),
(574,244,cs),
(574,362,o),
(494,438,o),
(370,438,cs),
(296,438,o),
(220,406,o),
(194,360,c),
(396,318,l),
(396,334,o),
(400,350,o),
(402,366,cs),
(418,456,o),
(474,494,o),
(550,494,cs),
(678,494,o),
(722,386,o),
(700,250,cs),
(658,0,l),
(1054,0,l),
(1182,776,ls),
(1206,920,o),
(1156,1004,o),
(982,1010,c),
(960,1130,o),
(880,1198,o),
(680,1198,cs),
(390,1198,o),
(170,1058,o),
(108,792,c),
(498,792,l),
(520,864,o),
(578,898,o),
(668,898,cs),
(758,898,o),
(808,862,o),
(794,776,cs),
(764,598,l),
(754,598,l),
(712,672,o),
(628,728,o),
(486,728,cs),
(200,728,o),
(24,504,o),
(24,240,cs),
(24,158,o),
(46,106,o),
(76,68,cs),
(120,6,o),
(200,-18,o),
(286,-18,cs)
);
},
{
closed = 1;
nodes = (
(330,140,o),
(312,162,o),
(312,196,cs),
(312,250,o),
(344,290,o),
(382,290,cs),
(410,290,o),
(428,266,o),
(428,232,cs),
(428,180,o),
(396,140,o),
(360,140,cs)
);
},
{
closed = 1;
nodes = (
(1354,1234,l),
(966,1234,l),
(776,978,l),
(1096,920,l)
);
}
);
width = 1242;
}
);
metricLeft = "loLing-thai";
unicode = 3626;
}
{
glyphname = "hoHip-thai";
kernLeft = "boBaimai-thai";
layers = (
{
anchors = (
{
name = bottom;
pos = (982,0);
},
{
name = top;
pos = (1176,1174);
}
);
layerId = "200BE2C5-40F6-4CF4-AF4F-A33C0CC0964F";
shapes = (
{
closed = 1;
nodes = (
(274,0,l),
(290,94,ls),
(354,508,o),
(630,830,o),
(920,830,cs),
(1018,830,o),
(1062,776,o),
(1046,674,cs),
(936,0,l),
(982,0,l),
(1092,674,ls),
(1114,802,o),
(1052,876,o),
(922,876,cs),
(698,876,o),
(480,704,o),
(350,426,c),
(344,426,l),
(442,1010,ls),
(460,1112,o),
(404,1188,o),
(312,1188,cs),
(210,1188,o),
(138,1102,o),
(138,980,cs),
(138,892,o),
(188,834,o),
(262,834,cs),
(320,834,o),
(366,866,o),
(394,924,c),
(382,924,l),
(228,0,l)
);
},
{
closed = 1;
nodes = (
(218,878,o),
(182,920,o),
(182,982,cs),
(182,1076,o),
(238,1144,o),
(312,1144,cs),
(362,1144,o),
(398,1102,o),
(398,1042,cs),
(398,946,o),
(342,878,o),
(266,878,cs)
);
},
{
closed = 1;
nodes = (
(1088,832,o),
(1160,920,o),
(1160,1042,cs),
(1160,1128,o),
(1106,1188,o),
(1032,1188,cs),
(928,1188,o),
(856,1102,o),
(856,978,cs),
(856,892,o),
(910,832,o),
(984,832,cs)
);
},
{
closed = 1;
nodes = (
(934,878,o),
(900,918,o),
(900,978,cs),
(900,1074,o),
(954,1144,o),
(1030,1144,cs),
(1080,1144,o),
(1116,1100,o),
(1116,1040,cs),
(1116,946,o),
(1060,878,o),
(984,878,cs)
);
}
);
width = 1276;
},
{
anchors = (
{
name = bottom;
pos = (1072,0);
},
{
name = top;
pos = (1266,1174);
}
);
layerId = "11F4534A-B963-4AB5-820F-DAF9A20CD933";
shapes = (
{
closed = 1;
nodes = (
(382,0,l),
(408,152,ls),
(456,450,o),
(688,728,o),
(888,728,cs),
(974,728,o),
(1012,680,o),
(996,586,cs),
(900,0,l),
(1072,0,l),
(1170,600,ls),
(1196,758,o),
(1104,858,o),
(926,858,cs),
(752,858,o),
(590,756,o),
(484,576,c),
(472,576,l),
(538,968,ls),
(560,1094,o),
(480,1188,o),
(352,1188,cs),
(218,1188,o),
(116,1082,o),
(116,944,cs),
(116,834,o),
(184,760,o),
(290,760,cs),
(366,760,o),
(438,794,o),
(478,850,c),
(350,850,l),
(210,0,l)
);
},
{
closed = 1;
nodes = (
(266,868,o),
(238,902,o),
(238,950,cs),
(238,1020,o),
(284,1078,o),
(340,1078,cs),
(382,1078,o),
(410,1044,o),
(410,996,cs),
(410,926,o),
(364,868,o),
(308,868,cs)
);
},
{
closed = 1;
nodes = (
(1138,760,o),
(1252,872,o),
(1252,1006,cs),
(1252,1114,o),
(1174,1188,o),
(1060,1188,cs),
(926,1188,o),
(818,1082,o),
(818,946,cs),
(818,836,o),
(890,760,o),
(1000,760,cs)
);
},
{
closed = 1;
nodes = (
(976,868,o),
(948,900,o),
(948,950,cs),
(948,1020,o),
(996,1078,o),
(1052,1078,cs),
(1094,1078,o),
(1122,1044,o),
(1122,996,cs),
(1122,928,o),
(1074,868,o),
(1018,868,cs)
);
}
);
width = 1336;
},
{
anchors = (
{
name = bottom;
pos = (1178,0);
},
{
name = top;
pos = (1372,1174);
}
);
layerId = "D0EC06BF-13F9-4C88-A6F5-B8203AF6C77E";
shapes = (
{
closed = 1;
nodes = (
(476,0,l),
(516,248,ls),
(544,422,o),
(658,556,o),
(776,556,cs),
(834,556,o),
(860,522,o),
(850,464,cs),
(776,0,l),
(1178,0,l),
(1270,558,ls),
(1300,738,o),
(1190,856,o),
(990,856,cs),
(834,856,o),
(688,782,o),
(584,652,c),
(572,652,l),
(616,926,ls),
(640,1076,o),
(534,1192,o),
(370,1192,cs),
(206,1192,o),
(92,1082,o),
(92,922,cs),
(92,790,o),
(180,698,o),
(304,698,cs),
(376,698,o),
(442,732,o),
(474,782,c),
(216,782,l),
(88,0,l)
);
},
{
closed = 1;
nodes = (
(298,862,o),
(280,886,o),
(280,924,cs),
(280,976,o),
(314,1020,o),
(354,1020,cs),
(382,1020,o),
(402,996,o),
(402,962,cs),
(402,908,o),
(368,862,o),
(328,862,cs)
);
},
{
closed = 1;
nodes = (
(1220,698,o),
(1350,822,o),
(1350,974,cs),
(1350,1102,o),
(1254,1192,o),
(1116,1192,cs),
(950,1192,o),
(820,1070,o),
(820,914,cs),
(820,784,o),
(914,698,o),
(1054,698,cs)
);
},
{
closed = 1;
nodes = (
(1042,862,o),
(1024,886,o),
(1024,924,cs),
(1024,976,o),
(1058,1020,o),
(1098,1020,cs),
(1126,1020,o),
(1146,996,o),
(1146,962,cs),
(1146,908,o),
(1112,862,o),
(1072,862,cs)
);
}
);
width = 1374;
}
);
metricLeft = "noNu-thai";
unicode = 3627;
}
{
glyphname = "loChula-thai";
kernLeft = "boBaimai-thai";
layers = (
{
anchors = (
{
name = bottom;
pos = (1120,0);
}
);
layerId = "200BE2C5-40F6-4CF4-AF4F-A33C0CC0964F";
shapes = (
{
closed = 1;
nodes = (
(288,0,l),
(824,906,l),
(830,906,l),
(1066,0,l),
(1120,0,l),
(1300,1090,ls),
(1318,1194,o),
(1308,1286,o),
(1274,1352,c),
(1228,1446,o),
(1132,1500,o),
(998,1500,cs),
(840,1500,o),
(740,1430,o),
(740,1318,cs),
(740,1224,o),
(824,1166,o),
(956,1166,cs),
(1068,1166,o),
(1160,1210,o),
(1260,1312,c),
(1240,1350,l),
(1144,1252,o),
(1060,1208,o),
(958,1208,cs),
(854,1208,o),
(786,1252,o),
(786,1320,cs),
(786,1404,o),
(866,1456,o),
(996,1456,cs),
(1200,1456,o),
(1292,1324,o),
(1254,1090,cs),
(1090,104,l),
(1086,104,l),
(862,956,l),
(802,956,l),
(298,104,l),
(292,104,l),
(442,1010,ls),
(458,1112,o),
(404,1188,o),
(312,1188,cs),
(210,1188,o),
(138,1102,o),
(138,980,cs),
(138,892,o),
(188,834,o),
(262,834,cs),
(320,834,o),
(366,866,o),
(394,924,c),
(382,924,l),
(228,0,l)
);
},
{
closed = 1;
nodes = (
(218,878,o),
(182,920,o),
(182,982,cs),
(182,1076,o),
(238,1144,o),
(312,1144,cs),
(362,1144,o),
(398,1102,o),
(398,1042,cs),
(398,946,o),
(342,878,o),
(266,878,cs)
);
},
{
closed = 1;
nodes = (
(1502,1566,l),
(1444,1566,l),
(1252,1358,l),
(1276,1322,l)
);
}
);
width = 1414;
},
{
anchors = (
{
name = bottom;
pos = (1194,0);
}
);
layerId = "11F4534A-B963-4AB5-820F-DAF9A20CD933";
shapes = (
{
closed = 1;
nodes = (
(450,0,l),
(820,728,l),
(838,728,l),
(966,0,l),
(1196,0,l),
(1374,1080,ls),
(1394,1202,o),
(1372,1318,o),
(1298,1376,c),
(1268,1458,o),
(1140,1508,o),
(1010,1508,cs),
(826,1508,o),
(698,1416,o),
(698,1282,cs),
(698,1166,o),
(790,1094,o),
(942,1094,cs),
(1078,1094,o),
(1190,1152,o),
(1278,1268,c),
(1186,1332,l),
(1104,1238,o),
(1036,1202,o),
(950,1202,cs),
(878,1202,o),
(830,1236,o),
(830,1286,cs),
(830,1348,o),
(902,1394,o),
(1000,1394,cs),
(1162,1394,o),
(1236,1268,o),
(1202,1056,cs),
(1070,254,l),
(1058,254,l),
(938,912,l),
(768,912,l),
(430,254,l),
(418,254,l),
(536,968,ls),
(558,1094,o),
(478,1188,o),
(352,1188,cs),
(218,1188,o),
(116,1082,o),
(116,944,cs),
(116,834,o),
(186,760,o),
(290,760,cs),
(366,760,o),
(438,794,o),
(478,850,c),
(350,850,l),
(210,0,l)
);
},
{
closed = 1;
nodes = (
(266,868,o),
(238,902,o),
(238,950,cs),
(238,1020,o),
(284,1078,o),
(340,1078,cs),
(382,1078,o),
(410,1044,o),
(410,996,cs),
(410,926,o),
(364,868,o),
(308,868,cs)
);
},
{
closed = 1;
nodes = (
(1582,1566,l),
(1392,1566,l),
(1190,1362,l),
(1314,1304,l)
);
}
);
width = 1466;
},
{
anchors = (
{
name = bottom;
pos = (1299,0);
}
);
layerId = "D0EC06BF-13F9-4C88-A6F5-B8203AF6C77E";
shapes = (
{
closed = 1;
nodes = (
(527,0,l),
(781,530,l),
(793,530,l),
(869,0,l),
(1299,0,l),
(1481,1096,ls),
(1503,1232,o),
(1471,1330,o),
(1343,1376,c),
(1309,1452,o),
(1177,1502,o),
(1051,1502,cs),
(831,1502,o),
(695,1386,o),
(695,1240,cs),
(695,1110,o),
(787,1014,o),
(937,1014,cs),
(1079,1014,o),
(1207,1082,o),
(1291,1208,c),
(1141,1300,l),
(1097,1230,o),
(1041,1192,o),
(979,1192,cs),
(937,1192,o),
(911,1210,o),
(911,1240,cs),
(911,1282,o),
(945,1310,o),
(1001,1310,cs),
(1097,1310,o),
(1139,1234,o),
(1117,1102,cs),
(1005,430,l),
(993,430,l),
(911,898,l),
(765,898,l),
(527,430,l),
(515,430,l),
(597,926,ls),
(623,1080,o),
(525,1192,o),
(367,1192,cs),
(205,1192,o),
(93,1082,o),
(93,922,cs),
(93,790,o),
(175,698,o),
(295,698,cs),
(377,698,o),
(443,732,o),
(463,782,c),
(229,782,l),
(99,0,l)
);
},
{
closed = 1;
nodes = (
(289,862,o),
(271,886,o),
(271,924,cs),
(271,976,o),
(305,1020,o),
(345,1020,cs),
(373,1020,o),
(393,996,o),
(393,962,cs),
(393,908,o),
(359,862,o),
(319,862,cs)
);
},
{
closed = 1;
nodes = (
(1663,1566,l),
(1305,1566,l),
(1175,1394,l),
(1403,1254,l)
);
}
);
width = 1495;
}
);
metricLeft = "noNu-thai";
unicode = 3628;
}
{
glyphname = "oAng-thai";
kernLeft = "oAng-thai";
layers = (
{
anchors = (
{
name = bottom;
pos = (872,0);
},
{
name = top;
pos = (1064,1174);
}
);
layerId = "200BE2C5-40F6-4CF4-AF4F-A33C0CC0964F";
shapes = (
{
closed = 1;
nodes = (
(786,-14,o),
(900,82,o),
(942,334,cs),
(1012,766,ls),
(1054,1024,o),
(918,1192,o),
(658,1192,cs),
(464,1192,o),
(304,1100,o),
(210,930,c),
(252,914,l),
(334,1062,o),
(478,1146,o),
(656,1146,cs),
(882,1146,o),
(1004,1000,o),
(966,766,cs),
(894,334,ls),
(858,110,o),
(752,30,o),
(502,30,cs),
(250,30,o),
(174,112,o),
(210,334,cs),
(238,504,l),
(226,504,l),
(234,450,o),
(272,418,o),
(328,418,cs),
(426,418,o),
(494,500,o),
(494,616,cs),
(494,698,o),
(446,756,o),
(374,756,cs),
(290,756,o),
(222,690,o),
(206,588,cs),
(164,334,ls),
(122,84,o),
(224,-14,o),
(500,-14,cs)
);
},
{
closed = 1;
nodes = (
(284,460,o),
(250,500,o),
(250,558,cs),
(250,648,o),
(302,712,o),
(372,712,cs),
(418,712,o),
(450,672,o),
(450,616,cs),
(450,526,o),
(400,460,o),
(330,460,cs)
);
}
);
width = 1168;
},
{
anchors = (
{
name = bottom;
pos = (960,0);
},
{
name = top;
pos = (1140,1174);
}
);
layerId = "11F4534A-B963-4AB5-820F-DAF9A20CD933";
shapes = (
{
closed = 1;
nodes = (
(854,-14,o),
(972,74,o),
(1018,344,cs),
(1090,784,ls),
(1130,1032,o),
(966,1198,o),
(682,1198,cs),
(464,1198,o),
(286,1096,o),
(190,920,c),
(338,862,l),
(404,976,o),
(526,1042,o),
(670,1042,cs),
(850,1042,o),
(944,936,o),
(916,766,cs),
(850,360,ls),
(820,188,o),
(750,136,o),
(542,136,cs),
(334,136,o),
(276,182,o),
(302,336,cs),
(318,428,l),
(210,428,l),
(232,376,o),
(288,344,o),
(360,344,cs),
(488,344,o),
(580,438,o),
(580,570,cs),
(580,674,o),
(508,750,o),
(406,750,cs),
(288,750,o),
(194,664,o),
(172,540,cs),
(136,322,ls),
(96,84,o),
(214,-14,o),
(534,-14,cs)
);
},
{
closed = 1;
nodes = (
(328,446,o),
(298,478,o),
(298,524,cs),
(298,594,o),
(340,644,o),
(398,644,cs),
(436,644,o),
(462,612,o),
(462,568,cs),
(462,498,o),
(422,446,o),
(366,446,cs)
);
}
);
width = 1214;
},
{
anchors = (
{
name = bottom;
pos = (1098,0);
},
{
name = top;
pos = (1278,1174);
}
);
layerId = "D0EC06BF-13F9-4C88-A6F5-B8203AF6C77E";
shapes = (
{
closed = 1;
nodes = (
(954,-18,o),
(1112,84,o),
(1160,376,cs),
(1230,792,ls),
(1274,1048,o),
(1090,1198,o),
(734,1198,cs),
(390,1198,o),
(176,1056,o),
(114,792,c),
(504,792,l),
(536,864,o),
(594,898,o),
(688,898,cs),
(796,898,o),
(844,852,o),
(830,762,cs),
(768,392,ls),
(752,294,o),
(702,258,o),
(574,258,cs),
(472,258,o),
(432,280,o),
(442,334,cs),
(452,390,l),
(194,390,l),
(204,348,o),
(270,316,o),
(348,316,cs),
(486,316,o),
(598,420,o),
(598,546,cs),
(598,656,o),
(502,734,o),
(368,734,cs),
(222,734,o),
(112,642,o),
(88,492,cs),
(62,326,ls),
(20,76,o),
(154,-18,o),
(552,-18,cs)
);
},
{
closed = 1;
nodes = (
(326,442,o),
(308,462,o),
(308,496,cs),
(308,544,o),
(340,584,o),
(376,584,cs),
(402,584,o),
(418,564,o),
(418,530,cs),
(418,484,o),
(388,442,o),
(352,442,cs)
);
}
);
width = 1282;
}
);
unicode = 3629;
}
{
glyphname = "paiyannoi-thai";
layers = (
{
layerId = "200BE2C5-40F6-4CF4-AF4F-A33C0CC0964F";
shapes = (
{
closed = 1;
nodes = (
(728,0,l),
(920,1174,l),
(874,1174,l),
(852,1038,ls),
(814,804,o),
(626,634,o),
(410,634,cs),
(266,634,o),
(186,702,o),
(186,830,cs),
(186,888,o),
(198,950,o),
(224,1004,c),
(208,1004,l),
(200,914,o),
(252,848,o),
(330,848,cs),
(428,848,o),
(498,930,o),
(498,1048,cs),
(498,1128,o),
(448,1188,o),
(376,1188,cs),
(232,1188,o),
(138,988,o),
(138,830,cs),
(138,672,o),
(240,590,o),
(408,590,cs),
(574,590,o),
(708,670,o),
(810,818,c),
(816,818,l),
(680,0,l)
);
},
{
closed = 1;
nodes = (
(286,894,o),
(252,932,o),
(252,988,cs),
(252,1078,o),
(302,1144,o),
(374,1144,cs),
(420,1144,o),
(452,1104,o),
(452,1048,cs),
(452,958,o),
(402,894,o),
(332,894,cs)
);
}
);
width = 1028;
},
{
layerId = "11F4534A-B963-4AB5-820F-DAF9A20CD933";
shapes = (
{
closed = 1;
nodes = (
(854,0,l),
(1048,1174,l),
(876,1174,l),
(848,1004,ls),
(820,832,o),
(674,714,o),
(490,714,cs),
(384,714,o),
(322,758,o),
(322,826,cs),
(322,856,o),
(334,890,o),
(362,928,c),
(274,986,l),
(258,900,o),
(330,836,o),
(420,836,cs),
(536,836,o),
(620,916,o),
(620,1028,cs),
(620,1118,o),
(546,1188,o),
(448,1188,cs),
(280,1188,o),
(160,1044,o),
(160,844,cs),
(160,674,o),
(262,560,o),
(440,560,cs),
(570,560,o),
(696,616,o),
(788,714,c),
(800,714,l),
(682,0,l)
);
},
{
closed = 1;
nodes = (
(390,926,o),
(366,952,o),
(366,994,cs),
(366,1052,o),
(404,1104,o),
(452,1104,cs),
(486,1104,o),
(510,1076,o),
(510,1036,cs),
(510,976,o),
(472,926,o),
(424,926,cs)
);
}
);
width = 1124;
},
{
layerId = "D0EC06BF-13F9-4C88-A6F5-B8203AF6C77E";
shapes = (
{
closed = 1;
nodes = (
(1102,0,l),
(1296,1174,l),
(894,1174,l),
(852,924,ls),
(828,774,o),
(724,680,o),
(612,680,cs),
(538,680,o),
(478,710,o),
(478,782,cs),
(478,804,o),
(484,832,o),
(492,858,c),
(274,814,l),
(286,766,o),
(362,736,o),
(440,736,cs),
(582,736,o),
(702,844,o),
(702,990,cs),
(702,1106,o),
(628,1192,o),
(478,1192,cs),
(254,1192,o),
(118,1028,o),
(118,774,cs),
(118,566,o),
(260,448,o),
(466,448,cs),
(608,448,o),
(724,502,o),
(790,576,c),
(802,576,l),
(706,0,l)
);
},
{
closed = 1;
nodes = (
(456,884,o),
(440,908,o),
(440,942,cs),
(440,996,o),
(472,1034,o),
(510,1034,cs),
(538,1034,o),
(556,1012,o),
(556,978,cs),
(556,924,o),
(522,884,o),
(486,884,cs)
);
}
);
width = 1304;
}
);
unicode = 3631;
}
{
glyphname = "saraA-thai";
layers = (
{
layerId = "200BE2C5-40F6-4CF4-AF4F-A33C0CC0964F";
shapes = (
{
closed = 1;
nodes = (
(676,684,o),
(842,812,o),
(926,1074,c),
(880,1082,l),
(806,844,o),
(662,728,o),
(460,728,cs),
(352,728,o),
(288,748,o),
(262,786,c),
(242,774,l),
(260,766,o),
(280,762,o),
(302,762,cs),
(392,762,o),
(458,838,o),
(458,946,cs),
(458,1024,o),
(408,1082,o),
(338,1082,cs),
(242,1082,o),
(174,1000,o),
(174,888,cs),
(174,764,o),
(284,684,o),
(458,684,cs)
);
},
{
closed = 1;
nodes = (
(252,800,o),
(222,840,o),
(222,894,cs),
(222,978,o),
(270,1038,o),
(338,1038,cs),
(380,1038,o),
(414,1000,o),
(414,946,cs),
(414,862,o),
(364,800,o),
(298,800,cs)
);
},
{
closed = 1;
nodes = (
(572,64,o),
(740,194,o),
(824,456,c),
(776,462,l),
(702,224,o),
(558,110,o),
(356,110,cs),
(248,110,o),
(184,130,o),
(158,168,c),
(142,152,l),
(160,144,o),
(178,142,o),
(198,142,cs),
(288,142,o),
(354,220,o),
(354,328,cs),
(354,406,o),
(306,462,o),
(236,462,cs),
(140,462,o),
(72,382,o),
(72,270,cs),
(72,146,o),
(180,64,o),
(354,64,cs)
);
},
{
closed = 1;
nodes = (
(148,180,o),
(118,220,o),
(118,274,cs),
(118,358,o),
(166,418,o),
(234,418,cs),
(276,418,o),
(310,380,o),
(310,326,cs),
(310,242,o),
(260,180,o),
(194,180,cs)
);
}
);
width = 972;
},
{
layerId = "11F4534A-B963-4AB5-820F-DAF9A20CD933";
shapes = (
{
closed = 1;
nodes = (
(690,650,o),
(850,776,o),
(932,1014,c),
(778,1042,l),
(712,856,o),
(614,762,o),
(480,762,cs),
(440,762,o),
(402,772,o),
(370,790,c),
(218,736,l),
(242,722,o),
(268,716,o),
(302,716,cs),
(416,716,o),
(510,808,o),
(510,920,cs),
(510,1012,o),
(446,1072,o),
(348,1072,cs),
(230,1072,o),
(142,982,o),
(142,864,cs),
(142,728,o),
(260,650,o),
(468,650,cs)
);
},
{
closed = 1;
nodes = (
(282,800,o),
(258,828,o),
(258,870,cs),
(258,930,o),
(298,980,o),
(346,980,cs),
(380,980,o),
(404,952,o),
(404,910,cs),
(404,850,o),
(364,800,o),
(316,800,cs)
);
},
{
closed = 1;
nodes = (
(592,66,o),
(752,192,o),
(836,430,c),
(682,458,l),
(616,272,o),
(514,178,o),
(382,178,cs),
(342,178,o),
(304,188,o),
(274,206,c),
(126,150,l),
(148,136,o),
(176,130,o),
(206,130,cs),
(320,130,o),
(414,222,o),
(414,334,cs),
(414,424,o),
(350,488,o),
(252,488,cs),
(134,488,o),
(46,400,o),
(46,280,cs),
(46,144,o),
(164,66,o),
(372,66,cs)
);
},
{
closed = 1;
nodes = (
(184,216,o),
(162,244,o),
(162,286,cs),
(162,348,o),
(200,396,o),
(248,396,cs),
(284,396,o),
(308,368,o),
(308,326,cs),
(308,266,o),
(268,216,o),
(220,216,cs)
);
}
);
width = 936;
},
{
layerId = "D0EC06BF-13F9-4C88-A6F5-B8203AF6C77E";
shapes = (
{
closed = 1;
nodes = (
(798,606,o),
(994,774,o),
(1058,1100,c),
(724,1100,l),
(686,940,o),
(622,852,o),
(540,852,cs),
(504,852,o),
(474,860,o),
(446,876,c),
(196,798,l),
(224,750,o),
(278,726,o),
(344,726,cs),
(466,726,o),
(572,834,o),
(572,958,cs),
(572,1064,o),
(486,1140,o),
(364,1140,cs),
(214,1140,o),
(102,1028,o),
(102,878,cs),
(102,708,o),
(246,606,o),
(488,606,cs)
);
},
{
closed = 1;
nodes = (
(322,862,o),
(306,880,o),
(306,912,cs),
(306,960,o),
(334,998,o),
(370,998,cs),
(394,998,o),
(412,978,o),
(412,946,cs),
(412,902,o),
(380,862,o),
(346,862,cs)
);
},
{
closed = 1;
nodes = (
(702,14,o),
(898,184,o),
(962,510,c),
(626,510,l),
(588,350,o),
(522,262,o),
(440,262,cs),
(404,262,o),
(374,270,o),
(346,286,c),
(98,208,l),
(126,160,o),
(178,136,o),
(246,136,cs),
(366,136,o),
(472,244,o),
(472,368,cs),
(472,474,o),
(386,550,o),
(264,550,cs),
(114,550,o),
(2,436,o),
(2,286,cs),
(2,116,o),
(150,14,o),
(392,14,cs)
);
},
{
closed = 1;
nodes = (
(222,270,o),
(206,290,o),
(206,322,cs),
(206,370,o),
(236,408,o),
(270,408,cs),
(296,408,o),
(312,386,o),
(312,354,cs),
(312,310,o),
(282,270,o),
(248,270,cs)
);
}
);
width = 1012;
}
);
unicode = 3632;
}
{
glyphname = "maiHanaKat-thai";
layers = (
{
anchors = (
{
name = _top;
pos = (-96,1174);
},
{
name = top;
pos = (-14,1662);
}
);
layerId = "200BE2C5-40F6-4CF4-AF4F-A33C0CC0964F";
shapes = (
{
closed = 1;
nodes = (
(-14,1322,o),
(152,1452,o),
(238,1712,c),
(194,1720,l),
(118,1482,o),
(-28,1366,o),
(-232,1366,cs),
(-332,1366,o),
(-396,1388,o),
(-428,1426,c),
(-478,1434,l),
(-460,1412,o),
(-426,1400,o),
(-390,1400,cs),
(-300,1400,o),
(-234,1478,o),
(-234,1586,cs),
(-234,1664,o),
(-284,1722,o),
(-354,1722,cs),
(-448,1722,o),
(-516,1642,o),
(-516,1530,cs),
(-516,1406,o),
(-408,1322,o),
(-234,1322,cs)
);
},
{
closed = 1;
nodes = (
(-440,1440,o),
(-470,1478,o),
(-470,1532,cs),
(-470,1618,o),
(-422,1678,o),
(-356,1678,cs),
(-312,1678,o),
(-280,1640,o),
(-280,1586,cs),
(-280,1500,o),
(-328,1440,o),
(-394,1440,cs)
);
}
);
width = 0;
},
{
anchors = (
{
name = _top;
pos = (-66,1174);
},
{
name = top;
pos = (18,1682);
}
);
layerId = "11F4534A-B963-4AB5-820F-DAF9A20CD933";
shapes = (
{
closed = 1;
nodes = (
(2,1300,o),
(168,1426,o),
(252,1664,c),
(98,1694,l),
(28,1506,o),
(-74,1412,o),
(-208,1412,cs),
(-252,1412,o),
(-292,1422,o),
(-332,1440,c),
(-532,1440,l),
(-516,1394,o),
(-464,1366,o),
(-400,1366,cs),
(-286,1366,o),
(-192,1458,o),
(-192,1570,cs),
(-192,1662,o),
(-258,1722,o),
(-356,1722,cs),
(-474,1722,o),
(-562,1634,o),
(-562,1516,cs),
(-562,1380,o),
(-440,1300,o),
(-230,1300,cs)
);
},
{
closed = 1;
nodes = (
(-422,1450,o),
(-446,1478,o),
(-446,1520,cs),
(-446,1580,o),
(-404,1630,o),
(-356,1630,cs),
(-322,1630,o),
(-298,1602,o),
(-298,1560,cs),
(-298,1500,o),
(-340,1450,o),
(-388,1450,cs)
);
}
);
width = 0;
},
{
anchors = (
{
name = _top;
pos = (2,1174);
},
{
name = top;
pos = (94,1730);
}
);
layerId = "D0EC06BF-13F9-4C88-A6F5-B8203AF6C77E";
shapes = (
{
closed = 1;
nodes = (
(36,1266,o),
(254,1440,o),
(332,1730,c),
(6,1730,l),
(-42,1568,o),
(-128,1474,o),
(-212,1474,cs),
(-244,1474,o),
(-288,1480,o),
(-318,1496,c),
(-534,1434,l),
(-506,1388,o),
(-458,1362,o),
(-396,1362,cs),
(-276,1362,o),
(-180,1450,o),
(-180,1576,cs),
(-180,1690,o),
(-272,1772,o),
(-406,1772,cs),
(-552,1772,o),
(-660,1672,o),
(-660,1528,cs),
(-660,1368,o),
(-508,1266,o),
(-270,1266,cs)
);
},
{
closed = 1;
nodes = (
(-452,1492,o),
(-468,1512,o),
(-468,1544,cs),
(-468,1590,o),
(-438,1630,o),
(-402,1630,cs),
(-378,1630,o),
(-362,1608,o),
(-362,1578,cs),
(-362,1530,o),
(-392,1492,o),
(-426,1492,cs)
);
}
);
width = 0;
}
);
unicode = 3633;
}
{
glyphname = "saraAa-thai";
kernLeft = "saraAa-thai";
kernRight = "saraAa-thai";
layers = (
{
layerId = "200BE2C5-40F6-4CF4-AF4F-A33C0CC0964F";
shapes = (
{
closed = 1;
nodes = (
(602,0,l),
(738,830,ls),
(774,1050,o),
(672,1192,o),
(486,1192,cs),
(318,1192,o),
(180,1076,o),
(114,896,c),
(158,880,l),
(218,1046,o),
(338,1146,o),
(482,1146,cs),
(642,1146,o),
(724,1022,o),
(692,830,cs),
(556,0,l)
);
}
);
width = 888;
},
{
layerId = "11F4534A-B963-4AB5-820F-DAF9A20CD933";
shapes = (
{
closed = 1;
nodes = (
(712,0,l),
(844,800,ls),
(882,1038,o),
(750,1198,o),
(518,1198,cs),
(326,1198,o),
(170,1086,o),
(100,896,c),
(248,850,l),
(294,970,o),
(392,1042,o),
(502,1042,cs),
(626,1042,o),
(692,946,o),
(668,802,cs),
(536,0,l)
);
}
);
width = 968;
},
{
layerId = "D0EC06BF-13F9-4C88-A6F5-B8203AF6C77E";
shapes = (
{
closed = 1;
nodes = (
(884,0,l),
(1018,810,ls),
(1056,1036,o),
(884,1198,o),
(602,1198,cs),
(326,1198,o),
(124,1040,o),
(74,790,c),
(462,790,l),
(476,852,o),
(514,892,o),
(558,892,cs),
(602,892,o),
(622,850,o),
(612,786,cs),
(482,0,l)
);
}
);
width = 1112;
}
);
unicode = 3634;
}
{
glyphname = "saraAm-thai";
kernLeft = "saraAa-thai";
kernRight = "saraAa-thai";
layers = (
{
layerId = "200BE2C5-40F6-4CF4-AF4F-A33C0CC0964F";
shapes = (
{
closed = 1;
nodes = (
(602,0,l),
(738,830,ls),
(774,1052,o),
(674,1192,o),
(486,1192,cs),
(318,1192,o),
(180,1076,o),
(114,896,c),
(158,880,l),
(220,1048,o),
(338,1146,o),
(482,1146,cs),
(642,1146,o),
(724,1024,o),
(692,830,cs),
(556,0,l)
);
},
{
closed = 1;
nodes = (
(20,1320,o),
(98,1426,o),
(98,1538,cs),
(98,1626,o),
(46,1690,o),
(-36,1690,cs),
(-146,1690,o),
(-224,1584,o),
(-224,1470,cs),
(-224,1380,o),
(-170,1320,o),
(-92,1320,cs)
);
},
{
closed = 1;
nodes = (
(-144,1362,o),
(-178,1408,o),
(-178,1472,cs),
(-178,1560,o),
(-124,1646,o),
(-42,1646,cs),
(16,1646,o),
(52,1602,o),
(52,1536,cs),
(52,1450,o),
(-6,1362,o),
(-88,1362,cs)
);
}
);
width = 888;
},
{
layerId = "11F4534A-B963-4AB5-820F-DAF9A20CD933";
shapes = (
{
closed = 1;
nodes = (
(712,0,l),
(844,800,ls),
(884,1038,o),
(750,1198,o),
(518,1198,cs),
(326,1198,o),
(172,1086,o),
(100,896,c),
(248,850,l),
(294,970,o),
(392,1042,o),
(502,1042,cs),
(628,1042,o),
(692,948,o),
(668,802,cs),
(536,0,l)
);
},
{
closed = 1;
nodes = (
(12,1304,o),
(110,1398,o),
(110,1524,cs),
(110,1622,o),
(40,1690,o),
(-62,1690,cs),
(-194,1690,o),
(-296,1594,o),
(-296,1468,cs),
(-296,1370,o),
(-224,1304,o),
(-120,1304,cs)
);
},
{
closed = 1;
nodes = (
(-148,1406,o),
(-174,1434,o),
(-174,1478,cs),
(-174,1540,o),
(-130,1590,o),
(-78,1590,cs),
(-38,1590,o),
(-14,1564,o),
(-14,1518,cs),
(-14,1456,o),
(-56,1406,o),
(-108,1406,cs)
);
}
);
width = 968;
},
{
layerId = "D0EC06BF-13F9-4C88-A6F5-B8203AF6C77E";
shapes = (
{
closed = 1;
nodes = (
(884,0,l),
(1018,810,ls),
(1056,1036,o),
(884,1198,o),
(602,1198,cs),
(326,1198,o),
(124,1042,o),
(74,790,c),
(462,790,l),
(476,852,o),
(514,892,o),
(558,892,cs),
(602,892,o),
(622,850,o),
(612,786,cs),
(482,0,l)
);
},
{
closed = 1;
nodes = (
(-6,1258,o),
(130,1376,o),
(130,1528,cs),
(130,1658,o),
(28,1746,o),
(-114,1746,cs),
(-282,1746,o),
(-416,1626,o),
(-416,1474,cs),
(-416,1344,o),
(-316,1258,o),
(-174,1258,cs)
);
},
{
closed = 1;
nodes = (
(-188,1422,o),
(-206,1448,o),
(-206,1482,cs),
(-206,1538,o),
(-170,1582,o),
(-130,1582,cs),
(-100,1582,o),
(-82,1556,o),
(-82,1520,cs),
(-82,1472,o),
(-114,1422,o),
(-158,1422,cs)
);
}
);
width = 1112;
}
);
unicode = 3635;
}
{
glyphname = "saraI-thai";
layers = (
{
anchors = (
{
name = _top;
pos = (-96,1174);
},
{
name = top;
pos = (-22,1618);
}
);
layerId = "200BE2C5-40F6-4CF4-AF4F-A33C0CC0964F";
shapes = (
{
closed = 1;
nodes = (
(-68,1334,l),
(-62,1370,l),
(-132,1548,o),
(-338,1662,o),
(-542,1662,cs),
(-746,1662,o),
(-856,1548,o),
(-884,1370,cs),
(-890,1334,l)
);
},
{
closed = 1;
nodes = (
(-816,1522,o),
(-718,1618,o),
(-542,1618,cs),
(-360,1618,o),
(-176,1518,o),
(-110,1362,c),
(-106,1378,l),
(-862,1378,l),
(-840,1370,l)
);
}
);
width = 0;
},
{
anchors = (
{
name = _top;
pos = (-66,1174);
},
{
name = top;
pos = (12,1640);
}
);
layerId = "11F4534A-B963-4AB5-820F-DAF9A20CD933";
shapes = (
{
closed = 1;
nodes = (
(-42,1320,l),
(-26,1416,l),
(-96,1574,o),
(-296,1682,o),
(-514,1682,cs),
(-734,1682,o),
(-880,1570,o),
(-912,1372,cs),
(-922,1320,l)
);
},
{
closed = 1;
nodes = (
(-732,1504,o),
(-650,1562,o),
(-506,1562,cs),
(-350,1562,o),
(-218,1492,o),
(-170,1384,c),
(-84,1428,l),
(-794,1428,l),
(-752,1390,l)
);
}
);
width = 0;
},
{
anchors = (
{
name = _top;
pos = (2,1174);
},
{
name = top;
pos = (88,1688);
}
);
layerId = "D0EC06BF-13F9-4C88-A6F5-B8203AF6C77E";
shapes = (
{
closed = 1;
nodes = (
(22,1290,l),
(40,1400,l),
(-94,1590,o),
(-326,1702,o),
(-578,1702,cs),
(-812,1702,o),
(-974,1580,o),
(-1014,1342,cs),
(-1022,1290,l)
);
},
{
closed = 1;
nodes = (
(-668,1490,o),
(-600,1538,o),
(-510,1538,cs),
(-402,1538,o),
(-306,1488,o),
(-246,1406,c),
(-218,1438,l),
(-710,1438,l),
(-682,1406,l)
);
}
);
width = 0;
}
);
unicode = 3636;
}
{
glyphname = "saraIi-thai";
layers = (
{
anchors = (
{
name = _top;
pos = (-96,1174);
},
{
name = top;
pos = (-14,1662);
}
);
layerId = "200BE2C5-40F6-4CF4-AF4F-A33C0CC0964F";
shapes = (
{
closed = 1;
nodes = (
(-68,1334,l),
(-14,1662,l),
(-60,1662,l),
(-100,1414,l),
(-106,1414,l),
(-188,1566,o),
(-368,1662,o),
(-542,1662,cs),
(-746,1662,o),
(-856,1548,o),
(-884,1370,cs),
(-890,1334,l)
);
},
{
closed = 1;
nodes = (
(-816,1522,o),
(-718,1618,o),
(-542,1618,cs),
(-368,1618,o),
(-200,1518,o),
(-130,1362,c),
(-122,1378,l),
(-862,1378,l),
(-840,1370,l)
);
}
);
width = 0;
},
{
anchors = (
{
name = _top;
pos = (-66,1174);
},
{
name = top;
pos = (18,1682);
}
);
layerId = "11F4534A-B963-4AB5-820F-DAF9A20CD933";
shapes = (
{
closed = 1;
nodes = (
(-42,1320,l),
(18,1682,l),
(-132,1682,l),
(-166,1480,l),
(-178,1480,l),
(-228,1606,o),
(-358,1682,o),
(-526,1682,cs),
(-734,1682,o),
(-880,1566,o),
(-912,1372,cs),
(-922,1320,l)
);
},
{
closed = 1;
nodes = (
(-734,1500,o),
(-650,1562,o),
(-520,1562,cs),
(-384,1562,o),
(-278,1496,o),
(-236,1384,c),
(-168,1428,l),
(-800,1428,l),
(-752,1390,l)
);
}
);
width = 0;
},
{
anchors = (
{
name = _top;
pos = (2,1174);
},
{
name = top;
pos = (94,1730);
}
);
layerId = "D0EC06BF-13F9-4C88-A6F5-B8203AF6C77E";
shapes = (
{
closed = 1;
nodes = (
(22,1290,l),
(96,1730,l),
(-250,1730,l),
(-276,1568,l),
(-286,1568,l),
(-362,1662,o),
(-494,1702,o),
(-614,1702,cs),
(-840,1702,o),
(-978,1560,o),
(-1014,1342,cs),
(-1022,1290,l)
);
},
{
closed = 1;
nodes = (
(-666,1492,o),
(-608,1538,o),
(-526,1538,cs),
(-420,1538,o),
(-336,1488,o),
(-304,1406,c),
(-286,1438,l),
(-702,1438,l),
(-680,1406,l)
);
}
);
width = 0;
}
);
unicode = 3637;
}
